<svg xmlns="http://www.w3.org/2000/svg" xmlns:xlink="http://www.w3.org/1999/xlink" width="20" height="20" viewBox="0 0 20 20">
  <defs>
    <polygon id="fb-a" points="0 0 0 19.453 19.453 19.453 19.453 0"/>
  </defs>
  <g fill="none" fill-rule="evenodd" opacity=".7">
    <mask id="fb-b" fill="#fff">
      <use xlink:href="#fb-a"/>
    </mask>
    <path fill="#000" d="M18.3803265,3.08779418e-05 L1.0727769,3.08779418e-05 C0.479611634,3.08779418e-05 -7.71948549e-05,0.480028486 -7.71948549e-05,1.07319375 L-7.71948549e-05,18.3802802 C-7.71948549e-05,18.9732911 0.479611634,19.4534431 1.0727769,19.4534431 L10.3911222,19.4534431 L10.3911222,11.911197 L7.84569908,11.911197 L7.84569908,8.9853576 L10.3917398,8.9853576 L10.3917398,6.8188068 C10.3917398,4.30611428 11.9252928,2.9448602 14.166877,2.9448602 C15.2406574,2.9448602 16.1635991,3.01773215 16.432546,3.05339617 L16.432546,5.68064586 L14.8776872,5.68018269 C13.658626,5.68018269 13.4309012,6.25945289 13.4309012,7.10952263 L13.4309012,8.9853576 L16.3301856,8.9853576 L15.951622,11.911197 L13.4309012,11.911197 L13.4309012,19.4534431 L18.3803265,19.4534431 C18.973183,19.4534431 19.4534894,18.9732911 19.4534894,18.3802802 L19.4534894,1.07319375 C19.4534894,0.480028486 18.973183,3.08779418e-05 18.3803265,3.08779418e-05" mask="url(#fb-b)"/>
  </g>
</svg>
