<svg xmlns="http://www.w3.org/2000/svg" width="30" height="42" viewBox="0 0 30 42">
  <path fill="#CFCFCF" fill-rule="evenodd" d="M1055.86176,4972.59906 C1051.05154,4972.59906 1047.12176,4976.52884 1047.12176,4981.33906 C1047.12176,4984.26797 1048.57545,4986.86642 1050.80176,4988.4548 L1050.80176,4984.51605 C1050.22497,4983.59605 1049.88176,4982.50893 1049.88176,4981.33919 C1049.88176,4978.02039 1052.54295,4975.35919 1055.86176,4975.35919 C1059.18057,4975.35919 1061.84176,4978.02039 1061.84176,4981.33919 C1061.84176,4982.50897 1061.49856,4983.59605 1060.92176,4984.51605 L1060.92176,4988.4548 C1063.14807,4986.86637 1064.60176,4984.26806 1064.60176,4981.33906 C1064.60176,4976.52884 1060.67198,4972.59906 1055.86176,4972.59906 Z M1055.86176,4978.11906 C1053.5923,4978.11906 1051.72176,4979.9896 1051.72176,4982.25906 L1051.72176,4993.44258 C1051.03894,4992.52796 1050.29502,4991.82899 1049.42176,4991.58822 C1048.22502,4991.2594 1047.1541,4991.68705 1046.43176,4992.10572 C1045.5585,4992.79931 1044.7966,4993.33839 1044.49111,4994.44887 C1044.20361,4995.49643 1044.41565,4996.6249 1044.92236,4997.92762 C1047.34813,5003.73696 1050.28412,5009.37012 1053.90662,5013.52438 C1054.16357,5013.81907 1054.54989,5013.99694 1054.94162,5013.99873 L1067.36162,5013.99873 C1067.65451,5013.99873 1067.94559,5013.89991 1068.18097,5013.72561 C1069.62206,5012.65827 1070.69842,5010.92789 1071.60222,5008.89561 C1072.50603,5006.86333 1073.18886,5004.50762 1073.54287,5002.21135 C1073.89689,4999.91507 1073.92381,4997.64369 1073.39912,4995.77135 C1072.86543,4993.86847 1071.45847,4992.16504 1069.35977,4991.91885 C1069.00399,4991.90807 1068.62124,4991.96736 1068.31042,4992.0051 C1068.03909,4991.4858 1067.67612,4991.06711 1067.27542,4990.78325 C1066.4884,4990.22444 1065.71036,4990.06808 1065.03292,4990.07889 C1064.54776,4990.08788 1064.10574,4990.25139 1063.68167,4990.48139 C1063.51097,4990.27835 1063.3744,4990.0196 1063.17852,4989.87764 C1062.3933,4989.30803 1061.58651,4989.15889 1060.92167,4989.15889 C1060.60722,4989.15889 1060.30352,4989.20741 1060.00167,4989.27389 L1060.00167,4982.25889 C1060.00167,4979.98944 1058.13112,4978.11889 1055.86167,4978.11889 L1055.86176,4978.11906 Z M1055.86176,4980.87906 C1056.65057,4980.87906 1057.24176,4981.47025 1057.24176,4982.25906 L1057.24176,4991.91906 C1057.23996,4992.54259 1057.71252,4993.13373 1058.31991,4993.27031 C1058.92729,4993.40688 1059.60828,4993.07265 1059.87241,4992.50845 C1060.37372,4991.85797 1060.89664,4991.87237 1061.55426,4992.10595 C1061.71958,4992.22634 1061.84176,4992.29463 1061.84176,4992.8391 C1061.83996,4993.45725 1062.30535,4994.0484 1062.90551,4994.19035 C1063.50567,4994.33231 1064.18307,4994.01067 1064.45801,4993.4572 C1064.81739,4992.7115 1065.051,4992.80313 1065.67986,4993.04033 C1065.86854,4993.17509 1065.98174,4993.23978 1065.98174,4993.75908 C1065.98533,4994.28914 1066.32854,4994.79767 1066.81549,4995.00973 C1067.30244,4995.22179 1067.90619,4995.12473 1068.29614,4994.76535 C1068.31051,4994.7959 1068.91065,4994.60183 1069.12989,4994.6791 C1069.98521,4994.80848 1070.40386,4995.29725 1070.75424,4996.53345 C1071.11721,4997.81465 1071.14056,4999.75345 1070.82611,5001.79493 C1070.51166,5003.83641 1069.8648,5005.99243 1069.07236,5007.77493 C1068.35182,5009.39211 1067.48573,5010.6014 1066.77236,5011.23929 L1055.63162,5011.23929 C1053.05847,5007.75515 1047.12346,4998.38275 1047.15014,4995.19679 C1047.52389,4994.58407 1048.10427,4994.18515 1048.68829,4994.24804 C1049.4196,4994.61819 1049.60111,4994.99733 1050.03954,4995.78618 L1051.86519,4999.43743 C1052.14011,4999.99086 1052.81753,5000.31249 1053.41769,5000.17058 C1054.01785,5000.02867 1054.48323,4999.43743 1054.48144,4998.81933 L1054.48144,4982.25933 C1054.48144,4981.47052 1055.07263,4980.87933 1055.86144,4980.87933 L1055.86176,4980.87906 Z" transform="translate(-1044 -4972)"/>
</svg>
