<svg xmlns="http://www.w3.org/2000/svg" width="55" height="62" viewBox="0 0 55 62">
  <g fill="#FFF" fill-rule="evenodd" transform="translate(.375 .661)">
    <path d="M49.3337232,5.85214364 L28.2696079,5.85214364 L28.2696079,1.0765029 C28.2696079,0.483970031 27.790388,6.0433554e-05 27.1955224,6.0433554e-05 C26.6006568,6.0433554e-05 26.1214368,0.484000248 26.1214368,1.0765029 L26.1214368,5.85214364 L5.05732154,5.85214364 C2.53609651,5.85214364 0.482322612,7.90591754 0.482322612,10.427145 C0.482322612,12.1598958 1.4455126,13.725004 2.99406199,14.5111237 L3.36468647,14.6999786 L3.36468647,40.1884343 C3.36468647,41.7441149 4.63240113,43.0141864 6.19043859,43.0141864 L26.1214247,43.0141864 L26.1214247,48.1226952 L12.2005555,58.4979271 C11.7260554,58.8520315 11.6269082,59.527171 11.9810125,60.0016951 C12.3256711,60.4643865 13.0221014,60.5658967 13.4871376,60.2236011 L26.1237937,50.8068455 L26.1237937,59.3618188 C26.1237937,59.9543517 26.6053766,60.4359044 27.1978793,60.4359044 C27.7927751,60.4359044 28.2719648,59.9519646 28.2719648,59.3618188 L28.2719648,50.8068455 L40.908621,60.2236011 C41.3736753,60.5659028 42.0700935,60.4643925 42.414746,60.0016951 C42.5870783,59.7727065 42.6578944,59.4894242 42.6154035,59.206148 C42.5729127,58.9228717 42.4265487,58.6702716 42.19284,58.4979271 L28.2719709,48.1226952 L28.2719709,43.0141864 L48.2053743,43.0141864 C49.7634118,43.0141864 51.0311265,41.7441149 51.0311265,40.1884343 L51.0264066,14.6999786 L51.3946766,14.5111237 C52.9456433,13.725004 53.9088333,12.1598958 53.9088333,10.427145 C53.9088333,7.90356063 51.8574163,5.85214364 49.333832,5.85214364 L49.3337232,5.85214364 Z M48.8757517,40.8613015 L5.51226533,40.8613015 L5.51226533,15.0048054 L48.8757517,15.0048054 L48.8757517,40.8613015 Z M49.3337232,12.8539752 L5.05647547,12.8539752 C3.72035002,12.8539752 2.62970809,11.7656878 2.62970809,10.4295623 C2.62970809,9.09107997 3.71799311,8.00279253 5.05647547,8.00279253 L49.3361405,8.00279253 C50.6746229,8.00279253 51.7629103,9.09107997 51.7629103,10.4295623 C51.7605534,11.7656878 50.672266,12.8539752 49.3337836,12.8539752 L49.3337232,12.8539752 Z"/>
    <path d="M16.4633088,34.4374564 L21.4797773,29.420988 L25.969809,33.9110198 C26.3852897,34.3288634 27.0604534,34.3312203 27.4688633,33.9511537 L39.4377287,21.979871 C39.867375,21.5502246 39.867375,20.8703713 39.4495314,20.4501768 C39.0434904,20.0464988 38.3352575,20.0464988 37.9292649,20.4525337 L26.7369707,31.644828 L22.2375113,27.1406547 C22.0344908,26.9399972 21.7606543,26.8266843 21.4750211,26.8266843 C21.189388,26.8266843 20.9178963,26.9376343 20.7148879,27.1406547 L14.9406431,32.9196133 C14.5227995,33.3398139 14.5204426,34.0220422 14.9406431,34.4398798 C15.3466841,34.8411949 16.054917,34.8411949 16.4632665,34.4375229 L16.4633088,34.4374564 Z"/>
  </g>
</svg>
