<svg xmlns="http://www.w3.org/2000/svg" width="38" height="50" viewBox="0 0 38 50">
  <g fill="#FFF" fill-rule="evenodd" transform="translate(0 .447)">
    <path d="M37.0305805,8.00661199 C37.0305805,3.60190785 33.4286726,0 29.0239685,0 L8.34022082,0 C3.93551668,0 0.333608833,3.60190785 0.333608833,8.00661199 L0.333608833,41.3674953 C0.333608833,45.7721994 3.93551668,49.3741073 8.34022082,49.3741073 L29.0239685,49.3741073 C33.4286726,49.3741073 37.0305805,45.7721994 37.0305805,41.3674953 L37.0305805,8.00661199 Z M34.3617098,41.3674953 C34.3617098,44.3021855 31.9586587,46.7052366 29.0239685,46.7052366 L8.34022082,46.7052366 C5.40553064,46.7052366 3.0024795,44.3021855 3.0024795,41.3674953 L3.0024795,8.00661199 C3.0024795,5.07192181 5.40553064,2.66887066 8.34022082,2.66887066 L29.0239685,2.66887066 C31.9586587,2.66887066 34.3617098,5.07192181 34.3617098,8.00661199 L34.3617098,41.3674953 Z"/>
    <path d="M18.3484858 20.1493063C11.4107565 20.1493063 5.73940636 25.8206565 5.73940636 32.6936656 5.73940636 39.5666748 11.4107565 45.238025 18.3484858 45.238025 25.2862151 45.238025 30.9575653 39.631862 30.9575653 32.6936656 30.9575653 25.7554693 25.2862151 20.1493063 18.3484858 20.1493063zM18.3484858 42.5691543C12.8778347 42.5691543 8.40827703 38.0993297 8.40827703 32.6936656 8.40827703 27.2230145 12.8781016 22.818177 18.3484858 22.818177 23.81887 22.818177 28.2886946 27.2228811 28.2886946 32.6936656 28.2886946 38.1644502 23.81887 42.5691543 18.3484858 42.5691543zM18.3484858 18.3484858C22.2840025 18.3484858 25.4223275 15.2130966 25.4223275 11.3427003 25.4223275 7.47230408 22.2191489 4.33691483 18.3484858 4.33691483 14.4778227 4.33691483 11.2746441 7.47230408 11.2746441 11.3427003 11.2746441 15.2130966 14.4126355 18.3484858 18.3484858 18.3484858zM18.3484858 7.00578549C20.751537 7.00578549 22.75319 8.93964918 22.75319 11.3427003 22.75319 13.7457515 20.751537 15.6796152 18.3484858 15.6796152 15.9454347 15.6796152 13.9437817 13.7457515 13.9437817 11.3427003 13.9437817 8.93964918 15.9454347 7.00578549 18.3484858 7.00578549z"/>
    <path d="M18.3484858,27.5567568 C15.3460063,27.5567568 12.8778347,30.0249284 12.8778347,33.0274079 C12.8778347,36.0298874 15.3460063,38.498059 18.3484858,38.498059 C21.3509653,38.498059 23.8191369,36.0298874 23.8191369,33.0274079 C23.8191369,30.0249284 21.3509653,27.5567568 18.3484858,27.5567568 Z M18.3484858,35.8969776 C16.8133514,35.8969776 15.5467054,34.6303316 15.5467054,33.0951972 C15.5467054,31.5600628 16.8133514,30.2934168 18.3484858,30.2934168 C19.8836202,30.2934168 21.1502662,31.5600628 21.1502662,33.0951972 C21.1502662,34.6277295 19.8836202,35.8969776 18.3484858,35.8969776 Z"/>
  </g>
</svg>
