<svg xmlns="http://www.w3.org/2000/svg" width="25" height="39" viewBox="0 0 25 39">
  <path fill="#CFCFCF" fill-rule="evenodd" d="M1023.12167,805.897765 C1021.31348,805.897765 1019.81822,807.39303 1019.81822,809.201213 L1019.81822,840.583973 C1019.81822,842.392157 1021.31348,843.887421 1023.12167,843.887421 L1040.46477,843.887421 C1042.27295,843.887421 1043.76822,842.392157 1043.76822,840.583973 L1043.76822,809.201213 C1043.76822,807.39303 1042.27295,805.897765 1040.46477,805.897765 L1023.12167,805.897765 Z M1023.12167,808.375351 L1040.46477,808.375351 C1040.94385,808.375351 1041.26966,808.722147 1041.29063,809.201213 L1041.29063,810.027075 L1022.2958,810.027075 L1022.2958,809.201213 C1022.2958,808.722131 1022.6426,808.375351 1023.12167,808.375351 Z M1022.2958,812.504662 L1041.29063,812.504662 L1041.29063,834.802938 L1022.2958,834.802938 L1022.2958,812.504662 Z M1022.2958,837.280525 L1041.29063,837.280525 L1041.29063,840.583973 C1041.29063,841.063056 1040.94384,841.409835 1040.46477,841.409835 L1023.12167,841.409835 C1022.64258,841.409835 1022.28614,841.063039 1022.2958,840.583973 L1022.2958,837.280525 Z M1028.9027,838.106387 C1028.21881,838.106387 1027.66391,838.661283 1027.66391,839.34518 C1027.66391,840.029076 1028.21881,840.583973 1028.9027,840.583973 L1034.68374,840.583973 C1035.36763,840.583973 1035.92253,840.029076 1035.92253,839.34518 C1035.92253,838.661283 1035.36763,838.106387 1034.68374,838.106387 L1028.9027,838.106387 Z" transform="translate(-1019 -805)"/>
</svg>
