<svg xmlns="http://www.w3.org/2000/svg" width="31" height="31" viewBox="0 0 31 31">
  <g fill="#2190FF" fill-rule="evenodd">
    <path d="M11.1207695,30.9996642 C10.887665,30.9996642 10.6560795,30.9600138 10.4229595,30.8441075 C9.9188995,30.5711219 9.6479595,30.0236125 9.6873295,29.4379909 L9.841725,24.2072181 L2.7125,24.2056955 C1.20187,24.2056955 0,22.9947861 0,21.4727944 L0,2.73290111 C0,1.21090944 1.20187,0 2.7125,0 L28.2875,0 C29.79813,0 31,1.21090944 31,2.73290111 L31,21.4727944 C31,22.9947861 29.79813,24.2056955 28.2875,24.2056955 L18.6771125,24.2056955 L12.3228875,30.4921489 C11.9732308,30.804785 11.5478875,31 11.1210175,31 L11.1207695,30.9996642 Z M2.712407,2.26438425 C2.4793025,2.26438425 2.324907,2.41994098 2.324907,2.6547987 L2.324907,21.394692 C2.324907,21.6295497 2.4793025,21.7851064 2.712407,21.7851064 L12.206157,21.7851064 L12.0517615,27.4062897 L17.7100365,21.7851064 L28.287624,21.7851064 C28.5207285,21.7851064 28.675124,21.6295497 28.675124,21.394692 L28.675124,2.6547987 C28.675124,2.41994098 28.5207285,2.26438425 28.287624,2.26438425 L2.712407,2.26438425 Z"/>
    <path d="M8.58038942 15.9415557C6.48127439 16.3543688 4.64567294 14.5172456 5.05848091 12.4196034 5.28390644 11.2573111 6.22075868 10.2838876 7.41961058 10.0584443 9.51872561 9.64563119 11.3543271 11.4827544 10.9415191 13.5803966 10.6780355 14.7412274 9.74120572 15.6780763 8.58038942 15.9415557zM15.5803894 15.9415557C13.4812744 16.3543688 11.6456729 14.5172456 12.0584809 12.4196034 12.2839064 11.2573111 13.2207587 10.2838876 14.4196106 10.0584443 16.5187256 9.64563119 18.3543271 11.4827544 17.9415191 13.5803966 17.6780355 14.7412274 16.7412057 15.6780763 15.5803894 15.9415557zM22.5803894 15.9415557C20.4812744 16.3543688 18.6456729 14.5172456 19.0584809 12.4196034 19.2839064 11.2573111 20.2207587 10.2838876 21.4196106 10.0584443 23.5187256 9.64563119 25.3543271 11.4827544 24.9415191 13.5803966 24.6780355 14.7412274 23.7412057 15.6780763 22.5803894 15.9415557z"/>
  </g>
</svg>
