<svg xmlns="http://www.w3.org/2000/svg" width="32" height="37" viewBox="0 0 32 37">
  <path fill="#2190FF" fill-rule="evenodd" d="M91.0021491,1767.00011 C90.7596482,1767.00011 90.5185789,1767.0637 90.3017355,1767.18944 L75.7004136,1775.72942 C75.2681879,1775.98233 75,1776.45203 75,1776.95788 L75,1777.03158 L75,1794.04087 C75,1794.54816 75.2681802,1795.01497 75.7004136,1795.26933 L90.2703301,1803.79044 C90.4343759,1803.89161 90.6198175,1803.95953 90.8180988,1803.98699 C90.8209509,1803.98699 90.8238029,1803.98844 90.8252308,1803.98844 C90.8494823,1803.99133 90.8737302,1803.99422 90.8994059,1803.99566 C90.9051137,1803.99566 90.9108178,1803.99711 90.9165255,1803.99711 C90.9450533,1803.99855 90.9721569,1804 91.0006884,1804 C91.0292198,1804 91.0563197,1803.99855 91.0848512,1803.99711 C91.0919831,1803.99711 91.0991151,1803.99566 91.106247,1803.99566 C91.1290707,1803.99422 91.1504666,1803.99133 91.1732903,1803.98844 C91.1789944,1803.98844 91.1847021,1803.98699 91.188982,1803.98555 C91.3729994,1803.96098 91.5456013,1803.89883 91.6996485,1803.80923 C91.7082083,1803.80489 91.7167644,1803.79911 91.7238964,1803.79478 L91.7267521,1803.79333 L106.299586,1795.26926 C106.734661,1795.01635 107,1794.54665 107,1794.0408 L107,1777.03003 L107,1776.95921 L107,1776.95777 C107,1776.45049 106.734675,1775.98368 106.299586,1775.72931 L91.7022814,1767.18934 C91.4854563,1767.0636 91.2443833,1767 91.0018679,1767 L91.0021491,1767.00011 Z M91.0021491,1770.05681 L102.833222,1776.97663 L91.0021491,1783.89792 L79.1681545,1776.97663 L91.0021491,1770.05829 L91.0021491,1770.05681 Z M90.8908827,1774.73637 L90.8923105,1774.73782 C89.6897757,1774.73782 88.7140901,1775.38385 88.7140901,1776.18161 C88.7140901,1776.56462 88.9437549,1776.93168 89.3517293,1777.20339 C89.7597075,1777.47366 90.3145971,1777.6254 90.892347,1777.6254 C91.4700969,1777.6254 92.0235624,1777.47364 92.431504,1777.20339 C92.8409063,1776.93168 93.0691432,1776.56458 93.0691432,1776.18161 C93.0691432,1775.38385 92.0948453,1774.73782 90.892347,1774.73782 L90.8908827,1774.73637 Z M77.7999415,1779.45219 L89.60107,1786.35462 L89.60107,1800.12062 L77.7999415,1793.22116 L77.7999415,1779.45367 L77.7999415,1779.45219 Z M104.199836,1779.45219 L104.199836,1793.21968 L92.4012635,1800.11914 L92.4012635,1786.35314 L104.199836,1779.45071 L104.199836,1779.45219 Z M101.953144,1782.51466 L101.954572,1782.51611 C101.318357,1782.48287 100.570872,1782.95835 100.071635,1783.71567 C99.4026273,1784.7288 99.3911972,1785.90812 100.044532,1786.35181 C100.359784,1786.56426 100.787744,1786.57438 101.237061,1786.38071 C101.686414,1786.18705 102.11864,1785.8055 102.439596,1785.31845 C103.10718,1784.30532 103.120034,1783.126 102.465271,1782.68231 C102.318345,1782.58404 102.14574,1782.52767 101.954605,1782.51611 L101.953144,1782.51466 Z M80.8012392,1783.53645 L80.802667,1783.53789 C80.654313,1783.52922 80.5102389,1783.54801 80.3761378,1783.59715 C79.6329253,1783.86163 79.3233994,1784.91522 79.6828818,1785.95003 C80.043781,1786.9834 80.938185,1787.6063 81.6799733,1787.34036 C82.0365927,1787.21317 82.3104916,1786.89379 82.4402763,1786.45154 C82.5700865,1786.01074 82.5458349,1785.48466 82.3718052,1784.98752 C82.086509,1784.16659 81.4503122,1783.57839 80.802667,1783.53792 L80.8012392,1783.53645 Z M85.4258676,1785.87775 L85.4272954,1785.87919 C85.2789414,1785.87052 85.1348673,1785.88931 85.0007662,1785.937 C84.6441469,1786.06563 84.3702479,1786.38502 84.2404633,1786.82582 C84.110653,1787.26806 84.1349046,1787.79414 84.3089343,1788.29129 C84.4815399,1788.78847 84.7896561,1789.2148 85.1633805,1789.47494 C85.538529,1789.73653 85.9493555,1789.81168 86.3059894,1789.6845 C86.6626087,1789.55732 86.9350835,1789.23793 87.0648681,1788.79569 C87.1946784,1788.35489 87.1704268,1787.82737 86.9978249,1787.33022 C86.7111009,1786.5093 86.0749077,1785.9211 85.4272625,1785.87918 L85.4258676,1785.87775 Z M98.8688414,1787.99069 L98.8702692,1787.99214 C98.2326299,1787.95745 97.4851448,1788.43293 96.9858719,1789.18881 C96.6649123,1789.67586 96.4823264,1790.22795 96.4780538,1790.72221 C96.4723461,1791.21647 96.6478037,1791.61395 96.961624,1791.82784 C97.6178144,1792.27152 98.690528,1791.80904 99.358112,1790.79591 C100.02712,1789.78279 100.037126,1788.60202 99.3823599,1788.15833 C99.2354337,1788.05861 99.0614003,1788.00224 98.8702692,1787.99213 L98.8688414,1787.99069 Z M80.9053152,1789.79148 L80.9067394,1789.79292 C80.7598132,1789.7828 80.6157355,1789.80304 80.4802102,1789.85073 C79.7384584,1790.11666 79.428896,1791.17024 79.7883784,1792.20505 C80.1492776,1793.23986 81.0436816,1793.86277 81.7854699,1793.59827 C82.5286825,1793.33234 82.8382083,1792.27875 82.4773018,1791.24395 C82.1920056,1790.42302 81.5543846,1789.83482 80.9067394,1789.7929 L80.9053152,1789.79148 Z M85.4244068,1792.21661 L85.425831,1792.21806 C85.277477,1792.20794 85.1348271,1792.22673 84.9993018,1792.27587 C84.25755,1792.54035 83.9494119,1793.59394 84.3088942,1794.62875 C84.6697934,1795.66356 85.5627732,1796.2879 86.304525,1796.02196 C87.0462769,1795.75748 87.3558392,1794.70389 86.9963569,1793.66908 C86.7096328,1792.84672 86.0734397,1792.25852 85.4257945,1792.21804 L85.4244068,1792.21661 Z M95.916003,1793.55492 L95.9174272,1793.55492 C95.2812121,1793.52168 94.533727,1793.99716 94.0344906,1794.75448 C93.7121068,1795.24153 93.5295209,1795.79362 93.5252483,1796.28788 C93.5195442,1796.78214 93.693574,1797.17962 94.0073943,1797.39206 C94.6621605,1797.83575 95.7334499,1797.37183 96.4024581,1796.3587 C97.0714662,1795.34413 97.0828963,1794.16336 96.4295617,1793.72112 C96.2826355,1793.62139 96.1086021,1793.56503 95.917471,1793.55491 L95.916003,1793.55492 Z" transform="translate(-75 -1767)"/>
</svg>
