<svg xmlns="http://www.w3.org/2000/svg" width="31" height="31" viewBox="0 0 31 31">
  <g fill="#1DCC4B" fill-rule="evenodd">
    <path d="M29.4996012,13.9996002 C28.6713122,13.9996002 27.9992631,14.6716802 27.9992631,15.4999382 C28.0004752,22.3924783 22.3926029,28.0003787 15.5000626,28.0003787 C8.60752235,28.0003787 2.99962305,22.3924783 2.99962305,15.4999382 C2.99962305,8.60739811 8.60752235,2.99949804 15.5000626,2.99949804 C16.3283517,2.99949804 17.0004007,2.32741803 17.0004007,1.50036902 C17.0004007,0.672080009 16.3283207,3.1e-05 15.5000626,3.1e-05 C6.95336228,3.1e-05 6.3266753e-05,6.95333109 6.3266753e-05,15.5000312 C6.3266753e-05,24.0467313 6.95336228,31.000031 15.5000626,31.000031 C24.046763,31.000031 31.0000633,24.0467313 31.0000633,15.5000312 C31.0000633,14.6717422 30.3279832,13.9996932 29.4997252,13.9996932 L29.4996012,13.9996002 Z"/>
    <path d="M16.29918,10.54837 C15.87293,11.170788 15.636803,11.859825 15.475758,12.502827 C13.830092,12.5173598 12.500471,13.853032 12.500471,15.499907 C12.500471,17.156485 13.8446,18.499405 15.499969,18.499405 C17.156547,18.499405 18.499467,17.155276 18.499467,15.499907 C18.499467,15.101495 18.4171248,14.722489 18.2766545,14.37253 C18.8082425,13.976567 19.3531915,13.492192 19.7661115,12.858862 C20.2105275,12.140778 20.4296975,11.202284 20.8317365,10.387325 C21.2168185,9.561454 21.6176485,8.744077 21.9470235,7.949702 C22.2933555,7.16503 22.5924435,6.416659 22.8528125,5.777284 C23.3650255,4.493698 23.6653535,3.61212 23.6653535,3.61212 C23.6883617,3.5443075 23.6762531,3.4655954 23.6253914,3.4086825 C23.5491035,3.3227071 23.4183207,3.3142286 23.3335543,3.3893075 C23.3335543,3.3893075 22.6360543,4.0068895 21.6467203,4.9744305 C21.1563003,5.4600145 20.5823043,6.0255165 19.9901423,6.6467255 C19.3822633,7.2558135 18.7828473,7.9412235 18.1676833,8.6145125 C17.5731033,9.2974735 16.7908493,9.8593485 16.2992203,10.5483855 L16.29918,10.54837 Z"/>
  </g>
</svg>
