<?xml version="1.0" encoding="utf-8"?>
<!-- Generator: Adobe Illustrator 19.0.0, SVG Export Plug-In . SVG Version: 6.00 Build 0)  -->
<svg version="1.1" id="Шар_1" xmlns="http://www.w3.org/2000/svg" xmlns:xlink="http://www.w3.org/1999/xlink" x="0px" y="0px"
	 viewBox="-289 379 32 36" style="enable-background:new -289 379 32 36;" xml:space="preserve">
<style type="text/css">
	.st0{fill:#CFCFCF;}
</style>
<g>
	<path class="st0" d="M-288.9,384h1.7c1.1,0,2.2-0.2,3.3-0.4c1-0.3,2-0.7,2.9-1.2c1-0.5,1.9-1,2.9-1.5c1.4-0.7,2.9-1.1,4.4-1.2
		c2.1-0.1,4.2,0.3,6,1.2c0.9,0.4,1.8,0.9,2.6,1.4c1.1,0.6,2.2,1,3.4,1.4c0.9,0.2,1.8,0.3,2.7,0.3c0.6,0,1.2,0,1.8,0h0.1v0.1
		c0,1.2,0,2.4-0.1,3.6c-0.1,1.1-0.2,2.2-0.3,3.3v0c-0.2,1.8-0.6,3.6-1,5.3c-0.7,2.8-1.9,5.5-3.4,8c-1.9,3.2-4.5,6-7.5,8.1
		c-1.1,0.8-2.3,1.4-3.5,1.9c-0.1,0-0.2,0-0.2,0c-1.6-0.7-3.2-1.6-4.6-2.7c-1.8-1.4-3.5-3.1-4.9-5c-1.6-2.2-2.9-4.6-3.9-7.1
		c-0.8-2-1.4-4.1-1.7-6.2c-0.3-1.6-0.5-3.1-0.6-4.7c-0.1-1.5-0.1-3-0.1-4.5C-288.9,384.1-288.9,384.1-288.9,384L-288.9,384z
		 M-260,386.9l-0.7-0.1c-1.6-0.2-3.2-0.7-4.7-1.4c-1-0.5-1.9-1-2.9-1.5c-1.3-0.7-2.7-1.1-4.1-1.2c-1-0.1-2.1,0.1-3.1,0.3
		c-0.9,0.3-1.7,0.7-2.5,1.1c-0.9,0.5-1.9,1-2.9,1.5c-1.4,0.7-2.9,1.1-4.4,1.3l-0.7,0.1v0.2c0,0.7,0.1,1.4,0.1,2.2
		c0.1,1.5,0.3,3,0.7,4.5c0.4,2.1,1.1,4.1,1.9,6c1.1,2.5,2.5,4.8,4.3,6.8c1.7,1.9,3.6,3.5,5.8,4.7c0.1,0.1,0.2,0.1,0.3,0
		c1.8-0.9,3.4-2.1,4.8-3.6c1.7-1.7,3.2-3.7,4.4-5.8c1.8-3.4,2.9-7.1,3.4-10.9c0.1-0.9,0.2-1.7,0.3-2.6
		C-260,387.9-260,387.4-260,386.9L-260,386.9L-260,386.9z"/>
	<path class="st0" d="M-280.9,389.6h0.9c0.5,0,1.1-0.1,1.6-0.2c0.5-0.1,1-0.4,1.5-0.6c0.5-0.2,0.9-0.5,1.4-0.7
		c0.7-0.3,1.4-0.5,2.2-0.6c1-0.1,2.1,0.1,3,0.6c0.4,0.2,0.9,0.5,1.3,0.7c0.5,0.3,1.1,0.5,1.7,0.7c0.4,0.1,0.9,0.2,1.3,0.2
		c0.3,0,0.6,0,0.9,0h0.1v0.1c0,0.6,0,1.2,0,1.8c0,0.5-0.1,1.1-0.1,1.7c-0.1,0.9-0.3,1.8-0.5,2.6c-0.4,1.4-0.9,2.7-1.7,4
		c-0.9,1.6-2.2,2.9-3.7,4c-0.5,0.4-1.1,0.7-1.7,1c0,0-0.1,0-0.1,0c-0.8-0.3-1.6-0.8-2.3-1.4c-0.9-0.7-1.7-1.5-2.4-2.5
		c-0.8-1.1-1.5-2.3-1.9-3.5c-0.4-1-0.7-2-0.9-3.1c-0.1-0.8-0.2-1.6-0.3-2.3C-280.8,391.2-280.8,390.4-280.9,389.6
		C-280.9,389.7-280.9,389.7-280.9,389.6L-280.9,389.6z M-266.6,391l-0.4,0c-0.8-0.1-1.6-0.3-2.3-0.7c-0.5-0.2-1-0.5-1.4-0.7
		c-0.6-0.4-1.3-0.6-2-0.6c-0.5,0-1,0-1.5,0.2c-0.4,0.1-0.9,0.3-1.2,0.5c-0.5,0.2-0.9,0.5-1.4,0.7c-0.7,0.3-1.4,0.5-2.2,0.6l-0.4,0
		v0.1c0,0.4,0,0.7,0.1,1.1v0c0.1,0.8,0.2,1.5,0.3,2.2c0.2,1,0.5,2,0.9,3c0.5,1.2,1.3,2.4,2.1,3.4c0.8,0.9,1.8,1.7,2.9,2.3
		c0,0,0.1,0,0.1,0c0.9-0.5,1.7-1.1,2.4-1.8c0.9-0.8,1.6-1.8,2.2-2.9c0.9-1.7,1.5-3.5,1.7-5.4c0.1-0.4,0.1-0.8,0.1-1.3
		C-266.6,391.6-266.6,391.3-266.6,391C-266.6,391-266.6,391-266.6,391z"/>
</g>
</svg>
