<svg xmlns="http://www.w3.org/2000/svg" width="29" height="41" viewBox="0 0 29 41">
  <path fill="#1DCC4B" fill-rule="evenodd" d="M731.328115,1661 C726.589841,1661 722.718839,1664.89184 722.718839,1669.65562 C722.718839,1672.55626 724.150788,1675.12962 726.343797,1676.70267 L726.343797,1672.80194 C725.77563,1671.89082 725.437558,1670.8142 725.437558,1669.65576 C725.437558,1666.36899 728.058946,1663.73349 731.328115,1663.73349 C734.597284,1663.73349 737.218673,1666.36899 737.218673,1669.65576 C737.218673,1670.81425 736.880605,1671.89082 736.312433,1672.80194 L736.312433,1676.70267 C738.505443,1675.12958 739.937392,1672.55635 739.937392,1669.65562 C739.937392,1664.89184 736.066389,1661 731.328115,1661 Z M731.328115,1666.46671 C729.092603,1666.46671 727.250037,1668.31919 727.250037,1670.56674 L727.250037,1681.64229 C726.577426,1680.73651 725.84464,1680.04428 724.984438,1679.80584 C723.805601,1679.48019 722.750693,1679.90372 722.039159,1680.31835 C721.178956,1681.00524 720.428454,1681.53911 720.127537,1682.63888 C719.844337,1683.67632 720.053198,1684.7939 720.552337,1686.08404 C722.941819,1691.8373 725.833901,1697.41607 729.40222,1701.53023 C729.655328,1701.82207 730.035863,1701.99822 730.42174,1702 L742.655975,1702 C742.944486,1702 743.231211,1701.90213 743.463072,1701.72951 C744.882606,1700.67248 745.942861,1698.9588 746.833151,1696.94614 C747.723441,1694.93348 748.396052,1692.60052 748.744773,1690.32641 C749.093494,1688.05231 749.12001,1685.80285 748.603173,1683.94858 C748.077463,1682.06407 746.691551,1680.37709 744.624237,1680.13328 C744.273776,1680.1226 743.896753,1680.18133 743.59058,1680.21869 C743.323312,1679.70441 742.965773,1679.28976 742.57106,1679.00864 C741.795818,1678.45523 741.029411,1678.30038 740.362101,1678.31109 C739.884196,1678.31998 739.448793,1678.48192 739.031062,1678.7097 C738.862914,1678.50861 738.728391,1678.25236 738.535439,1678.11178 C737.761964,1677.54766 736.967237,1677.39997 736.312343,1677.39997 C736.002595,1677.39997 735.70344,1677.44802 735.406103,1677.51386 L735.406103,1670.56658 C735.406103,1668.31904 733.563537,1666.46655 731.328025,1666.46655 L731.328115,1666.46671 Z M731.328115,1669.20006 C732.105125,1669.20006 732.687475,1669.78555 732.687475,1670.56674 L732.687475,1680.13348 C732.685703,1680.75099 733.151198,1681.33643 733.749497,1681.47169 C734.347796,1681.60694 735.018595,1681.27594 735.278776,1680.71719 C735.772586,1680.07298 736.287693,1680.08724 736.935473,1680.31858 C737.098315,1680.4378 737.218673,1680.50543 737.218673,1681.04465 C737.216901,1681.65683 737.675327,1682.24227 738.266513,1682.38285 C738.857698,1682.52344 739.524962,1682.2049 739.795792,1681.65678 C740.149792,1680.91827 740.379909,1681.00902 740.999369,1681.24393 C741.185221,1681.3774 741.296729,1681.44146 741.296729,1681.95574 C741.300268,1682.48068 741.63834,1682.9843 742.118009,1683.19432 C742.597677,1683.40433 743.192401,1683.30821 743.576511,1682.9523 C743.590671,1682.98255 744.181833,1682.79036 744.39779,1682.86688 C745.240321,1682.99501 745.652706,1683.47906 745.997847,1684.70333 C746.355386,1685.97216 746.378395,1687.89225 746.068647,1689.91402 C745.758899,1691.93579 745.121717,1694.07099 744.341128,1695.83629 C743.631361,1697.43785 742.778227,1698.63547 742.075529,1699.26719 L731.101419,1699.26719 C728.566758,1695.8167 722.720515,1686.53477 722.746796,1683.37957 C723.114956,1682.77276 723.686657,1682.3777 724.261938,1682.43998 C724.982308,1682.80656 725.161109,1683.18204 725.592978,1683.96328 L727.39132,1687.57928 C727.662131,1688.12736 728.329414,1688.44589 728.920599,1688.30535 C729.511784,1688.16481 729.970206,1687.57928 729.968439,1686.96714 L729.968439,1670.56701 C729.968439,1669.78582 730.550788,1669.20034 731.327798,1669.20034 L731.328115,1669.20006 Z" transform="translate(-720 -1661)"/>
</svg>
