<svg width="17px" height="20px" viewBox="0 0 17 20" version="1.1" xmlns="http://www.w3.org/2000/svg" xmlns:xlink="http://www.w3.org/1999/xlink">
    <!-- Generator: Sketch 48.2 (47327) - http://www.bohemiancoding.com/sketch -->
    <desc>Created with Sketch.</desc>
    <defs></defs>
    <g id="Welcome" stroke="none" stroke-width="1" fill="none" fill-rule="evenodd">
        <g id="Shrunken_table-Copy" transform="translate(-592.000000, -1994.000000)" fill="#7ED321">
            <path d="M603.672488,1996.29324 C602.367488,1995.80941 601.368104,1995.18895 600.666008,1994.66559 C600.468196,1994.51863 600.185072,1994.51863 599.987264,1994.66559 C599.285072,1995.18895 598.285712,1995.80941 596.980784,1996.29324 C595.297976,1996.91542 593.776304,1997.06152 592.730144,1997.07355 C592.47608,1997.07699 592.263272,1997.24887 592.226696,1997.48005 C591.90044,1999.5013 591.28076,2005.74985 595.785416,2010.70403 C597.112904,2012.16496 598.584776,2013.18167 599.880296,2013.88721 C600.155912,2014.0376 600.497168,2014.0376 600.772808,2013.88721 C602.068424,2013.18167 603.539288,2012.16503 604.867688,2010.70403 C609.373208,2005.74963 608.752808,1999.50119 608.427368,1997.48005 C608.389868,1997.24887 608.177048,1997.07701 607.922984,1997.07355 C606.876872,1997.06152 605.355368,1996.91543 603.672488,1996.29324 Z" id="Page-1-Copy-11"></path>
        </g>
    </g>
</svg>
