<svg xmlns="http://www.w3.org/2000/svg" width="40" height="40" viewBox="0 0 40 40">
  <g fill="#5B2FFF" fill-rule="evenodd">
    <path d="M38.994807,0.0930271324 L8.59193364,0.0930271324 C8.31100291,0.0930271324 8.12492996,0.279100077 8.12492996,0.560030809 L8.12492996,8.2179571 L0.514171982,8.21978308 C0.23324125,8.21978308 0.0471683053,8.40585602 0.0471683053,8.68678676 L0.0471683053,39.0896573 C0.0471683053,39.370588 0.23324125,39.556661 0.514171982,39.556661 L30.9170444,39.556661 C31.1979751,39.556661 31.3840481,39.370588 31.3840481,39.0896573 L31.3822221,31.4298611 L39.0401484,31.4298611 C39.3210791,31.4298611 39.507152,31.2437882 39.507152,30.9628575 L39.508978,0.559988778 C39.4615491,0.32648694 39.2280473,0.092985102 38.9945268,0.092985102 L38.994807,0.0930271324 Z M30.4028733,38.6208304 L0.981641728,38.6208304 L0.981641728,9.15383246 L8.17256434,9.15383246 L8.17256434,30.9624372 C8.17256434,31.2433679 8.35863728,31.4294408 8.63956801,31.4294408 L30.4481727,31.4294408 L30.4481727,38.6203634 L30.4028733,38.6208304 Z M30.4028733,30.4959005 L9.05940432,30.4959005 L9.05940432,9.15429947 L30.4010053,9.15429947 L30.4028733,30.4959005 Z M38.5278033,30.4959005 L31.3368807,30.4959005 L31.3368807,8.68729579 C31.3368807,8.40636506 31.1508078,8.22029211 30.869877,8.22029211 L9.05940432,8.22029211 L9.05940432,1.02750149 L38.5282703,1.02750149 L38.5278033,30.4959005 Z"/>
    <path d="M12.7949667,19.8000219 L18.539579,19.8000219 L18.539579,25.5899335 C18.539579,25.8708642 18.7256519,26.0569371 19.0065826,26.0569371 C19.2875134,26.0569371 19.4735863,25.8708642 19.4735863,25.5899335 L19.4735863,19.8000219 L25.2181985,19.8000219 C25.4991293,19.8000219 25.6852022,19.6139489 25.6852022,19.3330182 C25.6852022,19.0520875 25.4991293,18.8660145 25.2181985,18.8660145 L19.4735863,18.8660145 L19.4735863,13.1232703 C19.4735863,12.8423396 19.2875134,12.6562666 19.0065826,12.6562666 C18.7256519,12.6562666 18.539579,12.8423396 18.539579,13.1232703 L18.539579,18.9131819 L12.7949667,18.9131819 C12.514036,18.9131819 12.3279631,19.0992548 12.3279631,19.3801856 C12.3279631,19.6611163 12.5158573,19.7997604 12.7949667,19.7997604 L12.7949667,19.8000219 Z"/>
  </g>
</svg>
