<svg xmlns="http://www.w3.org/2000/svg" width="33" height="33" viewBox="0 0 33 33">
  <g fill="#CFCFCF" fill-rule="evenodd" transform="translate(0 1)">
    <path stroke="#CFCFCF" d="M28.5962849,15.5852056 C28.597497,22.4777457 22.9896247,28.0856461 16.0970844,28.0856461 C9.20454414,28.0856461 3.59664484,22.4777457 3.59664484,15.5852056 C3.59664484,8.69266556 9.20454414,3.08476549 16.0970844,3.08476549 C16.9253735,3.08476549 17.5974225,2.41268548 17.5974225,1.58563647 C17.5974225,0.757347458 16.9253425,0.0852984492 16.0970844,0.0852984492 C7.55038408,0.0852984492 0.597085059,7.03859854 0.597085059,15.5852986 C0.597085059,24.1319988 7.55038408,31.0852984 16.0970844,31.0852984 C24.6437848,31.0852984 31.5970851,24.1319988 31.5970851,15.5852986 C31.5970851,14.7570096 30.925005,14.0849606 30.096747,14.0849606 C29.268334,14.0848676 28.5962849,14.7569476 28.5962849,15.5852056 Z"/>
    <path d="M16.8962018,10.6336374 C16.4699518,11.2560554 16.2338248,11.9450924 16.0727798,12.5880944 C14.4271138,12.6026272 13.0974928,13.9382994 13.0974928,15.5851744 C13.0974928,17.2417524 14.4416218,18.5846724 16.0969908,18.5846724 C17.7535688,18.5846724 19.0964888,17.2405434 19.0964888,15.5851744 C19.0964888,15.1867624 19.0141466,14.8077564 18.8736763,14.4577974 C19.4052643,14.0618344 19.9502133,13.5774594 20.3631333,12.9441294 C20.8075493,12.2260454 21.0267193,11.2875514 21.4287583,10.4725924 C21.8138403,9.64672145 22.2146703,8.82934445 22.5440453,8.03496945 C22.8903773,7.25029745 23.1894653,6.50192645 23.4498343,5.86255145 C23.9620473,4.57896545 24.2623753,3.69738745 24.2623753,3.69738745 C24.2853835,3.62957495 24.2732749,3.55086285 24.2224132,3.49394995 C24.1461253,3.40797455 24.0153425,3.39949605 23.9305761,3.47457495 C23.9305761,3.47457495 23.2330761,4.09215695 22.2437421,5.05969795 C21.7533221,5.54528195 21.1793261,6.11078395 20.5871641,6.73199295 C19.9792851,7.34108095 19.3798691,8.02649095 18.7647051,8.69977995 C18.1701251,9.38274095 17.3878711,9.94461595 16.8962421,10.6336529 L16.8962018,10.6336374 Z"/>
  </g>
</svg>
