<svg xmlns="http://www.w3.org/2000/svg" width="33" height="33" viewBox="0 0 33 33">
  <path fill="#CFCFCF" fill-rule="evenodd" d="M538.681928,632.298808 L538.681888,632.298768 C539.162886,632.298768 539.642349,632.498671 540.001544,632.896907 C540.360724,633.257686 540.560623,633.737125 540.560623,634.216564 C540.560623,634.696003 540.36074,635.177025 540.001544,635.53622 L537.64337,637.894395 C536.403353,639.132733 535.724014,640.813168 535.724014,642.571645 C535.724014,644.37066 536.403353,646.008877 537.64337,647.248894 C538.881707,648.488911 540.521603,649.168249 542.320619,649.168249 C544.119635,649.168249 545.757851,648.488911 546.997868,647.248894 L549.356043,644.890719 C549.716822,644.53154 550.196261,644.33164 550.6757,644.33164 C551.155139,644.33164 551.636161,644.531524 551.995356,644.890719 C552.354536,645.251498 552.554435,645.730937 552.554435,646.210376 C552.554435,646.689815 552.354552,647.170837 551.995356,647.530033 L549.637182,649.888207 C547.678966,651.848182 545.080192,652.92732 542.361238,652.92732 C539.642205,652.92732 537.043671,651.846583 535.085295,649.888207 C533.12532,647.929992 532.046183,645.331218 532.046183,642.612264 C532.046183,639.89483 533.12532,637.296256 535.124316,635.336321 L537.362271,632.857887 C537.72305,632.498707 538.202489,632.298808 538.681928,632.298808 Z M556.554545,637.734875 L558.953339,635.456341 C560.193356,634.218003 560.872695,632.537568 560.872695,630.779091 C560.872695,628.980076 560.193356,627.341859 558.953339,626.101842 C557.715002,624.861825 556.075106,624.182487 554.27609,624.182487 C552.477074,624.182487 550.838858,624.861825 549.598841,626.101842 L547.240666,628.460017 C546.879887,628.819196 546.400448,629.019096 545.921009,629.019096 C545.44157,629.019096 544.960548,628.819212 544.601353,628.460017 C543.842374,627.740059 543.842374,626.579682 544.601353,625.820703 L546.959527,623.462529 C548.917743,621.502554 551.516517,620.423416 554.235471,620.423416 C556.993285,620.423416 559.552998,621.504313 561.511414,623.462529 C563.46983,625.420744 564.550526,628.019558 564.550526,630.740071 C564.550526,633.459104 563.46979,636.057638 561.511414,638.016014 L559.153239,640.374189 C558.433281,641.094147 557.274503,641.094147 556.554545,640.374189 C556.195366,640.01341 555.995466,639.533971 555.995466,639.054532 C555.995466,638.575093 556.19535,638.094071 556.554545,637.734875 Z M552.275096,630.779171 L552.274856,630.779211 C552.31546,630.779211 552.31546,630.779211 552.274856,630.779211 C552.794915,630.818232 553.235317,631.018135 553.594513,631.33985 C553.953692,631.700628 554.153592,632.180067 554.153592,632.659506 C554.153592,633.138945 553.953708,633.619968 553.594513,633.979163 L545.639311,641.934365 C544.919353,642.654323 543.760575,642.654323 543.040617,641.934365 C542.281638,641.214407 542.281638,640.05403 543.040617,639.295051 L550.955439,631.33825 C551.316218,630.979071 551.795657,630.779171 552.275096,630.779171 Z" transform="translate(-532 -620)"/>
</svg>
