<?xml version="1.0" encoding="utf-8"?>
<!-- Generator: Adobe Illustrator 19.0.0, SVG Export Plug-In . SVG Version: 6.00 Build 0)  -->
<svg version="1.1" id="Шар_1" xmlns="http://www.w3.org/2000/svg" xmlns:xlink="http://www.w3.org/1999/xlink" x="0px" y="0px"
	 viewBox="-295.6 389 14.6 14" style="enable-background:new -295.6 389 14.6 14;" xml:space="preserve">
<style type="text/css">
	.st0{opacity:0.3;}
</style>
<g transform="translate(.873 .01)" class="st0">
	<polygon points="-292,389 -292,392.5 -290.1,392.5 -290.1,390.9 -283.8,390.9 -283.8,401.1 -290.1,401.1 -290.1,399.5 -292,399.5 
		-292,403 -281.9,403 -281.9,389 	"/>
	<path d="M-285.1,396.5C-285.1,396.5-285,396.5-285.1,396.5c0-0.1,0.1-0.1,0.1-0.2v0c0,0,0-0.1,0-0.1c0,0,0,0,0-0.1
		c0-0.1,0-0.3,0-0.4c0,0,0-0.1,0-0.1c0-0.1,0-0.1-0.1-0.2c0,0,0,0,0-0.1v0c0-0.1-0.1-0.1-0.1-0.1l-2.4-2.4l0,0c-0.4-0.4-1-0.3-1.3,0
		c-0.4,0.4-0.4,1,0,1.3l0.8,0.8l-7.3,0c-0.5,0-1,0.4-1,1s0.4,1,1,1h7.3l-0.8,0.8c-0.2,0.2-0.3,0.4-0.3,0.7c0,0.3,0.1,0.5,0.3,0.7
		s0.4,0.3,0.7,0.3c0.3,0,0.5-0.1,0.7-0.3l2.4-2.4l0,0C-285.1,396.6-285.1,396.6-285.1,396.5L-285.1,396.5z"/>
</g>
</svg>
