<svg xmlns="http://www.w3.org/2000/svg" width="55" height="55" viewBox="0 0 55 55">
  <g fill="#FFF" fill-rule="evenodd" transform="translate(0 .03)">
    <path d="M27.3493684,33.6688957 C23.9900758,33.6688957 21.2553213,30.9410697 21.2553213,27.5888273 C21.2553213,24.2365848 23.9902582,21.5087588 27.3493684,21.5087588 C30.7084786,21.5087588 33.4434154,24.2365848 33.4434154,27.5888273 C33.4434154,30.9410697 30.7084786,33.6688957 27.3493684,33.6688957 Z M27.3493684,23.882684 C25.300536,23.882684 23.6339263,25.5469234 23.6339263,27.5910152 C23.6339263,29.635107 25.300536,31.2969762 27.3493684,31.2969762 C29.3982007,31.2969762 31.0648104,29.635107 31.0648104,27.5910152 C31.0648104,25.5445532 29.3982007,23.882684 27.3493684,23.882684 Z"/>
    <polygon points="26.16 32.482 28.539 32.482 28.539 53.69 26.16 53.69"/>
    <path d="M32.7335473,39.8085251 L31.7744354,37.6362559 C35.7676255,35.8818243 38.348008,31.9408411 38.348008,27.5917445 C38.348008,21.540241 33.4146682,16.6185702 27.3486998,16.6185702 C21.2827315,16.6185702 16.3493916,21.5424289 16.3493916,27.5917445 C16.3493916,31.9410234 18.9300173,35.8846808 22.9229643,37.6362559 L21.9638523,39.8085251 C17.1088532,37.6742411 13.9705436,32.8812339 13.9705436,27.5912583 C13.9705436,20.2318472 19.9722105,14.2441588 27.348639,14.2441588 C34.7250676,14.2441588 40.7267345,20.2316041 40.7267345,27.5912583 C40.7267345,32.8783167 37.5881818,37.6740588 32.7334258,39.8085251 L32.7335473,39.8085251 Z"/>
    <path d="M32.5554726,47.3891622 L31.9524555,45.0934562 C39.9171993,43.0137495 45.4824919,35.815335 45.4824919,27.5916838 C45.4824919,17.6158497 37.3463587,9.49855718 27.3492529,9.49855718 C17.349716,9.49855718 9.2160139,17.615242 9.2160139,27.5916838 C9.2160139,35.815335 14.77845,43.0136887 22.7460503,45.0934562 L22.1430332,47.3891622 C13.1311124,45.0340777 6.83711114,36.8930824 6.83711114,27.589435 C6.83711114,16.3056934 16.0392619,7.12481434 27.3491374,7.12481434 C38.6590129,7.12481434 47.8611637,16.3050857 47.8611637,27.589435 C47.8611637,36.8936902 41.5677701,45.0340777 32.5552416,47.3891622 L32.5554726,47.3891622 Z"/>
    <path d="M32.4776788,54.3948549 L32.0337256,52.0635339 C43.7903074,49.8389971 52.3227026,39.5448164 52.3227026,27.5888881 C52.3203263,13.852212 41.1191858,2.67543677 27.3496905,2.67543677 C13.5801952,2.67543677 2.3791094,13.8528197 2.3791094,27.5888881 C2.3791094,39.5448164 10.9115046,49.8385109 22.6680864,52.0635339 L22.2217568,54.3948549 C9.34688974,51.9566891 0.000698928303,40.6843126 0.000698928303,27.589435 C0.000698928303,12.5448514 12.2702333,0.303881871 27.3500673,0.303881871 C42.4299012,0.303881871 54.6994357,12.5448514 54.6994357,27.589435 C54.6994357,40.6849204 45.3526371,51.9571157 32.4783777,54.3948549 L32.4776788,54.3948549 Z"/>
  </g>
</svg>
