<svg xmlns="http://www.w3.org/2000/svg" width="55" height="54" viewBox="0 0 55 54">
  <path fill="#FFF" fill-rule="evenodd" d="M130.093088,643.6043 C131.679724,632.655703 125.33894,622.866837 115.976979,619.119172 C116.123257,613.931781 112.089317,610.190454 107.33517,610.190454 C102.727356,610.190454 98.5470249,613.937542 98.6933595,619.119172 C89.3313988,622.86626 82.9969521,632.515129 84.577251,643.6043 C80.1100114,645.911087 78.8160444,651.379624 81.1228315,655.559956 C83.5701921,659.734526 89.0444907,661.174828 93.0784876,658.586894 C101.433389,665.214586 113.0958,665.068251 121.45099,658.586894 C125.771895,661.180589 131.099859,659.593982 133.406646,655.559956 C135.854007,651.672294 134.846948,646.197995 130.0928,643.6043 L130.093088,643.6043 Z M107.334881,613.071345 C110.502393,613.071345 113.096088,615.66504 113.096088,618.832552 C113.096088,622.000063 110.502393,624.593758 107.334881,624.593758 C104.16737,624.593758 101.573675,622.000063 101.573675,618.832552 C101.573675,615.66504 104.16737,613.071345 107.334881,613.071345 Z M83.5699041,654.119942 C81.9832677,651.385674 82.9960303,647.784919 85.7303565,646.198283 C86.5967844,645.624409 87.6039009,645.478132 88.6109599,645.478132 C94.5185012,645.478132 96.532619,653.253457 91.4915632,656.280395 C88.7572945,657.867031 85.1565404,656.854269 83.5699041,654.119942 Z M95.3792254,656.713638 C100.273947,650.519188 95.2329484,641.59047 87.4575663,642.743864 C86.4504786,633.381903 91.6321366,625.460244 99.4132223,622.0064 C100.707247,625.173912 103.734127,627.480699 107.481216,627.480699 C111.228305,627.480699 114.249482,625.173912 115.54921,622.0064 C123.470869,625.46082 128.658259,633.675148 127.504866,642.743864 C119.729541,641.590499 114.542151,650.519188 119.436872,656.713638 C112.229747,661.895411 102.581022,661.895411 95.3795135,656.713638 L95.3792254,656.713638 Z M131.100147,654.119942 C129.513511,656.854211 125.912756,657.867031 123.178488,656.280395 C116.550796,652.533306 122.31206,642.451194 128.939694,646.344618 C131.673963,647.784919 132.686783,651.385674 131.100147,654.119942 Z" transform="translate(-80 -610)"/>
</svg>
