<svg xmlns="http://www.w3.org/2000/svg" width="30" height="30" viewBox="0 0 30 30">
  <path fill="#2190FF" fill-rule="evenodd" d="M105.411776,1580 L76.5882722,1580 C76.2636709,1580 76,1579.73633 76,1579.41173 L76,1550.58827 C76,1550.26367 76.2636739,1550 76.5882722,1550 L77.7648465,1550 C77.920706,1550 78.0706975,1550.06211 78.1808579,1550.17227 C78.2910153,1550.28242 78.3531246,1550.43242 78.3531246,1550.58828 L78.3531246,1577.64683 L105.411722,1577.64683 C105.567581,1577.64683 105.717573,1577.70894 105.827733,1577.8191 C105.937891,1577.92925 106,1578.07925 106,1578.23511 L106,1579.41168 C106,1579.56754 105.937891,1579.71753 105.827733,1579.82769 C105.717576,1579.93785 105.567575,1579.99996 105.411722,1579.99996 L105.411776,1580 Z M85.9996063,1554.11805 L82.4697936,1554.11805 L82.4709666,1554.11805 C82.1451955,1554.11805 81.8826945,1554.38055 81.8826945,1554.70632 L81.8826945,1574.70676 L81.8826945,1574.70559 C81.8826945,1574.86145 81.9436307,1575.01144 82.0549611,1575.1216 C82.1651185,1575.23175 82.3139461,1575.29386 82.4709726,1575.29386 L86.0007853,1575.29386 L85.9996123,1575.29386 C86.1554718,1575.29386 86.3054634,1575.23175 86.4156238,1575.1216 C86.5257812,1575.01144 86.5878904,1574.86144 86.5878904,1574.70559 L86.5878904,1554.70515 L86.5878904,1554.70632 C86.5878904,1554.55046 86.5257812,1554.40047 86.4156238,1554.29031 C86.3054664,1554.18015 86.1554658,1554.11804 85.9996123,1554.11804 L85.9996063,1554.11805 Z M94.2343358,1564.70597 L90.7045232,1564.70597 L90.7056962,1564.70597 C90.381095,1564.70597 90.117424,1564.96964 90.117424,1565.29424 L90.117424,1574.70556 C90.117424,1574.86142 90.1795333,1575.01141 90.2896907,1575.12157 C90.3998481,1575.23173 90.5498486,1575.29384 90.7057022,1575.29384 L94.2355148,1575.29384 C94.3913744,1575.29384 94.5413659,1575.23173 94.6515263,1575.12157 C94.7616837,1575.01141 94.8237929,1574.86141 94.8237929,1574.70556 L94.8237929,1565.29424 C94.8237929,1565.13838 94.7616837,1564.98839 94.6515263,1564.87823 C94.5413689,1564.76807 94.3913684,1564.70596 94.2355148,1564.70596 L94.2343358,1564.70597 Z M102.469065,1558.82326 L98.9392527,1558.82326 L98.9404257,1558.82326 C98.6158245,1558.82326 98.3533236,1559.08693 98.3533236,1559.41153 L98.3533236,1574.70556 C98.3533236,1574.86142 98.4142598,1575.01141 98.5255902,1575.12157 C98.6357476,1575.23173 98.7845751,1575.29384 98.9404317,1575.29384 L102.470244,1575.29384 C102.626104,1575.29384 102.776095,1575.23173 102.886256,1575.12157 C102.996413,1575.01141 103.058522,1574.86141 103.058522,1574.70556 L103.058522,1559.41153 C103.058522,1559.25567 102.996413,1559.10685 102.886256,1558.99552 C102.776098,1558.88536 102.626098,1558.82325 102.470244,1558.82325 L102.469065,1558.82326 Z" transform="translate(-76 -1550)"/>
</svg>
