<svg xmlns="http://www.w3.org/2000/svg" width="16" height="16" viewBox="0 0 16 16">
  <path fill-rule="evenodd" d="M5.90566264,17.419874 C5.78922661,17.419874 5.67354933,17.4002164 5.55710557,17.3427533 C5.30532689,17.2074145 5.16999199,16.9359743 5.18965736,16.6456391 L5.26677812,14.0523653 L1.70572028,14.0516104 C0.95115849,14.0516104 0.350822747,13.4512746 0.350822747,12.6967128 L0.350822747,3.40598688 C0.350822747,2.65142509 0.95115849,2.05108935 1.70572028,2.05108935 L14.4804685,2.05108935 C15.2350303,2.05108935 15.835366,2.65142509 15.835366,3.40598688 L15.835366,12.6967128 C15.835366,13.4512746 15.2350303,14.0516104 14.4804685,14.0516104 L9.68006651,14.0516104 L6.50612226,17.1682618 C6.33146822,17.3232582 6.11900867,17.4200405 5.90578651,17.4200405 L5.90566264,17.419874 Z M1.70567383,3.17370905 C1.58923781,3.17370905 1.51211704,3.25082982 1.51211704,3.36726585 L1.51211704,12.6579918 C1.51211704,12.7744278 1.58923781,12.8515486 1.70567383,12.8515486 L6.44781521,12.8515486 L6.37069444,15.6383773 L9.1970107,12.8515486 L14.4805304,12.8515486 C14.5969664,12.8515486 14.6740872,12.7744278 14.6740872,12.6579918 L14.6740872,3.36726585 C14.6740872,3.25082982 14.5969664,3.17370905 14.4805304,3.17370905 L1.70567383,3.17370905 Z" opacity=".7" transform="matrix(-1 0 0 1 16.186 -2)"/>
</svg>
