<svg xmlns="http://www.w3.org/2000/svg" width="33" height="33" viewBox="0 0 33 33">
  <g fill="#CFCFCF" fill-rule="evenodd" transform="translate(.537 .375)">
    <path d="M12.3941609 3.3021302C11.7585629 1.39533622 10.0106684.124140233 7.94497492.124140233 5.87928144.124140233 4.13138696 1.39533622 3.49578896 3.3021302L0 3.3021302 0 6.48012017 3.49578896 6.48012017C4.13138696 8.38691415 5.87928144 9.65811013 7.94497492 9.65811013 10.0106684 9.65811013 11.7585629 8.38691415 12.3941609 6.48012017L31.7798997 6.48012017 31.7798997 3.3021302 12.3941609 3.3021302zM7.94497492 6.48012017C6.99157793 6.48012017 6.35597993 5.84452217 6.35597993 4.89112518 6.35597993 3.93772819 6.99157793 3.3021302 7.94497492 3.3021302 8.89837191 3.3021302 9.5339699 3.93772819 9.5339699 4.89112518 9.5339699 5.84452217 8.89837191 6.48012017 7.94497492 6.48012017zM23.8349247 11.2471051C21.7692313 11.2471051 20.0213368 12.5183011 19.3857388 14.4250951L0 14.4250951 0 17.603085 19.3857388 17.603085C20.0213368 19.509879 21.7692313 20.781075 23.8349247 20.781075 25.9006182 20.781075 27.6485127 19.509879 28.2841107 17.603085L31.7798997 17.603085 31.7798997 14.4250951 28.2841107 14.4250951C27.6485127 12.5183011 25.9006182 11.2471051 23.8349247 11.2471051zM23.8349247 17.603085C22.8815278 17.603085 22.2459298 16.9674871 22.2459298 16.0140901 22.2459298 15.0606931 22.8815278 14.4250951 23.8349247 14.4250951 24.7883217 14.4250951 25.4239197 15.0606931 25.4239197 16.0140901 25.4239197 16.9674871 24.7883217 17.603085 23.8349247 17.603085zM7.94497492 22.37007C5.87928144 22.37007 4.13138696 23.641266 3.49578896 25.54806L0 25.54806 0 28.7260499 3.49578896 28.7260499C4.13138696 30.6328439 5.87928144 31.9040399 7.94497492 31.9040399 10.0106684 31.9040399 11.7585629 30.6328439 12.3941609 28.7260499L31.7798997 28.7260499 31.7798997 25.54806 12.3941609 25.54806C11.7585629 23.641266 10.0106684 22.37007 7.94497492 22.37007zM7.94497492 28.7260499C6.99157793 28.7260499 6.35597993 28.0904519 6.35597993 27.1370549 6.35597993 26.183658 6.99157793 25.54806 7.94497492 25.54806 8.89837191 25.54806 9.5339699 26.183658 9.5339699 27.1370549 9.5339699 28.0904519 8.89837191 28.7260499 7.94497492 28.7260499z"/>
  </g>
</svg>
