<svg xmlns="http://www.w3.org/2000/svg" xmlns:xlink="http://www.w3.org/1999/xlink" width="16" height="22" viewBox="0 0 16 22">
  <defs>
    <polygon id="social-a" points="7.57 21.784 0 21.784 0 0 7.57 0 15.141 0 15.141 21.784"/>
  </defs>
  <g fill="none" fill-rule="evenodd" opacity=".7">
    <mask id="social-b" fill="#fff">
      <use xlink:href="#social-a"/>
    </mask>
    <path fill="#000" d="M13.550665,1.69051529 C13.4259853,1.53091902 13.2541837,1.45119814 13.0354147,1.45119814 C12.7568552,1.45119814 12.4728881,1.68309939 12.1844407,2.14690188 C11.8955297,2.61070438 11.5771097,3.35646542 11.2285626,4.38372151 L9.73565003,8.70765235 L11.6169701,9.03688723 C12.2836283,7.2215377 12.803977,5.72290872 13.1772438,4.5406913 C13.550665,3.35862839 13.7372984,2.63310656 13.7372984,2.36381684 C13.7372984,2.0745969 13.6750358,1.85011155 13.550665,1.69051529 Z M7.31652297,12.6277259 C7.47550124,12.9470729 7.61763924,13.2661109 7.74201,13.5853034 C7.86653525,13.9046504 7.96850382,14.218899 8.0480702,14.5277402 C8.28723285,14.2287869 8.53860082,13.9570252 8.80232862,13.7124551 C9.06574743,13.4680396 9.34214405,13.2511246 9.6309005,13.0617103 C9.2029415,13.0416256 8.7970757,12.9969757 8.41392107,12.9269882 C8.03076645,12.8574641 7.66507008,12.7573495 7.31652297,12.6277259 Z M7.37615913,9.38095391 C7.01787866,9.38095391 6.76403872,9.44105356 6.61494831,9.56063489 C6.46539441,9.68021621 6.39077195,9.88477134 6.39077195,10.1739913 C6.39077195,10.8523913 6.76898265,11.3435399 7.52571303,11.6477461 C8.28182542,11.9521068 9.50637525,12.1041327 11.1987445,12.1041327 L11.8110194,12.1041327 C11.950531,12.1041327 12.0623874,12.1565075 12.1470522,12.2611025 C12.2312535,12.365852 12.2888812,12.5229763 12.3188538,12.7324754 C12.1493697,12.8919172 11.8011316,13.0745336 11.2735215,13.2787797 C10.7457569,13.4828714 10.3425175,13.6849545 10.0641124,13.8847202 C9.4666693,14.3238031 8.98649004,14.8446153 8.62311114,15.4480838 C8.25942324,16.0518613 8.07804278,16.6225763 8.07804278,17.1611558 C8.07804278,17.4903906 8.1549827,17.8869866 8.30963503,18.3504801 C8.46366937,18.8145916 8.54091829,19.1011851 8.54091829,19.211033 L8.54091829,19.3157825 L8.51094571,19.4503502 C8.07278986,19.4205321 7.72717821,19.1637567 7.47333827,18.680024 C7.21949833,18.1961367 7.09250111,17.5501813 7.09250111,16.7423121 L7.09250111,16.6077445 C7.01262573,16.6775776 6.93568581,16.7273259 6.86121785,16.7572984 C6.7864409,16.787271 6.70440255,16.8022573 6.61494831,16.8022573 C6.52518507,16.8022573 6.44052025,16.7945324 6.36095387,16.7797006 C6.28107849,16.7647143 6.19162425,16.7423121 6.09228214,16.7123396 C6.12194572,16.8221875 6.14450241,16.929409 6.1593342,17.0341585 C6.17416599,17.1385991 6.18173638,17.2211009 6.18173638,17.2807371 C6.18173638,17.6498324 6.03743541,17.9670165 5.74867896,18.2308988 C5.45976801,18.4953991 5.11631933,18.6274947 4.71833291,18.6274947 C4.09122621,18.6274947 3.45423165,18.3208165 2.80704022,17.7073056 C2.1598488,17.0936402 1.83648484,16.4932616 1.83648484,15.9044704 C1.83648484,15.7946224 1.84899916,15.6974433 1.87387331,15.612624 C1.89859297,15.5279592 1.94107987,15.4556542 2.00071603,15.395709 C2.14022758,15.5656566 2.33427686,15.8147072 2.58332736,16.143633 C3.24025215,17.0514623 3.84711963,17.5052224 4.40485681,17.5052224 C4.59365316,17.5052224 4.76329178,17.4457408 4.91253669,17.325696 C5.06178159,17.2061146 5.13655855,17.0814349 5.13655855,16.9515022 C5.13655855,16.8022573 5.03706194,16.5530523 4.83791424,16.2037327 C4.63845753,15.8545676 4.36499637,15.4609071 4.01675825,15.0216698 C3.61846284,14.5129084 3.28737399,14.1414956 3.02364619,13.9069679 C2.75976389,13.6729037 2.54825635,13.5554853 2.38912359,13.5554853 C2.04057648,13.5554853 1.71922098,13.7425822 1.4259841,14.116467 C1.13243821,14.4905062 0.985510776,14.9319065 0.985510776,15.4406679 C0.985510776,15.8496237 1.08763384,16.3061648 1.29157098,16.8095187 C1.49550812,17.3131816 1.79183496,17.819471 2.17993352,18.3282324 C2.76733428,19.1161713 3.49625506,19.7221118 4.36762283,20.1460539 C5.23868161,20.5701504 6.20151211,20.781658 7.2567323,20.781658 C9.19799757,20.781658 10.8231603,20.0561362 12.1320659,18.604938 C13.4409716,17.1537399 14.0954244,15.3359184 14.0954244,13.151319 C14.0954244,12.4832704 14.0456761,11.9521068 13.9461795,11.5581374 C13.8468374,11.1638589 13.6826062,10.8772654 13.4534859,10.6974299 C13.0453026,10.3587707 12.2514927,10.05441 11.0720563,9.78496574 C9.89231083,9.51567602 8.66034512,9.38095391 7.37615913,9.38095391 Z M6.33113579,3.86012835 C5.91291016,2.672967 5.58939169,1.89785138 5.3607349,1.53339099 C5.13130562,1.1693941 4.88271861,0.987395649 4.61389238,0.987395649 C4.40485681,0.987395649 4.23552719,1.06742553 4.1062125,1.22671279 C3.97689781,1.38646355 3.91231772,1.60059755 3.91231772,1.87004177 C3.91231772,2.32874583 4.08612778,3.12688164 4.43467489,4.26398569 C4.78291301,5.40108974 5.30573367,6.89230282 6.0025189,8.73762493 C6.06230956,8.62793147 6.14681987,8.55052806 6.25651334,8.50556919 C6.3657433,8.46091931 6.51529721,8.43836263 6.70440255,8.43836263 C6.76403872,8.43836263 6.88362004,8.44346106 7.06283752,8.45334892 C7.24190051,8.46323678 7.5352919,8.48841993 7.94362967,8.52812587 L6.33113579,3.86012835 Z M4.83791424,10.5256283 C4.54900329,10.2711704 4.27554212,10.1440187 4.01675825,10.1440187 C3.80756819,10.1440187 3.57597594,10.2764233 3.3222905,10.5406146 C3.06860505,10.8048059 2.94145334,11.051848 2.94145334,11.2811228 C2.94145334,11.5205944 3.06597859,11.8798019 3.3148746,12.3582816 C3.56346161,12.8370704 3.89717693,13.3458318 4.31524807,13.8847202 C4.75340392,14.473357 5.16653113,14.9319065 5.55462968,15.2609869 C5.94288273,15.5902218 6.25126041,15.754762 6.4803807,15.754762 C6.64971032,15.754762 6.80389916,15.6776676 6.9431017,15.5230152 C7.08261325,15.3683629 7.15229177,15.2011963 7.15229177,15.0216698 C7.15229177,14.8322554 7.01540669,14.3908551 6.74179103,13.6976234 C6.46786637,13.0043916 6.12704415,12.3235196 5.71886088,11.655162 C5.42021657,11.156443 5.12651619,10.7799318 4.83791424,10.5256283 Z M12.6919661,9.29134516 C13.5880535,9.46098378 14.2199496,9.83981247 14.5882725,10.4284492 C14.9565953,11.0169315 15.1407567,11.9445364 15.1407567,13.2112642 C15.1407567,15.7247894 14.3866528,17.7820826 12.8785994,19.3829891 C11.3707006,20.9837411 9.44179515,21.7841944 7.09250111,21.7841944 C6.16675009,21.7841944 5.26849969,21.6171823 4.39728642,21.282849 C3.52607314,20.9488246 2.77722214,20.4827047 2.15026994,19.8840256 C1.43339999,19.2258648 0.895747535,18.5300066 0.537621558,17.7970688 C0.179186586,17.0639766 -3.08995665e-05,16.3134262 -3.08995665e-05,15.5452629 C-3.08995665e-05,14.687491 0.183976019,14.0245408 0.552298853,13.5554853 C0.920467188,13.0865844 1.50292402,12.7675464 2.29966934,12.5979078 C2.15026994,12.2485882 2.04057648,11.9545788 1.97089795,11.7149527 C1.90137393,11.4756355 1.86645742,11.2911651 1.86645742,11.1615414 C1.86645742,10.7127252 2.1028391,10.2540212 2.57544797,9.78496574 C3.04821134,9.31606482 3.49393759,9.0818461 3.91231772,9.0818461 C4.09122621,9.0818461 4.28017706,9.11413615 4.47963376,9.17902524 C4.67862697,9.24422332 4.90743826,9.35098133 5.16653113,9.50068973 C4.39975838,7.32628723 3.8426392,5.64797727 3.49393759,4.46606885 C3.14554498,3.28385144 2.97127142,2.46856637 2.97127142,2.01959567 C2.97127142,1.40114085 3.13055869,0.910301231 3.44913322,0.545840843 C3.76786225,0.181843949 4.20091967,0 4.74830549,0 C5.68394437,0 6.86863375,2.09468162 8.30206464,6.28373585 C8.55080615,7.00199628 8.740066,7.55556201 8.86938068,7.94458756 C8.97891965,7.63574639 9.13310848,7.19666355 9.33225619,6.62795702 C10.7656871,2.47845423 11.9999703,0.403702837 13.0354147,0.403702837 C13.5430946,0.403702837 13.9486514,0.575813423 14.2525487,0.920034594 C14.5559824,1.26425577 14.7076993,1.72589529 14.7076993,2.30387168 C14.7076993,2.74295452 14.5409961,3.54587976 14.2075898,4.71280189 C13.8738745,5.87987852 13.3689756,7.40600811 12.6919661,9.29134516 Z" mask="url(#social-b)"/>
  </g>
</svg>
