<svg xmlns="http://www.w3.org/2000/svg" width="41" height="40" viewBox="0 0 41 40">
  <path fill="#4D1FFF" fill-rule="evenodd" d="M103.650711,2856.00586 C103.536624,2856.01788 103.428546,2856.06995 103.346483,2856.15005 L95.660703,2863.84042 C95.5626274,2863.93855 95.5085861,2864.07273 95.512593,2864.21292 C95.5145964,2864.3511 95.5746377,2864.48328 95.6767151,2864.57741 L107.029124,2875.72844 L95.1643298,2887.42394 C95.0622524,2887.51807 95.002206,2887.65025 95.0002076,2887.78843 C94.9962044,2887.92863 95.0502472,2888.06281 95.1483177,2888.16094 L102.834097,2895.8513 C103.034245,2896.04957 103.354476,2896.04957 103.554614,2895.8513 L113.449799,2886.11017 C113.547874,2886.01404 113.603914,2885.88387 113.603914,2885.74768 C113.605917,2885.6115 113.553874,2885.47932 113.457802,2885.38119 C113.36173,2885.28306 113.23163,2885.22698 113.09553,2885.22698 C112.95943,2885.22498 112.827327,2885.27705 112.729257,2885.37318 L103.218361,2894.76158 L96.2529948,2887.79206 L104.035103,2880.13348 L106.420871,2882.52067 C106.518947,2882.61881 106.651045,2882.67288 106.789148,2882.67288 C106.927251,2882.67288 107.059349,2882.61881 107.157425,2882.52067 C107.255501,2882.42254 107.309542,2882.29036 107.309542,2882.15218 C107.309542,2882.01399 107.255501,2881.88182 107.157425,2881.78368 L104.771657,2879.39649 L107.765934,2876.44852 L124.882677,2893.28734 C124.944722,2893.34942 125.022784,2893.39348 125.106846,2893.41551 L135.354552,2895.97896 C135.534686,2896.02703 135.724832,2895.97496 135.854927,2895.84278 C135.985027,2895.7086 136.03106,2895.51634 135.979022,2895.3381 L132.90471,2885.08428 C132.882693,2885.00017 132.838658,2884.92206 132.776614,2884.85998 L123.825755,2875.90378 L135.322656,2864.57639 C135.424733,2864.48227 135.48478,2864.35008 135.486778,2864.2119 C135.49078,2864.07171 135.436739,2863.93753 135.338668,2863.8394 L127.652889,2856.14903 C127.538801,2856.03688 127.37868,2855.98281 127.220563,2856.00484 C127.112481,2856.02086 127.010404,2856.07093 126.932347,2856.14903 L115.419561,2867.49232 L104.083036,2856.14903 C103.968949,2856.03688 103.808828,2855.98281 103.650711,2856.00484 L103.650711,2856.00586 Z M127.2686,2857.2395 L134.233965,2864.20902 L123.105469,2875.18368 L116.140103,2868.21416 L119.278463,2865.13801 L121.792328,2867.65338 C121.890404,2867.74951 122.022502,2867.80157 122.158601,2867.79958 C122.294701,2867.79958 122.424801,2867.7435 122.520873,2867.64537 C122.616945,2867.54724 122.668983,2867.41506 122.666985,2867.27888 C122.666985,2867.1427 122.61094,2867.01252 122.51287,2866.91639 L120.014991,2864.40102 L122.897159,2861.56523 L125.379051,2864.0646 C125.477126,2864.16273 125.609224,2864.2168 125.747328,2864.2168 C125.885431,2864.2168 126.017529,2864.16273 126.115605,2864.0646 C126.21368,2863.96646 126.267722,2863.83429 126.267722,2863.6961 C126.267722,2863.55791 126.21368,2863.42574 126.115605,2863.3276 L123.617726,2860.82824 L127.2686,2857.2395 Z M103.71476,2857.25552 L107.333481,2860.8764 L100.416279,2867.81362 L96.7655339,2864.20879 L103.71476,2857.25552 Z M108.070035,2861.61339 L131.671527,2885.22896 L124.962353,2891.94213 L101.152321,2868.51831 L108.070035,2861.61339 Z M103.202374,2885.74165 C102.075536,2885.74165 101.152833,2886.6649 101.152833,2887.79241 C101.152833,2888.91992 102.075536,2889.82718 103.202374,2889.82718 C104.329212,2889.82718 105.235929,2888.91997 105.235929,2887.79241 C105.235929,2886.66485 104.329263,2885.74165 103.202374,2885.74165 Z M132.168028,2886.20628 L133.593074,2890.99676 L133.577062,2891.01278 L130.822991,2893.78449 L125.843221,2892.5348 L132.168028,2886.20628 Z M103.202374,2886.75101 C103.774811,2886.75101 104.227145,2887.21964 104.227145,2887.79239 C104.227145,2888.36514 103.774806,2888.81777 103.202374,2888.81777 C102.629943,2888.81777 102.161617,2888.36516 102.161617,2887.79239 C102.161617,2887.21961 102.629968,2886.75101 103.202374,2886.75101 Z M133.945492,2892.11837 L134.730057,2894.76191 L131.975986,2894.07295 L133.945492,2892.11837 Z" transform="translate(-95 -2856)"/>
</svg>
