<svg xmlns="http://www.w3.org/2000/svg" width="42" height="43" viewBox="0 0 42 43">
  <g fill="#5B2FFF" fill-rule="evenodd">
    <path d="M4.71709251,12.4404389 L4.78108199,12.8932882 C4.97469701,14.0565996 5.36191864,15.0903276 6.13803367,15.994388 C7.36535982,17.5449379 9.23913346,18.4506784 11.3083535,18.4506784 C12.6653052,18.4506784 13.8925893,18.0634484 14.9919281,17.287367 L15.766405,16.6408775 C16.4768671,15.994388 17.059342,15.2199531 17.4465804,14.2502399 C18.8035321,10.889889 17.123344,7.07673088 13.7630058,5.71956918 L13.3101565,5.52595416 L10.9834916,11.3427215 L4.71709251,12.4404389 Z M13.7644171,6.94710535 C16.348653,8.24004234 17.5120064,11.2773375 16.4782785,13.9912408 C16.1550421,14.8313285 15.7021635,15.4121652 15.1213268,15.99464 L11.8249486,11.8581741 L13.7644171,6.94710535 Z M14.3452538,16.6408775 C13.4411934,17.2217141 12.4058273,17.5449379 11.244154,17.5449379 C9.50000589,17.5449379 7.94777583,16.7688228 6.85007521,15.4119132 C6.33321125,14.701451 5.94601482,14.0549615 5.81638929,13.2148738 L11.0505558,12.4387587 L14.3452538,16.6408775 Z"/>
    <path d="M12.6651624,4.36123135 L12.2123131,4.16761634 C11.1129743,3.71476706 10.0152737,3.58677969 8.85196223,3.78038631 C7.10781412,4.03963318 5.55722223,4.94369777 4.52341029,6.36462213 C3.48972436,7.78554649 3.03683307,9.53137477 3.29608414,11.2115082 L3.36007362,11.6643575 L10.144622,10.6946442 L12.6651624,4.36123135 Z M4.20043857,10.630806 C4.13644909,9.33786896 4.52367492,8.04657014 5.29977735,6.94723136 C6.20383774,5.71990521 7.49681674,4.94383218 8.98335195,4.75019197 C9.3065883,4.68620249 9.56418859,4.68620249 9.82343966,4.68620249 C10.3403036,4.68620249 10.8571256,4.75019197 11.3739896,4.94544935 L9.43456306,9.85618208 L4.20043857,10.630806 Z"/>
    <polygon points="27.853 25.882 26.883 25.882 26.883 37.771 22.812 37.771 22.812 31.116 21.842 31.116 21.842 37.771 17.706 37.771 17.706 24.719 16.738 24.719 16.738 37.771 12.665 37.771 12.665 28.724 11.697 28.724 11.697 37.771 7.561 37.771 7.561 32.86 6.591 32.86 6.591 37.771 4.588 37.771 4.588 38.741 29.92 38.741 29.92 37.771 27.853 37.771"/>
    <path d="M34.5733898,26.462763 L34.5733898,0.290250305 L0.129792754,0.290250305 L0.129792754,38.4814774 C0.129792754,40.7424895 2.00356635,42.6179433 4.26625944,42.6179433 L37.6761278,42.6179433 C39.9371398,42.6179433 41.8125936,40.7441697 41.8125936,38.4814774 L41.8109513,26.462763 L34.5733898,26.462763 Z M4.26470528,41.6481885 C2.52055717,41.6481885 1.09795264,40.2272641 1.09795264,38.4814358 L1.09959375,1.26008957 L33.6038488,1.26008957 L33.6038488,38.4831152 C33.6038488,39.7760522 34.1846854,40.8737528 35.090426,41.6498678 L4.26470528,41.6481885 Z M40.9051309,38.483074 C40.9051309,40.2272221 39.4842065,41.6498266 37.7383783,41.6498266 C35.9942301,41.6498266 34.5716256,40.2289023 34.5716256,38.483074 L34.573268,27.4321402 L40.9066893,27.4321402 L40.9051309,38.483074 Z"/>
    <polygon points="37.223 29.436 38.193 29.436 38.193 30.406 37.223 30.406"/>
    <polygon points="37.223 32.343 38.193 32.343 38.193 33.313 37.223 33.313"/>
    <polygon points="37.223 35.251 38.193 35.251 38.193 36.221 37.223 36.221"/>
    <polygon points="37.223 38.16 38.193 38.16 38.193 39.13 37.223 39.13"/>
    <polygon points="19.581 15.735 31.859 15.735 31.859 16.705 19.581 16.705"/>
    <polygon points="21.002 12.181 31.859 12.181 31.859 13.151 21.002 13.151"/>
    <polygon points="23.522 8.627 31.859 8.627 31.859 9.597 23.522 9.597"/>
  </g>
</svg>
