<svg xmlns="http://www.w3.org/2000/svg" width="38" height="45" viewBox="0 0 38 45">
  <g fill="#6C45FF" fill-rule="evenodd">
    <path d="M36.789605,31.37603 C36.1531093,27.2075328 32.7619676,25.7224948 31.4196592,25.3694549 C31.4196592,25.3694549 28.0981015,24.3799193 25.7661239,24.0981997 C24.7053125,23.9573354 23.858373,23.108664 23.6462374,22.0495889 C25.1296282,20.4948778 26.1191638,18.2341315 26.4026196,15.7594243 C28.805962,15.1942489 31.4199708,14.2047133 31.4199708,12.3682826 C31.4199708,10.8135715 29.3000843,9.61190036 26.2619379,8.97714088 L25.7680382,3.39483686 C25.3437137,0.709774887 22.6586161,0.144554918 21.3874054,0.497594801 L19.1961986,0.99149448 C18.8431721,1.06279696 18.4901634,1.06279696 18.1353872,0.99149448 L15.9441804,0.497594801 C13.1182141,-0.138900937 11.5635476,2.33576173 11.5635476,3.39483686 L11.0696479,8.97714088 C8.03154604,9.68317612 5.911615,10.8153078 5.911615,12.3682826 C5.911615,14.2064495 8.5254012,15.1942489 10.9289662,15.7594243 C11.2124309,18.1627667 12.2002214,20.4237356 13.6140281,21.9783577 C13.4018659,23.0391691 12.6244925,23.9573844 11.4941416,24.0269684 C9.30293481,24.3104332 5.84060634,25.2982236 5.84060634,25.2982236 C3.01464006,26.1468549 1.1050638,28.4789215 0.470660484,31.37603 C-0.379751602,36.181023 1.45667906,41.6938762 1.45667906,41.6938762 C1.45667906,41.6938762 8.946645,44.1668025 18.6990935,44.1668025 C28.3803108,44.1668025 36.0131844,41.6938762 36.0131844,41.6938762 C36.0131844,41.6938762 37.7087553,37.3827833 36.7905399,31.37603 L36.789605,31.37603 Z M30.0057189,12.3666354 C30.0057189,12.7909599 29.0161832,13.6378906 26.4719811,14.2743863 C26.4719811,12.8605351 26.1189545,11.4484201 25.5537657,10.2467489 C28.379732,10.8119243 30.0057189,11.7301397 30.0057189,12.3666354 Z M13.0446679,3.53396039 C13.4689924,1.76706923 15.0932786,1.69579346 15.6584541,1.83838952 L17.8496609,2.3322892 C18.4148363,2.47315345 18.9800563,2.47315345 19.5452317,2.3322892 L21.7364385,1.83838952 C22.3729343,1.69752527 23.9276453,1.76708704 24.3502247,3.46437636 L24.7745537,8.62240925 C22.8668028,8.33894449 20.7469163,8.12850957 18.6268517,8.12850957 C16.5069652,8.12850957 14.3870786,8.26937382 12.4791496,8.62240925 L13.0446679,3.53396039 Z M7.39113258,12.3666354 C7.39113258,11.7301397 9.01711942,10.8119243 11.8430857,10.2467489 C11.2779103,11.5180041 10.9944544,12.8605351 10.9248704,14.2743863 C8.3806682,13.6396269 7.39113258,12.7909956 7.39113258,12.3666354 Z M13.6100659,9.96502928 C15.0934567,9.752867 16.7907638,9.61200275 18.6986483,9.61200275 C20.6065328,9.61200275 22.3019701,9.752867 23.7872307,9.96502928 C24.5645863,11.3075603 25.058486,12.8622713 25.058486,14.5576641 C25.058486,19.0096172 22.0203841,23.0372992 18.6988709,23.0372992 C15.3773577,23.0372992 12.3392559,19.0096618 12.3392559,14.5576641 C12.3392559,12.8620933 12.7635804,11.3073822 13.6105111,9.96502928 L13.6100659,9.96502928 Z M2.02118672,31.5881656 C2.5150864,29.256099 4.00021344,27.2075328 7.46280902,26.3589015 L5.83682218,29.3970033 L7.1080774,30.6682585 L5.12905068,32.6472853 L10.3583148,42.0449109 C7.74452862,41.6918844 5.12905068,41.1266955 2.65599071,40.418924 C2.58642895,40.5615246 1.10301591,35.899299 2.02123124,31.5880276 L2.02118672,31.5881656 Z M12.0554439,42.399732 L6.82617973,33.0021059 L9.08692604,30.7413596 L7.53221497,29.1866485 L9.29910613,25.9363666 C9.72343069,25.8650641 10.2173215,25.7242043 10.6416371,25.6529018 L10.6416371,27.2076129 C10.6416371,32.7899169 12.479804,38.2315392 15.79967,42.6834915 C14.5301511,42.612189 13.3284799,42.540891 12.0554884,42.4000267 L12.0554439,42.399732 Z M17.6377479,42.7527585 C14.0344261,38.3721275 12.0554439,32.8591849 12.0554439,27.2056451 L12.0554439,25.438754 C13.3266991,25.1552892 14.3875105,24.2370828 14.8814102,23.0354161 C16.0118056,23.8840474 17.3543366,24.4492673 18.6968675,24.4492673 C20.0393985,24.4492673 21.3819295,23.9553677 22.5123249,23.1067364 C23.0062246,24.3084075 24.067036,25.1553471 25.3382912,25.438803 L25.3382912,27.2056941 C25.3382912,32.8592294 23.3592645,38.3702977 19.7559872,42.752803 L17.6378369,42.752803 L17.6377479,42.7527585 Z M26.7540123,27.2056451 L26.7540123,25.7222544 C27.247912,25.7935568 27.6722276,25.9344166 28.0965433,26.0057191 L29.7921142,29.2560011 L28.2374031,30.8107121 L30.4981494,33.0714584 L25.3418973,42.3996376 C24.1402261,42.5405019 22.8689709,42.6117999 21.5959794,42.6831024 C24.9888574,38.2293667 26.8252436,32.7895252 26.7540123,27.2054448 L26.7540123,27.2056451 Z M34.8111571,40.5615067 C32.2669549,41.267542 29.6531242,41.832762 27.108833,42.1874936 L32.3380971,32.789868 L30.3590704,30.8108412 L31.6303256,29.539586 L30.0043388,26.5014842 C34.3154321,27.4196995 35.2336029,30.5291216 35.4459611,31.7307483 C36.2233166,36.6051918 34.8112016,40.5616407 34.8112016,40.5616407 L34.8111571,40.5615067 Z"/>
    <path d="M14.4586082,26.1463207 L14.4586082,32.5059357 L18.6983812,30.8103649 L22.9381542,32.5059357 L22.9381542,26.1463207 L18.6983812,27.8418916 L14.4586082,26.1463207 Z M15.8724594,30.3860937 L15.8724594,28.2662072 L18.5575214,29.3270186 L15.8724594,30.3860937 Z M21.5242139,28.2662072 L21.5242139,30.3860937 L18.839152,29.3252824 L21.5242139,28.2662072 Z"/>
  </g>
</svg>
