<svg xmlns="http://www.w3.org/2000/svg" width="50" height="51" viewBox="0 0 50 51">
  <g fill="#5B2FFF" fill-rule="evenodd" opacity=".8">
    <path d="M23.6509908,1.2742397 C23.7995079,0.544575607 24.2407503,0.096869768 24.8369567,0.0710268094 C25.0134547,0.0624198369 25.1835003,0.0839427785 25.3492369,0.146362615 C25.5063665,0.206633464 25.6505801,0.286272756 25.7754198,0.396041963 C25.9088719,0.512274664 26.0272536,0.641417824 26.0896734,0.807154393 C26.1477898,0.959974993 26.1843832,1.12140808 26.2338871,1.29790612 C28.1474231,1.4162878 30.0307632,1.74561195 31.8862766,2.31388153 C32.0520132,1.91998856 32.3189175,1.64229522 32.7300024,1.53038254 C33.0119716,1.45289774 33.2939189,1.46365922 33.5672812,1.57773742 C34.2087265,1.84679072 34.4669908,2.41501622 34.2926473,3.19206825 C35.170867,3.56874176 36.0253377,3.99705712 36.8540206,4.47490389 C37.6762565,4.95059066 38.4662024,5.4736323 39.2260075,6.0375488 C39.9406286,5.38106051 40.5928189,5.54894607 41.0254268,5.89118619 C41.4429972,6.22051034 41.73575,6.89206359 41.2126863,7.69920145 C42.6139367,9.01002904 43.8580354,10.4629103 44.9234927,12.0793901 C45.2872557,11.930873 45.6467098,11.8856726 46.0083459,12.0514091 C46.2773992,12.1740998 46.4861872,12.3570559 46.6282463,12.6174746 C46.8886926,13.0974649 46.8822347,13.7475117 46.2257409,14.2963853 C47.1233015,16.0333738 47.7948878,17.8608401 48.2511896,19.7721721 C48.6192562,19.806611 48.9528618,19.9163857 49.2111811,20.1875935 C49.4027496,20.387769 49.5254348,20.6245379 49.5577247,20.9022147 C49.6244481,21.4704292 49.3295683,22.0236558 48.7117949,22.2883671 C48.7290144,22.4777811 48.7440793,22.6714986 48.7634533,22.8673816 C48.7871307,23.1041505 48.8237241,23.3387649 48.8387891,23.5733517 C48.8947509,24.4601674 48.9205829,25.3491322 48.8839894,26.2358928 C48.8624665,26.7653924 48.8021957,27.2927541 48.7612988,27.8200827 C48.7526918,27.9384644 48.7483828,28.0568516 48.7419303,28.1752333 C49.3424347,28.4572025 49.658887,28.9134933 49.5577192,29.5678326 C49.450099,30.2609088 48.9765557,30.6052979 48.2985225,30.6806227 C47.8486621,32.6328957 47.1770813,34.4947458 46.2687757,36.2723997 C46.6928041,36.7631515 46.8154948,37.3012691 46.4624932,37.8673346 C46.1331691,38.3925252 45.6338104,38.5755088 45.01391,38.4399021 C43.9161628,40.1295577 42.6182291,41.6513168 41.146007,43.0181283 C41.4538027,43.7069065 41.3375755,44.283772 40.8252954,44.692741 C40.3302346,45.0866339 39.6802154,45.0543495 39.1959216,44.6410826 C37.6160297,45.8077076 35.9199271,46.784891 34.0903669,47.5489918 C34.1721607,47.9149038 34.1011284,48.246366 33.8944949,48.5455712 C33.7373653,48.7715786 33.5328863,48.9459222 33.2702965,49.0384774 C32.9668043,49.1439487 32.665439,49.1396397 32.3684379,49.0148006 C32.0735526,48.8899609 31.8540087,48.6811729 31.6968516,48.4013471 C29.8199585,48.9566677 27.9193163,49.2817159 25.9585025,49.3677856 C25.9412831,49.4474249 25.9197546,49.5313732 25.9025407,49.6131615 C25.7626305,50.2524579 25.1879195,50.6786187 24.5658701,50.6226348 C23.9438207,50.5645185 23.483221,50.1383356 23.3820532,49.4797038 C23.3755952,49.4431126 23.3734407,49.404368 23.3691372,49.3570131 C21.4513032,49.2343224 19.5808571,48.9028493 17.7426458,48.3367397 C17.7103558,48.3991596 17.6823749,48.4529724 17.652245,48.5067798 C17.3573598,49.012602 16.9268789,49.2816277 16.3328215,49.204154 C15.8571347,49.1417341 15.5191815,48.8683718 15.3297951,48.429306 C15.1963429,48.1193558 15.1898849,47.7986607 15.3319441,47.4607185 C14.4580774,47.0689762 13.6014026,46.6513782 12.7748687,46.1714376 C11.9547818,45.6914473 11.1626869,45.1684112 10.3921369,44.5958436 C10.1338451,44.9079483 9.8131224,45.0973623 9.41065551,45.1102728 C9.09209834,45.1210343 8.80364905,45.0134141 8.56042769,44.8046261 C8.08258642,44.3935137 7.88239441,43.668142 8.43343351,42.9578188 C7.74680429,42.2948836 7.07092,41.6189993 6.45752168,40.8828882 C5.84621724,40.1532242 5.2715558,39.3998661 4.73987412,38.5905241 C4.34813013,38.7605642 3.94992816,38.8229895 3.55175925,38.63357 C3.27840246,38.5044214 3.06531101,38.3064004 2.93615683,38.0308615 C2.65849325,37.4454001 2.83714359,36.7889118 3.43336654,36.3691979 C2.54655302,34.6472523 1.8771708,32.837033 1.41872002,30.9385949 C1.3110998,30.9213755 1.20347958,30.904156 1.09585385,30.8869366 C0.62877406,30.8202132 0.144458281,30.4306182 0.0519415917,29.8537692 C-0.0513751405,29.2058769 0.293013967,28.7194342 0.719174823,28.4977578 C0.790207143,28.4611699 0.861233952,28.4310345 0.953789214,28.3879831 C0.844014497,27.4279915 0.768678691,26.4615531 0.762220706,25.4886676 C0.755763824,24.5136332 0.818182559,23.5428967 0.917195805,22.5635092 C0.249962573,22.2514045 -0.122418481,21.7563713 0.0605210131,21.0094602 C0.215496111,20.3723679 0.691166346,20.0710137 1.34765464,20.0236257 C1.57366206,19.0507403 1.85132233,18.0971957 2.18708242,17.1608982 C2.52501354,16.2224516 2.92104228,15.309793 3.37739918,14.4100833 C2.93615132,13.9430035 2.80053365,13.4070569 3.12986882,12.8344894 C3.46134196,12.2597728 3.9886926,12.0725354 4.64088291,12.2274829 C5.72788514,10.5550192 7.00642281,9.04620919 8.45930402,7.69444061 C8.07832151,6.99061948 8.33876784,6.34487613 8.76064725,6.01123196 C9.16961069,5.6883658 9.79596356,5.57859108 10.407268,6.06719382 C11.9828619,4.8876749 13.6811135,3.91478945 15.4891839,3.14848236 C15.4160026,2.45325718 15.7216493,1.91512854 16.2791298,1.68700519 C16.7698815,1.48682971 17.4672447,1.6052114 17.8848647,2.2681687 C18.5069141,2.1131936 19.1289635,1.93884455 19.7596088,1.8053979 C20.4010542,1.66979676 21.0467424,1.55786754 21.6967837,1.47177027 C22.3425271,1.37706051 22.9904194,1.33616912 23.6512057,1.27374378 L23.6509908,1.2742397 Z M32.0992689,24.5439229 C31.4363336,23.7819689 30.872362,22.979129 30.3708764,22.1310501 C29.8672087,21.2786733 29.4431748,20.3875596 29.0944877,19.4534111 C28.4272545,19.472785 27.9687486,19.1735963 27.7147823,18.5601484 C26.7440458,18.7151235 25.7754583,18.7947628 24.8025178,18.7840013 C23.8210364,18.7732398 22.8480958,18.6699231 21.8816573,18.502032 C21.62552,19.1994062 21.1240013,19.4986114 20.3964862,19.4426275 C19.679716,21.2807837 18.6659447,22.9317025 17.391705,24.4082777 C17.8889147,24.9915901 17.8932237,25.5770516 17.4799568,26.177556 C18.7800394,27.7014641 19.7507759,29.4019197 20.454597,31.2637699 C20.7753087,31.222873 21.0551014,31.2788348 21.3177188,31.4381189 C21.5846231,31.5973975 21.7546632,31.8406244 21.8816353,32.1053522 C23.8468022,31.776028 25.7882751,31.8061634 27.7274337,32.161314 C27.9943381,31.4962298 28.4829408,31.2013225 29.195413,31.2616044 C29.8755952,29.3911582 30.8678767,27.7100986 32.1291674,26.1926375 C31.7180549,25.6437694 31.7202039,25.1013373 32.0990319,24.5438678 L32.0992689,24.5439229 Z M40.2935255,30.7087634 C39.5897044,32.7105182 38.5543881,34.4991926 37.1832786,36.0833825 C37.6116105,36.6946869 37.5448872,37.2650504 37.0885689,37.809626 C38.2637898,39.2194723 39.2366753,40.7455293 40.0029823,42.3706051 C40.1751769,42.413651 40.3258485,42.4351794 40.4636041,42.4889868 C40.6078178,42.5449486 40.7434189,42.6310459 40.8833291,42.7042272 C41.9616802,41.8174115 44.0603048,39.333512 44.6350213,38.2616078 C43.9526901,37.6567503 44.010823,36.9723251 44.3186132,36.5030743 C44.4649758,36.2792214 44.6673058,36.1199428 44.9169686,36.0166261 C45.2592032,35.8767159 45.5928529,35.9047024 45.9264419,36.0467615 C46.3806057,35.1793418 46.7508268,34.2903771 47.0887689,33.3842204 C47.446074,32.4242289 47.8894598,30.857286 47.8722679,30.5817747 C47.6806994,30.5085934 47.4998979,30.4052767 47.3707492,30.2395401 C47.2416006,30.0738036 47.1382838,29.888693 47.0199021,29.705737 C46.1546314,29.7918343 45.2785606,29.8391892 44.3982469,29.8262732 C43.5200272,29.8133572 42.6461605,29.7294145 41.7658468,29.6217942 C41.6668336,29.9575764 41.5333814,30.2610906 41.2471087,30.463371 C40.9715974,30.6635465 40.6594982,30.7517983 40.2935641,30.7087469 L40.2935255,30.7087634 Z M7.82617358,21.0295009 C7.9337938,20.6765048 8.08016192,20.3967066 8.36858918,20.1965201 C8.65701643,19.9941901 8.97559564,19.9619057 9.31348268,19.9748217 C10.0151548,17.9902588 11.0418752,16.2037334 12.4172826,14.6195435 C11.9545118,14.0254861 12.0578286,13.3625508 12.5162959,12.8567121 C11.3539689,11.4619638 10.3810834,9.94444761 9.5997334,8.30432893 C9.25964778,8.32154838 8.98842896,8.16441878 8.71936464,8.00083671 C7.29877335,9.33750727 6.05032151,10.7968354 4.99996228,12.4219112 C5.50793897,12.7899778 5.65859956,13.4249376 5.41322921,13.9845561 C5.28838954,14.2686744 5.06023313,14.4903783 4.7782859,14.6216484 C4.44035478,14.7766235 4.08306072,14.785236 3.71927562,14.6281064 C2.85400488,16.3823419 2.1759716,18.1839102 1.75625771,20.1060422 C2.12216976,20.2717788 2.39985207,20.5343741 2.53760772,20.9239801 C2.63876995,20.9239801 2.72917622,20.9411996 2.8109645,20.9218256 C3.10369525,20.8507933 3.40502194,20.8551023 3.69992922,20.8443408 C4.42959331,20.8185144 5.1592574,20.8357338 5.88897659,20.8357338 C5.93633147,20.8357338 5.98583533,20.8292758 6.03103572,20.8400373 C6.3474439,20.9067606 6.67248109,20.8830887 6.98887825,20.9304381 C7.05775607,20.9411996 7.12878839,20.949812 7.19766621,20.958419 C7.40645418,20.9820964 7.61523663,21.0057739 7.82616256,21.0294513 L7.82617358,21.0295009 Z M9.55886405,42.5408711 C10.325116,40.8124786 11.3002056,39.2196927 12.4754265,37.7538625 C12.2235927,37.5063321 12.1181214,37.2222139 12.094444,36.8950387 C12.0707666,36.5657146 12.2020642,36.2901812 12.3613483,36.0448109 C12.111669,35.7197957 11.8727456,35.4077186 11.6316842,35.0977133 C11.1430815,34.4735149 10.7319746,33.7997796 10.3595935,33.1024055 C10.0840822,32.5858218 9.82148692,32.0606422 9.61053344,31.5117686 C9.53304865,31.3094386 9.44479687,31.1114176 9.36730657,30.9198602 C8.65483438,30.9499956 7.99834609,30.6421944 7.83910057,29.5896366 C7.80466166,29.5896366 7.76376476,29.5831786 7.72717686,29.5917911 C7.41507217,29.6628234 7.09868052,29.7101728 6.77793028,29.7317012 C6.59927774,29.7446172 6.41416722,29.7467662 6.23982368,29.7855086 C5.96215789,29.8479284 5.67805617,29.8522319 5.39824691,29.8629934 C4.63629289,29.8888253 3.87433888,29.8716058 3.11453386,29.8716058 C3.05211402,29.8716058 2.98538519,29.8759093 2.92727435,29.8565409 C2.81104165,29.815644 2.69911794,29.8264055 2.58288524,29.8393214 C2.47526502,30.2956342 2.21697319,30.6249694 1.81018629,30.8316029 C1.92210999,31.2470243 2.02112324,31.6452428 2.14165943,32.0391137 C2.27941507,32.4932776 2.42793218,32.9452703 2.58721077,33.3929762 C2.83904461,34.0989463 3.11885939,34.7942266 3.45677949,35.4636088 C3.51919933,35.590603 3.58377366,35.7175972 3.644039,35.8424368 C3.70430985,35.9651275 3.76457519,36.0899672 3.82269154,36.2126579 C4.21658451,36.0598373 4.8300159,36.3181291 5.11417824,36.6904991 C5.27561132,36.9014361 5.3595541,37.144663 5.37462457,37.4072693 C5.39399852,37.7559619 5.26915334,38.0616086 5.05821639,38.324226 C6.11937565,39.9299608 7.35487846,41.3742461 8.75607376,42.6915207 C8.99714614,42.5300876 9.27265742,42.5257841 9.55891365,42.540849 L9.55886405,42.5408711 Z M37.1144008,12.9189997 C37.1445362,12.9598966 37.1531432,12.9728126 37.1639047,12.985723 C37.1789751,13.0029425 37.1983436,13.0180129 37.213414,13.0373814 C37.5298222,13.4614098 37.613765,13.9133971 37.3683891,14.4020439 C37.3231888,14.4902957 37.2779884,14.5806964 37.232788,14.6667937 C38.5565095,16.1928507 39.5337481,17.9104983 40.2332712,19.7831485 C41.0103232,19.7508641 41.496766,20.1060146 41.7119954,20.8163158 C42.6074071,20.6527282 43.4942228,20.53865 44.3874855,20.5106691 C45.2957911,20.4826882 46.2063008,20.4590107 47.0887634,20.5472625 C47.2157576,20.3944419 47.3147708,20.2502283 47.4396105,20.1339956 C47.5623012,20.0177629 47.7108183,19.9316656 47.8464195,19.8348068 C47.4159331,17.9708077 46.7357784,16.2014742 45.8661545,14.4773797 C45.7391604,14.4945991 45.6035592,14.537645 45.4787196,14.5247291 C45.1364849,14.4881412 44.8351252,14.356838 44.5811589,14.1050041 C44.2281628,13.7541571 44.1269951,13.1278207 44.3486935,12.7059027 C44.4175713,12.5746051 44.5015141,12.4519144 44.5876114,12.3098553 C43.5394011,10.7127714 42.2996003,9.27278416 40.9155418,7.97055251 C40.7605667,8.03512685 40.6271146,8.11046265 40.482901,8.14059257 C40.3386873,8.17288249 40.1858667,8.15996652 40.0244336,8.16857901 C39.2581817,9.87763061 38.2960412,11.4618205 37.1143732,12.9189997 L37.1144008,12.9189997 Z M17.8374272,47.9430975 C17.9493509,47.9710795 18.0462151,47.9947558 18.1452229,48.0205878 C18.4809995,48.113143 18.8168092,48.2143053 19.1568452,48.3004025 C19.4947763,48.3864998 19.8370275,48.4639901 20.1792676,48.5350169 C20.4526244,48.5909788 20.7302902,48.6383337 21.0079504,48.6813796 C21.2705457,48.7222759 21.5352956,48.7416504 21.7978964,48.7846963 C22.0755622,48.8298978 22.3532169,48.875097 22.6373242,48.875097 C22.6760666,48.875097 22.719118,48.8664873 22.7557059,48.8794016 C22.9881713,48.9590409 23.2227857,48.909536 23.455229,48.9181457 C23.6338816,48.429543 23.9804196,48.1303487 24.4712044,48.0722158 C25.1621316,47.990422 25.6356804,48.3305077 25.9090427,48.9654785 C25.9714626,48.9654785 26.0295789,48.9783934 26.0812373,48.9633262 C26.2986322,48.9030554 26.5203361,48.9245822 26.7398746,48.9181253 C26.7549395,48.9181253 26.772159,48.9181253 26.7872294,48.915973 C27.0261473,48.8858387 27.2672197,48.8535532 27.5061486,48.8255722 C27.6934081,48.8040476 27.8806731,48.7932856 28.0679161,48.7739139 C28.1927558,48.7609996 28.3154465,48.7437801 28.4402861,48.7222555 C28.685662,48.6792069 28.9288889,48.6340037 29.1742482,48.5844999 C29.4562175,48.528538 29.7381647,48.4725762 30.017974,48.4080018 C30.3666666,48.3283625 30.7131991,48.2422653 31.0597372,48.1540135 C31.2319318,48.1109648 31.3998229,48.0550002 31.5806244,48.0033419 C31.5052886,47.5168936 31.71838,47.1509628 32.0111108,46.8195228 C30.9800924,45.3709395 30.1363667,43.8362315 29.4820274,42.1702698 C29.2560199,42.3080255 29.0192566,42.297264 28.7846532,42.2951095 C28.5285159,42.290806 28.3304894,42.1702698 28.1238669,42.0303597 C27.915079,41.8904495 27.8397487,41.6644476 27.6998385,41.4944021 C27.4630696,41.5245375 27.2349132,41.535299 27.0175073,41.5891063 C26.8689902,41.6235452 26.7161641,41.6020223 26.5741049,41.6364612 C26.3115096,41.698881 26.0446053,41.7031845 25.78201,41.713946 C25.1319687,41.7397779 24.4819273,41.7225585 23.831886,41.7225585 C23.7759242,41.7225585 23.7178078,41.7311655 23.6661494,41.7161005 C23.4143156,41.6407647 23.1517203,41.6902686 22.8977485,41.6321577 C22.7083344,41.5891063 22.5124625,41.5740414 22.3187339,41.5482149 C22.1271654,41.522383 21.9334479,41.4987056 21.7483154,41.4750336 C21.6041017,41.7397834 21.4448232,41.9571784 21.1994473,42.10353 C20.94331,42.2563506 20.6634897,42.2585051 20.3815094,42.2498926 C20.3276965,42.3725833 20.2760382,42.478049 20.2394503,42.5878237 C20.0306623,43.1926812 19.7659125,43.7737896 19.4882412,44.3506551 C19.3095887,44.7251797 19.1137167,45.0911193 18.9113757,45.4527003 C18.7284196,45.7798699 18.5325476,46.1005926 18.3345101,46.4169898 C18.1601611,46.6946555 17.9750561,46.9637088 17.794249,47.2370767 C17.7404362,47.3167159 17.6909323,47.3963536 17.7167642,47.4996703 C17.7512032,47.6438839 17.794249,47.7859431 17.8373004,47.9430727 L17.8374272,47.9430975 Z M27.8439971,9.22274029 C28.1216628,8.66527075 28.5672142,8.40695137 29.1483777,8.39190845 C29.4927668,7.45775989 29.8737438,6.5644972 30.3300456,5.70137544 C30.7863584,4.84040267 31.2792922,4.00097489 31.8561026,3.21962488 C31.8324252,3.05173382 31.8087477,2.89030073 31.7850703,2.71595719 C31.6150302,2.66429883 31.4471392,2.60833697 31.2749446,2.56313659 C30.749754,2.42753545 30.2267344,2.28116732 29.6950527,2.16924362 C29.1397321,2.05301092 28.5801136,1.96476465 28.018291,1.88081636 C27.6631404,1.829158 27.3015208,1.81193854 26.9442378,1.77965413 C26.9205604,1.77750514 26.8947284,1.78396313 26.8732055,1.77750514 C26.6428946,1.69140786 26.4039767,1.7516732 26.1758313,1.73015026 C25.9778048,2.29406676 25.4246223,2.67724786 24.8757487,2.63845587 C24.3634685,2.60186246 23.9114592,2.31344071 23.6897828,1.70000933 C21.7719487,1.79686807 19.8907577,2.10681827 18.0351892,2.66429883 C18.1062215,3.04097235 17.9533954,3.359524 17.7962713,3.66732521 C18.8509836,5.1439004 19.6667174,6.72379231 20.3189077,8.40270299 C21.0593719,8.26064386 21.5888494,8.55552359 21.9159915,9.2012449 C22.1527604,9.17110947 22.3723044,9.160348 22.5832248,9.10868963 C22.7252839,9.07425072 22.867343,9.09362468 23.0029497,9.06133475 C23.2870679,8.99461143 23.5798152,8.98599895 23.8639225,8.98384996 C24.6215785,8.97739198 25.3813835,8.92357911 26.1390395,9.01828887 C26.3801119,9.0484243 26.6254878,9.0462698 26.8665547,9.07210174 C27.0193753,9.08932119 27.1700469,9.13452157 27.322873,9.15819901 C27.486455,9.18617994 27.6565006,9.2012449 27.8437601,9.22277335 L27.8439971,9.22274029 Z M39.0088164,6.38156321 C37.4655124,5.23217972 35.8404366,4.30018566 34.0926481,3.54897107 C33.8408143,3.8869022 33.4813437,4.03541931 33.0013479,4.04403179 C32.6913977,4.02250885 32.3685536,3.86968274 32.1059362,3.58556448 C31.042628,5.13746445 30.1709103,6.76254573 29.5531589,8.5318737 C30.1213733,8.82460444 30.3753948,9.28093378 30.3194109,9.90728114 C30.3882887,9.93311307 30.446405,9.95463602 30.5045214,9.97831346 C30.9070268,10.1462045 31.3160123,10.2968706 31.7077343,10.4819811 C32.3426776,10.7811699 32.962578,11.1104775 33.5566905,11.4914545 C34.0431387,11.8057082 34.516682,12.1328999 34.9665369,12.4944809 C35.1172085,12.6150171 35.2743326,12.7269463 35.4293077,12.845328 C35.6208762,12.6602175 35.8554905,12.6128626 36.079349,12.5569007 C36.3139634,12.4987844 36.5313583,12.623624 36.7509353,12.6731334 C37.5257832,11.9133284 39.4027314,8.83966939 39.5964709,8.00663347 C38.9808685,7.62565096 38.8366659,7.05738689 39.0088605,6.3815577 L39.0088164,6.38156321 Z M10.6096641,44.240671 C12.1486701,45.392198 13.7887888,46.3543385 15.5581223,47.0969516 C15.5839487,47.0732742 15.6076262,47.0517457 15.6291546,47.0302283 C16.0079826,46.6406388 16.4578375,46.550238 16.9550251,46.7374976 C17.1272197,46.8020719 17.2778913,46.9183046 17.4436279,47.0151633 C18.4961912,45.4977023 19.3485129,43.8790735 19.9619663,42.131285 C19.4669056,41.8127223 19.2086083,41.3865229 19.2925841,40.8010614 C19.2258608,40.770926 19.1763514,40.749403 19.124693,40.7278801 C18.7157296,40.55784 18.3003082,40.4028649 17.8977862,40.2177544 C17.0389624,39.8238614 16.2210245,39.3503347 15.4483255,38.8057591 C15.0781045,38.5453127 14.7294064,38.2547365 14.3678254,37.9792252 C14.3011021,37.9297158 14.2257663,37.8909734 14.1590374,37.8500765 C13.7328545,38.1794007 13.2873197,38.1621812 12.8094729,38.0115096 C12.777183,38.050252 12.7384406,38.0911489 12.7061562,38.1342003 C12.4371029,38.4979634 12.1615916,38.8574174 11.8990183,39.2255005 C11.4792934,39.817409 11.0983274,40.4330114 10.7539383,41.0723078 C10.5021045,41.5415365 10.2739481,42.0215543 10.0393172,42.499346 C10.0091817,42.5596169 10.0005693,42.6284947 9.98120081,42.68876 C10.480565,42.9793363 10.7883387,43.4958979 10.6096972,44.24066 L10.6096641,44.240671 Z M19.9445375,8.62642366 C19.3160411,6.94751299 18.4830603,5.38701707 17.4670849,3.93843383 C17.3465487,3.99439568 17.2389285,4.05681552 17.1205413,4.09556342 C17.0193791,4.13000234 16.9096043,4.15152528 16.8019841,4.15583427 C16.7201903,4.16013776 16.6340931,4.12354986 16.5501503,4.11493738 C16.2724845,4.08695645 16.0507861,3.95780778 15.8592231,3.7597868 C15.7838873,3.68014751 15.704248,3.6048117 15.6203052,3.52301791 C13.8380778,4.26778002 12.2001081,5.22556745 10.663251,6.35990252 C10.9688978,6.99054785 10.8397491,7.81278373 10.0476486,8.19376074 C10.1767973,8.83520611 12.0752464,11.8119953 12.8630434,12.6148352 C13.0330834,12.5739383 13.1945165,12.5179765 13.3624076,12.500757 C13.6379188,12.4727761 13.8832947,12.5803963 14.1071697,12.7310679 C14.1825055,12.7827263 14.2470798,12.7934878 14.3008872,12.7741193 C15.8484892,11.4869857 17.5488897,10.5183431 19.4258379,9.86620791 C19.3203667,9.47877292 19.5571355,8.87607546 19.944576,8.62640713 L19.9445375,8.62642366 Z M46.9788069,20.9643701 C46.8367477,20.9493051 46.6882306,20.9213242 46.5418625,20.9213242 C45.8272413,20.9170207 45.1126202,20.9127117 44.4002031,20.9213242 C44.1160848,20.9256277 43.8319886,20.9536086 43.5478263,20.9794405 C43.3368893,20.998809 43.1259524,21.0289444 42.9150319,21.0590798 C42.6201467,21.0999767 42.3231235,21.1451771 42.0282162,21.1882285 C41.922745,21.2032934 41.8151248,21.2226674 41.7161115,21.2398868 C41.6041878,21.7327931 41.3372835,22.0728677 40.9003226,22.2709052 C41.2662346,24.259766 41.2769961,26.2442738 40.9369105,28.2351735 C41.3867708,28.413826 41.6601276,28.7388412 41.7634444,29.2102079 C43.5176798,29.4706543 45.2654683,29.4728032 47.0046057,29.3049177 C47.0239797,29.2661753 47.0368957,29.2532593 47.0368957,29.2381944 C47.0799416,28.7173072 47.5620863,28.1447452 48.1949247,28.1146042 C48.2379706,28.1124497 48.2788675,28.0823143 48.3348348,28.0586424 C48.3520543,27.8412475 48.3671193,27.6303105 48.3843387,27.419346 C48.3972547,27.2622164 48.4123196,27.1072413 48.4273846,26.9501172 C48.4424551,26.7929876 48.4682815,26.6380125 48.4682815,26.4808884 C48.4725905,25.7103385 48.470436,24.9418824 48.470436,24.1713324 C48.470436,24.1239776 48.4725905,24.0766227 48.4682815,24.0292733 C48.4403006,23.7236266 48.4080106,23.4201179 48.3800297,23.1166697 C48.3585068,22.8820553 48.3369838,22.6474409 48.3133064,22.4128486 C48.3111574,22.3999326 48.2960869,22.3870167 48.2853255,22.3762552 C47.4437487,22.255719 47.0562696,21.7778998 46.9787958,20.9642598 L46.9788069,20.9643701 Z M38.9090813,44.3183597 C38.6034346,43.6231345 38.7541062,42.9408033 39.5720166,42.4651055 C38.8208075,40.8787666 37.882361,39.4129364 36.7587708,38.0698188 C36.509086,38.1300897 36.2852331,38.2269484 36.0312557,38.1817425 C35.7772784,38.1365366 35.5620269,38.0138515 35.3446265,37.8933153 C33.7927265,39.191249 32.077228,40.1705814 30.168045,40.8378697 C30.2627547,41.2726596 30.0819477,41.6170707 29.8344173,41.9313189 C30.4887566,43.6166765 31.3346865,45.1771724 32.3828967,46.6171597 C32.4431676,46.6042493 32.48191,46.5999403 32.5184979,46.5891788 C33.030778,46.4557267 33.4483484,46.6171597 33.7991845,46.9916843 C33.8529919,47.0498006 33.9025013,47.110066 33.9477016,47.1617243 C35.9968444,46.3114965 37.9254234,45.1082836 38.9090538,44.3183376 L38.9090813,44.3183597 Z M2.58897624,29.3889541 C2.76977557,29.4104771 2.93336315,29.442767 3.09695073,29.444916 C3.87400276,29.451374 4.65099969,29.4470705 5.42805172,29.4470705 C5.4754066,29.4470705 5.52706496,29.4556775 5.57011085,29.442767 C5.83701516,29.3652822 6.11467543,29.4083281 6.38589976,29.3588242 C6.58607524,29.3200763 6.79270871,29.3286888 6.99505521,29.3007079 C7.3114634,29.2555075 7.62355156,29.1952366 7.97223864,29.1371203 C8.13367173,28.8400861 8.35537015,28.5602548 8.70190273,28.4246481 C8.65885685,28.1448333 8.61365096,27.8671786 8.57490856,27.5916673 C8.55123663,27.4216272 8.54692763,27.2494327 8.52110121,27.0772381 C8.47374633,26.7350035 8.42208796,26.3949069 8.43070044,26.0483688 C8.4457654,25.4090724 8.38334556,24.7676821 8.47159734,24.1283857 C8.50603625,23.8722484 8.50173276,23.6118021 8.52755919,23.3535378 C8.54262415,23.1985627 8.58567554,23.0478911 8.60935298,22.8950705 C8.63087592,22.7508569 8.64594088,22.6066432 8.66316033,22.4688876 C8.21115101,22.2600996 7.92704928,21.9350845 7.82373255,21.4572653 C7.6493835,21.4357368 7.48795041,21.4142139 7.32652284,21.3969944 C7.15432829,21.3776205 6.97997924,21.3776205 6.81209368,21.3410326 C6.51075046,21.2764582 6.20293823,21.2678512 5.90163909,21.2635478 C4.98468242,21.2506318 4.06563188,21.2075859 3.15082421,21.3001357 C2.9592557,21.3195096 2.7655382,21.3367291 2.5782583,21.3539485 C2.54812398,21.7026411 2.40821825,21.9824449 2.1908178,22.2149213 C1.96481039,22.4538392 1.67423414,22.5894458 1.3191001,22.5980528 C1.30403349,22.7401119 1.29111862,22.8714096 1.27820375,23.0027127 C1.27389916,23.0500676 1.28896633,23.103875 1.27174687,23.1447719 C1.21147602,23.2889855 1.24161255,23.4396571 1.22869823,23.5881742 C1.21578336,23.7366913 1.18780189,23.8830595 1.18564959,24.0315766 C1.17919216,24.5718377 1.18134445,25.1099278 1.17919216,25.6502054 C1.17919216,25.9278712 1.17488702,26.2055259 1.1834973,26.4831862 C1.19210648,26.7651555 1.21363107,27.0471027 1.23085053,27.331265 C1.23300282,27.3549425 1.22869823,27.3807689 1.23515567,27.4022974 C1.30403349,27.6541312 1.2803566,27.9167265 1.32555643,28.1685494 C1.33631845,28.2202077 1.34277588,28.2718661 1.35138561,28.319221 C1.92180418,28.4376027 2.30063219,28.5947323 2.58903741,29.3889762 L2.58897624,29.3889541 Z M36.8752515,35.8138773 C38.1322442,34.4147759 39.6562073,31.7651288 39.8929817,30.56412 C39.3484171,30.2197309 39.1267297,29.7289902 39.2666343,29.0746509 C38.3001959,28.7883781 37.3681963,28.4246095 36.4727846,27.9661588 C35.568777,27.503388 34.7206981,26.9523874 33.9286032,26.313091 C33.6746148,26.5390985 33.3775806,26.6316482 33.0525875,26.6402607 C32.7081984,28.7840691 31.7223639,30.5577006 30.1015861,31.9653979 C30.2285803,32.2559742 30.2651737,32.5314634 30.1919869,32.8392646 C32.105523,33.5430858 33.7951786,34.610692 35.3061376,35.9603116 C35.8033473,35.5642641 36.3199089,35.5126057 36.8752846,35.813949 L36.8752515,35.8138773 Z M12.7377078,14.8965095 C11.3816963,16.4591544 10.3786699,18.1983469 9.70708362,20.1355219 C9.99120187,20.271123 10.1677054,20.486369 10.2839491,20.7532733 C10.4001818,21.0201776 10.4001818,21.2978379 10.3485235,21.5927011 C11.306366,21.8983478 12.2362166,22.2620833 13.1316283,22.7248872 C14.02704,23.1898125 14.8557228,23.7494585 15.6542647,24.3672099 C15.9125565,24.1605765 16.1902223,24.0508018 16.5023436,24.0594142 C16.8553396,21.9005078 17.8433121,20.1139824 19.4834859,18.6955401 C19.3285108,18.4114164 19.3500337,18.1229726 19.3866271,17.8474613 C19.3521882,17.8194804 19.3371233,17.8001119 19.3177493,17.7893449 C19.2768524,17.767822 19.2338065,17.7484536 19.1886006,17.7312286 C18.3792587,17.4406523 17.6173047,17.0531953 16.8833426,16.6141405 C16.0245188,16.1018604 15.213083,15.5206913 14.4704699,14.8448622 C14.420966,14.7996618 14.3585462,14.7673774 14.2982753,14.7264805 C13.8225885,15.1483599 13.3081429,15.1698828 12.7377794,14.8965205 L12.7377078,14.8965095 Z M14.2422749,35.8827551 C15.755438,34.4944538 17.4601365,33.4418905 19.3801195,32.7380693 C19.3801195,32.6003137 19.3693581,32.4797775 19.382274,32.3635448 C19.397339,32.2408541 19.4339324,32.1203179 19.4619133,31.9890203 C17.8260375,30.5770249 16.8467051,28.7840526 16.495869,26.6445421 C16.0890601,26.5885803 15.8242827,26.4874125 15.5337285,26.2011398 C14.7588806,26.8274872 13.9258447,27.3677648 13.045531,27.8391646 C12.1651622,28.3083934 11.2439627,28.6828904 10.2904182,28.9842446 C10.4367808,29.3028073 10.4992061,29.623541 10.3980384,29.963577 C10.2968761,30.3015081 10.0923917,30.5619324 9.78028696,30.7642679 C10.0859337,31.6424877 10.4841081,32.4733195 10.936167,33.2804574 C11.3946343,34.0962463 12.3997932,35.4995906 12.7097985,35.727769 C13.286664,35.4199733 13.7688087,35.5168321 14.2423024,35.8827441 L14.2422749,35.8827551 Z M33.9347195,24.3757508 C34.7117716,23.7257095 35.5361013,23.157495 36.4164701,22.6732013 C37.3032858,22.1845985 38.2288384,21.7885345 39.2124688,21.4505924 C39.1134556,21.1535581 39.134984,20.8737268 39.2447588,20.6046625 C39.358837,20.3226932 39.5504055,20.1096018 39.8022283,19.9546212 C39.7570279,19.1065424 37.7315957,15.6303614 36.8835168,14.9523832 C36.644599,15.0836808 36.3819981,15.1439517 36.0978688,15.1224232 C35.8094416,15.1009003 35.5683692,14.9760606 35.3380638,14.7866466 C34.5868548,15.4732758 33.7818659,16.0845803 32.9165951,16.6162069 C32.0556224,17.1457065 31.1451678,17.5740494 30.2088151,17.9141405 C30.2088151,18.0777281 30.2238801,18.2111748 30.2045061,18.3424724 C30.1872867,18.4716211 30.1356283,18.5964608 30.0968859,18.7277584 C31.7349107,20.1462007 32.7099451,21.9348751 33.0543342,24.0636406 C33.3728914,24.0787111 33.5343245,24.1217569 33.934703,24.3757453 L33.9347195,24.3757508 Z M21.1383224,33.754155 C21.5020854,35.7796037 21.4547305,37.7942524 21.0479216,39.8065869 C21.6010932,40.0390468 21.8227695,40.4867691 21.8572636,41.0549836 C22.3157309,41.1217069 22.7548242,41.1948938 23.1960831,41.2487011 C23.4371555,41.2788365 23.6825313,41.2917525 23.9257472,41.2982105 C24.203413,41.3068175 24.4810677,41.3046685 24.758728,41.3046685 C25.2968346,41.3046685 25.8327812,41.308972 26.3687609,41.2530101 C26.3924383,41.2508556 26.4161157,41.2508556 26.4397932,41.2487011 C26.6571881,41.2185712 26.874583,41.1948938 27.0898345,41.1561458 C27.2641836,41.1260159 27.4471396,41.1324739 27.6107217,41.0463711 C27.677445,40.3554439 28.0347501,39.9077381 28.7299587,39.7333945 C28.5125638,38.7411131 28.3597377,37.7617807 28.3360657,36.7630523 C28.3102393,35.7535789 28.3403747,34.7484036 28.5233252,33.78191 C28.3080848,33.6183224 28.1165163,33.4698053 27.9120208,33.3148302 C25.8413882,34.137066 23.7470616,34.1327681 21.6805065,33.3299006 C21.486789,33.4827212 21.318898,33.6140189 21.1380909,33.753929 L21.1383224,33.754155 Z M27.7594096,9.64912706 C27.580757,9.62759861 27.419324,9.60823017 27.2578909,9.58455273 C26.9479407,9.54150133 26.6401395,9.48123599 26.3301893,9.45110057 C25.9858002,9.41881065 25.6371131,9.40589468 25.290575,9.3994422 C24.6340867,9.38867522 23.9775984,9.38652624 23.3232591,9.44679157 C23.1446066,9.46401103 22.963805,9.4790815 22.7851525,9.50275343 C22.600042,9.52643087 22.414937,9.55656629 22.229832,9.5888507 C22.1480382,9.60392117 22.0683989,9.6275931 21.9973666,9.64481256 C21.9414047,9.93969779 21.8789849,10.2001331 21.7153973,10.4347585 C21.5432027,10.6801344 21.2784529,10.7813021 21.0460151,10.9298192 C21.4700435,12.94017 21.4980244,14.9441289 21.1299578,16.9547 C21.2311201,17.0171199 21.3279843,17.0601713 21.4011656,17.1268946 C21.4829594,17.2000759 21.5453793,17.2947856 21.6077991,17.3701215 C21.7025089,17.352902 21.7563162,17.3485985 21.8079746,17.3313791 C22.0964018,17.2366693 22.3805421,17.1247456 22.6732453,17.0451063 C23.2802518,16.8815187 23.8958542,16.7717495 24.5264995,16.7803565 C24.724526,16.782511 24.922547,16.7868145 25.120557,16.778202 C25.492927,16.763137 25.8610211,16.8190989 26.2204531,16.8879767 C26.7477983,16.9869899 27.2730165,17.1161331 27.7680551,17.3356825 C27.81541,17.357211 27.8735264,17.350753 27.9015073,17.352902 C28.0693984,17.2194498 28.215761,17.1010682 28.383652,16.967616 C28.3685871,16.8729062 28.3470641,16.758828 28.3319937,16.6447498 C28.2975548,16.373542 28.2609613,16.1001852 28.2329804,15.8289609 C28.1985415,15.5168562 28.1684061,15.2047625 28.1447286,14.8926634 C28.1318182,14.7355338 28.1404252,14.5762552 28.1404252,14.4169766 C28.1404252,13.8078211 28.1275092,13.1987208 28.1920835,12.5917143 C28.196387,12.5594299 28.1920835,12.52714 28.1985415,12.4970101 C28.2437419,12.1956669 28.2867933,11.8943016 28.3341427,11.5930024 C28.3728851,11.3562336 28.4159364,11.1194702 28.4589823,10.8719343 C28.2738718,10.7234172 28.0715418,10.5856616 27.9423987,10.3704156 C27.81325,10.1573242 27.7508302,9.92701325 27.7594426,9.64934747 L27.7594096,9.64912706 Z M35.1359487,13.1726409 C33.6615225,11.9242442 32.0192549,10.9664016 30.1788946,10.3077588 C30.0411389,10.5423732 29.8603374,10.7447032 29.6171271,10.8630794 C29.3825127,10.9793121 29.1263754,11.0503389 28.8487261,10.994377 C28.7970677,11.3538311 28.7604743,11.7132962 28.6894475,12.0641323 C28.6614666,12.1975844 28.6700791,12.3288821 28.6507051,12.4601797 C28.5925888,12.8239428 28.5538464,13.1919928 28.5603044,13.5600759 C28.5732203,14.1605803 28.5194075,14.7611398 28.6033558,15.3594952 C28.6507051,15.6995808 28.6657756,16.0461244 28.708827,16.3883645 C28.7281954,16.5562556 28.7777048,16.7176887 28.8142982,16.8855742 C29.3696188,16.8446829 29.7419998,17.1309501 30.073495,17.5226665 C31.9439411,16.8424843 33.5991578,15.8308619 35.0649881,14.4726464 C34.9164709,14.0313986 34.8691161,13.5966307 35.1360204,13.1725638 L35.1359487,13.1726409 Z M19.5265813,33.1383927 C18.5838368,33.4677169 17.7013191,33.9003468 16.8597423,34.4169304 C16.0181655,34.9335141 15.2346665,35.5297205 14.5071514,36.2184987 C14.7331589,36.6575976 14.7094814,37.0923654 14.4791705,37.5164324 C15.5510747,38.4807219 17.36989,39.6623898 19.4060837,40.3899049 C19.681595,39.9206761 20.0991599,39.6882327 20.6587784,39.6774327 C20.7104368,39.3265856 20.7620952,38.9800585 20.811599,38.6335204 C20.830973,38.4936103 20.837431,38.3515512 20.8632574,38.2137955 C20.9170703,37.9275228 20.9364387,37.639079 20.9472002,37.3506738 C20.9601162,37.0342656 20.9601162,36.7157305 20.9515092,36.3992782 C20.9428967,36.0441276 20.9579617,35.691104 20.9149158,35.3359699 C20.8761734,34.9937353 20.8481925,34.6493407 20.8051411,34.3092496 C20.7857671,34.149971 20.7427212,33.9928414 20.7104368,33.8314083 C20.2024601,33.7991184 19.8171741,33.5795745 19.5266199,33.1383321 L19.5265813,33.1383927 Z M34.190945,26.0114668 C35.2069205,26.8358517 36.3175615,27.4987869 37.5142724,28.0175196 C38.1427687,28.2887274 38.7842141,28.5254963 39.4514473,28.7041488 C39.7205006,28.3253208 40.0842416,28.1638877 40.5363006,28.1509772 C40.8656247,26.2116533 40.8527087,24.2852233 40.4997127,22.3503626 C40.0283294,22.3632731 39.6731788,22.1695611 39.3955185,21.818714 C37.4733865,22.4493594 35.7299511,23.3835079 34.190945,24.6878885 C34.4341719,25.1377489 34.4298629,25.5682573 34.190945,26.0116101 L34.190945,26.0114668 Z M19.5326481,10.2814255 C18.9191947,10.4816009 18.3272862,10.7355893 17.7482717,11.0196855 C17.1714062,11.3016548 16.6182346,11.624543 16.0801611,11.9732301 C15.5355965,12.3262261 15.0232998,12.7222901 14.5282611,13.1377061 C14.7413526,13.550973 14.760721,13.9620909 14.5627,14.3667619 C15.8089478,15.49465 17.1779082,16.3965087 18.6910713,17.0766909 C18.9794986,17.2058341 19.2700859,17.3414407 19.5735891,17.4124675 C20.0729533,16.9109488 20.2214814,16.9217158 20.7079241,16.857147 C21.0824487,14.8941291 21.0415518,12.9375581 20.6239814,10.9915117 C19.8318864,10.7590463 19.7888516,10.6148382 19.5326812,10.2811885 L19.5326481,10.2814255 Z M28.9303381,33.8266144 C28.6096264,35.8283747 28.6957237,37.7999831 29.1563455,39.724209 C29.3522175,39.8318292 29.5287155,39.907165 29.6750836,40.0190942 C29.8236007,40.1310179 29.9441369,40.2795406 30.0818926,40.4194452 C31.9136018,39.7823529 33.5817675,38.8245104 35.0755346,37.5631701 C34.9786759,37.3436207 34.9054946,37.1391417 34.8990366,36.9109798 C34.8925786,36.6849724 34.9786759,36.4826479 35.0410957,36.2803345 C33.6075554,34.9738048 31.074174,33.4369423 30.0151637,33.2325184 C29.7697879,33.5962815 29.4124553,33.787839 28.9303105,33.8265759 L28.9303381,33.8266144 Z M9.99333984,28.6435859 C11.9348128,28.0430815 13.7213437,27.1454657 15.2926341,25.8561831 C15.1850139,25.150213 15.2302143,25.0877822 15.3873439,24.6981541 C13.8354439,23.4217654 12.070469,22.5435456 10.14189,21.9667352 C10.0364188,22.1755232 9.8749857,22.3003628 9.68988069,22.3929181 C9.50692467,22.4833189 9.31320717,22.5435897 9.08502322,22.5414352 C8.95372556,23.2280644 8.87408626,23.9125447 8.85255781,24.6013229 C8.81380991,25.8540176 8.8568613,27.100326 9.12161111,28.3444247 C9.45738774,28.3315088 9.73291555,28.4585029 9.99332882,28.6436135 L9.99333984,28.6435859 Z M27.6541643,32.5502257 C25.7406282,32.2079911 23.8508412,32.1950752 21.9565909,32.4921094 C21.9436804,32.5825102 21.9350679,32.651388 21.9243065,32.7224203 C21.913545,32.7977561 21.89848,32.8730919 21.8834096,32.9570347 C23.8421295,33.7017968 25.7707085,33.6931457 27.7253509,32.9398152 C27.7016734,32.8063631 27.6801505,32.6858269 27.6543186,32.5502257 L27.6541643,32.5502257 Z M27.7079771,17.7718004 C27.2279869,17.5608634 26.7264957,17.4144953 26.209857,17.32194 C25.2068306,17.1411385 24.2016552,17.147591 23.2007778,17.3499265 C22.7487685,17.4403272 22.3096641,17.5759339 21.8878012,17.7524319 C21.8942592,17.8901876 21.8834977,18.0107238 21.9803565,18.1075825 C23.8680496,18.4390556 25.7557427,18.4627331 27.6432155,18.1570864 C27.6690474,18.0214852 27.6862668,17.907407 27.7077898,17.7718004 L27.7079771,17.7718004 Z M29.4837576,19.3430963 C30.1746848,21.3276592 31.6663029,23.5726354 32.428312,24.2614136 C32.4605964,24.2441942 32.4950353,24.2269747 32.5294742,24.2076063 C32.5703711,24.1860833 32.611268,24.1624059 32.6521649,24.1387284 C32.3271498,22.1046837 31.4016192,20.4150281 29.8626131,19.0676126 C29.7248575,19.1666259 29.6107793,19.2505686 29.4837851,19.3431239 L29.4837576,19.3430963 Z M20.047496,31.3686129 C19.291989,29.2721374 18.0328473,27.3973933 17.1610745,26.4502957 C17.0878932,26.4911926 17.0125574,26.529935 16.9436796,26.5686774 C17.1180286,28.4412725 18.4008588,30.6540138 19.7461253,31.6183033 C19.842984,31.5365095 19.9419973,31.4568702 20.047463,31.368624 L20.047496,31.3686129 Z M32.4284222,26.4438487 C31.1821744,27.9333178 30.2264809,29.5799386 29.5613967,31.4009029 C29.6733204,31.4805422 29.7723336,31.5537235 29.8735014,31.6247558 C31.4125074,30.2622423 32.3337069,28.5812377 32.6544572,26.5600869 C32.5769724,26.5213445 32.5080946,26.4869056 32.4284497,26.4438542 L32.4284222,26.4438487 Z M19.7268009,19.0651055 C19.6471616,19.1296798 19.5761293,19.1791837 19.5115605,19.2373 C18.917503,19.7904716 18.4052174,20.4146699 17.9898014,21.1120441 C17.4753723,21.9730169 17.1460757,22.9007185 16.9566341,23.8821999 C16.9394147,23.9704516 16.9178917,24.0673104 16.9760081,24.1706271 C17.0212085,24.1512587 17.0728668,24.1426462 17.0986988,24.1125108 C18.3513935,22.6746725 19.324334,21.0711417 20.0131122,19.2953613 C19.91195,19.2135675 19.8258527,19.1446896 19.7268395,19.0650504 L19.7268009,19.0651055 Z"/>
    <path d="M23.5220515,25.3343648 C23.532813,24.6692805 24.0623126,24.064423 24.7984402,24.07087 C25.5087634,24.077328 26.0726799,24.6197381 26.0769779,25.3343648 C26.0812814,25.9607121 25.6120526,26.6322984 24.7768952,26.6258515 C24.092415,26.621548 23.5069535,26.0253471 23.5220515,25.3343648 Z"/>
  </g>
</svg>
