<svg xmlns="http://www.w3.org/2000/svg" xmlns:xlink="http://www.w3.org/1999/xlink" width="22" height="18" viewBox="0 0 22 18">
  <defs>
    <polygon id="tw-a" points="0 17.743 0 0 21.886 0 21.886 17.743"/>
  </defs>
  <g fill="none" fill-rule="evenodd" opacity=".7">
    <mask id="tw-b" fill="#fff">
      <use xlink:href="#tw-a"/>
    </mask>
    <path fill="#000" d="M21.886412,2.10028714 C21.0811498,2.45658215 20.2157492,2.69733268 19.3073645,2.80558169 C20.2344808,2.2513231 20.9464793,1.37350052 21.2818738,0.327487763 C20.4141072,0.840733983 19.4530768,1.21359169 18.4303307,1.41431572 C17.6112662,0.54378861 16.4441881,-1.97174886e-05 15.1528898,-1.97174886e-05 C12.6730213,-1.97174886e-05 10.6626261,2.00544602 10.6626261,4.47900492 C10.6626261,4.83017339 10.7022583,5.17207464 10.7787622,5.49977929 C7.04703032,5.31305468 3.73823861,3.52980504 1.5237675,0.819833446 C1.13710755,1.48135518 0.915877331,2.25073157 0.915877331,3.07176778 C0.915877331,4.62570304 1.70852036,5.99666 2.9132589,6.79995047 C2.17720506,6.77668383 1.48492404,6.5751711 0.879399978,6.23977663 C0.879005628,6.25831107 0.879005628,6.27704268 0.879005628,6.29597147 C0.879005628,8.46627541 2.42682846,10.276538 4.48099639,10.688042 C4.10419519,10.7905729 3.70747932,10.8453875 3.29814427,10.8453875 C3.00869154,10.8453875 2.72752016,10.8169944 2.45324989,10.7649402 C3.0246627,12.5444435 4.68290347,13.8394881 6.64775118,13.8755711 C5.11097014,15.0769577 3.17490997,15.7928997 1.07125114,15.7928997 C0.708646529,15.7928997 0.351168467,15.771802 0,15.7301981 C1.98712847,17.0011874 4.34731182,17.7429593 6.88317799,17.7429593 C15.1422423,17.7429593 19.6589274,10.9175536 19.6589274,4.99856074 C19.6589274,4.80434348 19.6545895,4.61111209 19.6459138,4.41906376 C20.5231449,3.78751261 21.2844371,2.9986159 21.886412,2.10028714" mask="url(#tw-b)"/>
  </g>
</svg>
