<svg xmlns="http://www.w3.org/2000/svg" width="40" height="30" viewBox="0 0 40 30">
  <path fill="#A6A8AA" fill-rule="evenodd" d="M1041.63322,630.991027 C1041.60861,628.097662 1040.42384,625.334527 1038.3461,623.321677 C1036.26661,621.310717 1033.4663,620.215642 1030.5746,620.285932 C1027.68124,620.354485 1024.93745,621.581437 1022.9579,623.690812 C1022.29168,623.516788 1021.6079,623.428898 1020.91886,623.430658 C1019.00812,623.439446 1017.16064,624.119698 1015.69976,625.353688 C1014.24077,626.587678 1013.26166,628.296283 1012.93649,630.180838 C1010.10815,631.467568 1008.02879,633.979468 1007.29034,636.996088 C1006.55189,640.012708 1007.23936,643.202938 1009.15537,645.648238 C1011.07137,648.093538 1014.00187,649.524223 1017.10777,649.531243 L1036.00777,649.531243 C1038.92399,649.534757 1041.69937,648.277903 1043.62447,646.085953 C1045.5475,643.893958 1046.4317,640.979353 1046.05024,638.088103 C1045.66879,635.196493 1044.05863,632.608903 1041.63286,630.991603 L1041.63322,630.991027 Z M1036.00822,645.930577 L1017.10822,645.930577 C1015.00762,645.932336 1013.03536,644.925097 1011.80677,643.221802 C1010.5798,641.516707 1010.24581,639.326512 1010.91203,637.334902 C1011.57826,635.343292 1013.16379,633.794662 1015.16944,633.172402 C1015.91297,632.940368 1016.42453,632.256562 1016.43331,631.476127 C1016.46319,629.011657 1018.46884,627.030622 1020.93331,627.030622 C1021.57843,627.030622 1022.21477,627.169487 1022.80009,627.440194 C1023.58232,627.79879 1024.50694,627.556208 1025.00968,626.860099 C1026.20852,625.211254 1028.05069,624.147814 1030.07938,623.933344 C1032.10613,623.720647 1034.12938,624.37631 1035.64453,625.738609 C1037.16152,627.100894 1038.02989,629.041519 1038.0334,631.080559 C1038.0334,631.324895 1038.02109,631.570969 1037.99824,631.813564 C1037.91562,632.557099 1038.30234,633.274309 1038.96853,633.613564 C1040.71228,634.511809 1041.95855,636.146569 1042.36288,638.066089 C1042.76718,639.983854 1042.28729,641.982484 1041.05509,643.508389 C1039.82285,645.032404 1037.96836,645.923629 1036.00834,645.930649 L1036.00822,645.930577 Z" opacity=".5" transform="translate(-1007 -620)"/>
</svg>
