<svg xmlns="http://www.w3.org/2000/svg" width="32" height="20" viewBox="0 0 32 20">
  <g fill-rule="evenodd" opacity=".71">
    <path d="M.0510693357 9.35330299C.135847619 4.28101498 4.79898827-.16096493 9.87127628.00825654396 12.3016987-.104669469 14.5863562.952880968 16.4477924 2.43834392 15.6532892 3.34108184 14.8306383 4.21064565 13.9516919 5.023914 11.7139473 3.4774643 8.53157835 3.03547792 6.2938338 4.82185351 3.09269966 7.03580653 2.94693463 12.2632422 6.02609527 14.6464166 9.02047762 17.3636779 14.680182 16.0145974 15.5075242 11.8540948 13.6320141 11.8259471 11.7514776 11.8540948 9.87596756 11.793108 9.87127628 10.6742358 9.86658499 9.55536348 9.87127628 8.4368263 13.0067324 8.42744372 16.1421885 8.42241734 19.2823359 8.44620887 19.4703225 11.0786918 19.122497 13.8803963 17.5053428 16.056819 15.0561552 19.5025703 10.1393499 20.5085166 6.30321637 19.0324362 2.45334408 17.5657384-.273299746 13.4993966.0510693357 9.35330299M25.3981004 5.61133033C26.3289861 5.61133033 27.2595366 5.61133033 28.1951136 5.61133033 28.1998049 6.54690727 28.2044962 7.48717549 28.2138787 8.42241734 29.1494557 8.43213501 30.0897239 8.43213501 31.0249658 8.44151759 31.0249658 9.37206814 31.0249658 10.3076451 31.0249658 11.2385307 30.0897239 11.2479133 29.154147 11.2526046 28.2138787 11.2619872 28.2044962 12.2019203 28.1998049 13.1374973 28.1951136 14.0730742 27.2595366 14.0730742 26.3289861 14.0730742 25.3934091 14.0730742 25.3840266 13.1374973 25.3840266 12.2019203 25.374644 11.2666785 24.4390671 11.2572959 23.4991339 11.2479133 22.563557 11.2385307 22.563557 10.3076451 22.563557 9.37675943 22.563557 8.44151759 23.4991339 8.43213501 24.4343758 8.42744372 25.374644 8.42241734 25.3793353 7.4824842 25.3887179 6.54690727 25.3981004 5.61133033"/>
  </g>
</svg>
