<svg xmlns="http://www.w3.org/2000/svg" xmlns:xlink="http://www.w3.org/1999/xlink" width="20" height="20" viewBox="0 0 20 20">
  <defs>
    <polygon id="in-a" points="19.597 19.788 19.597 0 0 0 0 19.788"/>
  </defs>
  <g fill="none" fill-rule="evenodd" opacity=".7">
    <mask id="in-b" fill="#fff">
      <use xlink:href="#in-a"/>
    </mask>
    <path fill="#000" d="M10.5185492,8.92501465 C10.5248861,8.91464508 10.5317992,8.90446753 10.5383282,8.89409796 L10.5383282,8.92501465 L10.5185492,8.92501465 Z M16.6133617,11.4409803 C16.6133617,8.69611593 15.1533642,7.41873816 13.2061889,7.41873816 C11.6348145,7.41873816 10.9316038,8.28555765 10.5383282,8.89409796 L10.5383282,7.62939412 L7.57800712,7.62939412 C7.616797,8.46702518 7.57800712,16.5639334 7.57800712,16.5639334 L10.5383282,16.5639334 L10.5383282,11.5740565 C10.5383282,11.307136 10.557147,11.0407916 10.6353029,10.8497226 C10.8497994,10.3156896 11.3367853,9.76341383 12.1542533,9.76341383 C13.2255838,9.76341383 13.6536167,10.5828021 13.6536167,11.7833682 L13.6536167,16.5639334 L16.6133617,16.5639334 L16.6133617,11.4409803 Z M4.47980915,3.32179669 C3.46762361,3.32179669 2.80531514,3.98890588 2.80531514,4.86532683 C2.80531514,5.72292892 3.44746055,6.409049 4.44063521,6.409049 L4.46041421,6.409049 C5.49218672,6.409049 6.13510024,5.72292892 6.13510024,4.86532683 C6.11551327,3.98890588 5.49218672,3.32179669 4.47980915,3.32179669 Z M2.97986962,16.5639334 L5.93999865,16.5639334 L5.93999865,7.62939412 L2.97986962,7.62939412 L2.97986962,16.5639334 Z M18.1488266,19.7875264 L1.4476692,19.7875264 C0.648443964,19.7875264 -3.84058258e-05,19.152102 -3.84058258e-05,18.3701594 L-3.84058258e-05,1.41763584 C-3.84058258e-05,0.634733084 0.648443964,-0.000115217477 1.4476692,-0.000115217477 L18.1488266,-0.000115217477 C18.94882,-0.000115217477 19.5973023,0.634733084 19.5973023,1.41763584 L19.5973023,18.3701594 C19.5973023,19.152102 18.94882,19.7875264 18.1488266,19.7875264 Z" mask="url(#in-b)"/>
  </g>
</svg>
