<svg xmlns="http://www.w3.org/2000/svg" xmlns:xlink="http://www.w3.org/1999/xlink" width="164" height="164" viewBox="0 0 164 164">
  <defs>
    <path id="play-b" d="M130.609403,35.005371 C111.282905,1.53040846 68.4771826,-9.93965294 35.0052901,9.39063903 C1.53072298,28.7146902 -9.93964869,71.5191353 9.39041494,104.992761 C28.7142379,138.467723 71.5186231,149.939568 104.990961,130.611059 C138.465974,111.280321 149.941695,68.4781047 130.609403,35.005371 Z M97.9938207,118.484826 C71.2181789,133.949417 36.9715504,124.772833 21.5116005,97.9915253 C6.0480845,71.2155672 15.2276805,36.9689799 42.0042138,21.5119678 C68.7816387,6.04826911 103.026484,15.2239616 118.487326,42.0043774 C133.948613,68.7843474 124.771691,103.023802 97.9938207,118.484826 Z M95.1948752,67.1550647 L58.5469219,45.7809255 C55.207266,43.8311355 52.5135206,45.3899868 52.5322427,49.253014 L52.7199089,91.6785561 C52.7368478,95.5406917 55.4635797,97.1129162 58.8130423,95.1782822 L95.1806108,74.181263 C98.5265074,72.2501951 98.5336396,69.1048548 95.1948752,67.1550647 Z"/>
    <filter id="play-a" width="134.3%" height="134.3%" x="-17.1%" y="-8.6%" filterUnits="objectBoundingBox">
      <feOffset dy="12" in="SourceAlpha" result="shadowOffsetOuter1"/>
      <feGaussianBlur in="shadowOffsetOuter1" result="shadowBlurOuter1" stdDeviation="6"/>
      <feColorMatrix in="shadowBlurOuter1" values="0 0 0 0 0   0 0 0 0 0   0 0 0 0 0  0 0 0 0.115687274 0"/>
    </filter>
  </defs>
  <g fill="none" transform="translate(12)">
    <use fill="#000" filter="url(#play-a)" xlink:href="#play-b"/>
    <use fill="#FFF" fill-rule="evenodd" xlink:href="#play-b"/>
  </g>
</svg>
