<svg xmlns="http://www.w3.org/2000/svg" width="40" height="40" viewBox="0 0 40 40">
  <path fill="#5B2FFF" fill-rule="evenodd" d="M710.9375,3021.00375 C710.67969,3021.03693 710.490235,3021.25944 710.5,3021.519 L710.5,3044.55045 C708.5332,3044.80028 707,3046.46905 707,3048.50088 C707,3050.53271 708.5332,3052.21712 710.5,3052.46695 L710.5,3060.49253 C710.498045,3060.62721 710.55078,3060.75602 710.64453,3060.84971 C710.73828,3060.94535 710.865235,3061 711,3061 C711.134765,3061 711.26172,3060.94535 711.35547,3060.84971 C711.44922,3060.75602 711.501955,3060.62721 711.5,3060.49253 L711.5,3052.46695 C713.4668,3052.21712 715,3050.53271 715,3048.50088 C715,3046.46905 713.4668,3044.80028 711.5,3044.55045 L711.5,3021.519 C711.50586,3021.37262 711.447265,3021.23014 711.33789,3021.1306 C711.23047,3021.03105 711.083985,3020.98616 710.9375,3021.00373 L710.9375,3021.00375 Z M726.9375,3021.00375 C726.67969,3021.03693 726.490235,3021.25944 726.5,3021.519 L726.5,3029.56057 C724.5332,3029.8104 723,3031.47918 723,3033.511 C723,3035.54283 724.5332,3037.22724 726.5,3037.47708 L726.5,3060.49253 C726.498045,3060.62721 726.55078,3060.75602 726.64453,3060.84971 C726.73828,3060.94535 726.865235,3061 727,3061 C727.134765,3061 727.26172,3060.94535 727.35547,3060.84971 C727.44922,3060.75602 727.501955,3060.62721 727.5,3060.49253 L727.5,3037.47708 C729.4668,3037.22724 731,3035.54283 731,3033.511 C731,3031.47918 729.4668,3029.8104 727.5,3029.56057 L727.5,3021.519 C727.50586,3021.37262 727.447265,3021.23014 727.33789,3021.1306 C727.23047,3021.03105 727.083985,3020.98616 726.9375,3021.00373 L726.9375,3021.00375 Z M742.9375,3021.00375 C742.67969,3021.03693 742.490235,3021.25944 742.5,3021.519 L742.5,3044.55045 C740.5332,3044.80028 739,3046.46905 739,3048.50088 C739,3050.53271 740.5332,3052.21712 742.5,3052.46695 L742.5,3060.49253 C742.498045,3060.62721 742.55078,3060.75602 742.64453,3060.84971 C742.73828,3060.94535 742.865235,3061 743,3061 C743.134765,3061 743.26172,3060.94535 743.35547,3060.84971 C743.44922,3060.75602 743.501955,3060.62721 743.5,3060.49253 L743.5,3052.46695 C745.4668,3052.21712 747,3050.53271 747,3048.50088 C747,3046.46905 745.4668,3044.80028 743.5,3044.55045 L743.5,3021.519 C743.50586,3021.37262 743.447265,3021.23014 743.33789,3021.1306 C743.23047,3021.03105 743.083985,3020.98616 742.9375,3021.00373 L742.9375,3021.00375 Z M727,3030.51283 C728.6621,3030.51283 730,3031.84983 730,3033.5108 C730,3035.17178 728.6621,3036.50878 727,3036.50878 C725.3379,3036.50878 724,3035.17178 724,3033.5108 C724,3031.84983 725.3379,3030.51283 727,3030.51283 Z M711,3045.50271 C712.6621,3045.50271 714,3046.8397 714,3048.50068 C714,3050.16166 712.6621,3051.49866 711,3051.49866 C709.3379,3051.49866 708,3050.16166 708,3048.50068 C708,3046.8397 709.3379,3045.50271 711,3045.50271 Z M743,3045.50271 C744.6621,3045.50271 746,3046.8397 746,3048.50068 C746,3050.16166 744.6621,3051.49866 743,3051.49866 C741.3379,3051.49866 740,3050.16166 740,3048.50068 C740,3046.8397 741.3379,3045.50271 743,3045.50271 Z" transform="translate(-707 -3021)"/>
</svg>
