<svg width="114" height="73" viewBox="0 0 114 73" fill="none" xmlns="http://www.w3.org/2000/svg">
<path fill-rule="evenodd" clip-rule="evenodd" d="M1.77881 48.3633V72.7298L23.69 48.3633H17.9475L6.04881 61.5953V48.3633H1.77881Z" fill="white"/>
<path d="M1.78392 18.4243H5.96392V9.62432L9.87992 15.6083H9.96792L13.9059 9.58032V18.4243H18.1519V3.02432H13.6419L9.96792 8.98632L6.29392 3.02432H1.78392V18.4243ZM22.0335 18.4243H34.5295V14.7943H26.2575V12.3523H33.6495V8.98632H26.2575V6.65432H34.4195V3.02432H22.0335V18.4243ZM37.8574 18.4243H50.3534V14.7943H42.0814V12.3523H49.4734V8.98632H42.0814V6.65432H50.2434V3.02432H37.8574V18.4243ZM57.4432 18.4243H61.7112V6.76432H66.3312V3.02432H52.8232V6.76432H57.4432V18.4243ZM69.4426 18.4243H73.7326V3.02432H69.4426V18.4243ZM77.7019 18.4243H81.9259V9.97632L88.5039 18.4243H92.2439V3.02432H88.0199V11.1643L81.6839 3.02432H77.7019V18.4243ZM103.679 18.7323C106.473 18.7323 108.739 17.6983 110.367 16.3563V9.42632H103.283V12.5503H106.319V14.4203C105.681 14.8383 104.889 15.0583 103.855 15.0583C101.413 15.0583 99.6753 13.2763 99.6753 10.7903V10.7463C99.6753 8.39232 101.391 6.52232 103.613 6.52232C105.131 6.52232 106.231 7.05032 107.331 7.97432L109.839 4.96032C108.211 3.55232 106.297 2.71632 103.591 2.71632C98.8173 2.71632 95.2973 6.23632 95.2973 10.7243V10.7683C95.2973 15.4323 98.8833 18.7323 103.679 18.7323ZM1.78392 44.4243H6.05192V40.0243H8.16392C11.9919 40.0243 14.7859 38.1103 14.7859 34.4803V34.4363C14.7859 31.0263 12.2779 29.0243 8.38392 29.0243H1.78392V44.4243ZM6.05192 36.6803V32.6103H8.05392C9.59392 32.6103 10.5179 33.3143 10.5179 34.6343V34.6783C10.5179 35.8883 9.59392 36.6803 8.07592 36.6803H6.05192ZM24.6667 44.7103C29.0447 44.7103 31.8827 42.5323 31.8827 37.5603V29.0243H27.5487V37.6923C27.5487 39.8483 26.4267 40.8603 24.7107 40.8603C22.9947 40.8603 21.8727 39.8043 21.8727 37.5823V29.0243H17.5387V37.6703C17.5387 42.4883 20.2887 44.7103 24.6667 44.7103ZM35.5585 44.4243H47.2845V40.6843H39.8265V29.0243H35.5585V44.4243ZM62.7612 30.3773C60.4292 29.0903 58.6252 28.7493 56.5462 28.7493C52.9492 28.7493 50.3972 30.6413 50.3422 33.6333C50.2872 36.4053 52.0032 37.8353 55.1712 38.3303L55.9412 38.4513C57.9542 38.7593 58.9882 39.0233 58.9882 39.9473C58.9882 40.9043 57.9322 41.3773 56.5462 41.3773C54.3792 41.3773 52.7512 40.5633 51.5742 39.7603L49.7372 42.7523C51.4422 44.0393 53.9502 44.7103 56.5132 44.7103C59.8132 44.7103 62.9702 43.1813 62.9702 39.5183C62.9702 36.9993 61.0892 35.6023 58.0972 35.0853L57.4592 34.9753C55.7542 34.6783 54.2912 34.4473 54.2912 33.4793C54.2912 32.5663 55.3142 32.0933 56.7112 32.0933C58.5152 32.0933 60.0222 32.7313 61.1222 33.3913L62.7612 30.3773ZM66.3253 44.4243H78.8213V40.7943H70.5493V38.3523H77.9413V34.9863H70.5493V32.6543H78.7113V29.0243H66.3253V44.4243Z" fill="white"/>
</svg>
