<svg width="76" height="49" viewBox="0 0 76 49" fill="none" xmlns="http://www.w3.org/2000/svg">
<path fill-rule="evenodd" clip-rule="evenodd" d="M0.59082 31.4487V48.1819L15.6379 31.4487H11.6944L3.52314 40.5356V31.4487H0.59082Z" fill="#693DFF"/>
<path fill-rule="evenodd" clip-rule="evenodd" d="M0.594238 11.5757H3.46475V5.53256L6.15397 9.64192H6.2144L8.91872 5.50234V11.5757H11.8346V1.00017H8.73743L6.2144 5.09443L3.69137 1.00017H0.594238V11.5757ZM14.4977 11.5757H23.079V9.0829H17.3984V7.40592H22.4747V5.0944H17.3984V3.49296H23.0035V1.00015H14.4977V11.5757ZM25.3645 11.5757H33.9458V9.08293H28.2652V7.40594H33.3415V5.09443H28.2652V3.49298H33.8703V1.00017H25.3645V11.5757ZM38.8146 11.5757H41.7456V3.5685H44.9182V1.00015H35.642V3.5685H38.8146V11.5757ZM47.0525 11.5757H49.9985V1.00017H47.0525V11.5757ZM52.7222 11.5757H55.6229V5.77428L60.1402 11.5757H62.7085V1.00017H59.8078V6.59011L55.4567 1.00017H52.7222V11.5757ZM70.5591 11.7872C72.4778 11.7872 74.0339 11.0771 75.1519 10.1555V5.3965H70.2872V7.54183H72.3721V8.82601C71.9339 9.11306 71.39 9.26414 70.68 9.26414C69.003 9.26414 67.8095 8.04039 67.8095 6.33319V6.30298C67.8095 4.68643 68.9879 3.40225 70.5138 3.40225C71.5562 3.40225 72.3116 3.76484 73.067 4.39938L74.7893 2.32959C73.6713 1.36268 72.357 0.788574 70.4987 0.788574C67.2203 0.788574 64.803 3.20585 64.803 6.28787V6.31809C64.803 9.52097 67.2656 11.7872 70.5591 11.7872ZM0.594238 26.6837V16.1082H5.12663C7.80073 16.1082 9.52304 17.483 9.52304 19.8247V19.8549C9.52304 22.3478 7.60433 23.6621 4.97555 23.6621H3.52518V26.6837H0.594238ZM3.52515 21.3658H4.91508C5.95753 21.3658 6.59206 20.8219 6.59206 19.9909V19.9607C6.59206 19.0543 5.95753 18.5708 4.89997 18.5708H3.52515V21.3658ZM16.3106 26.8801C19.3171 26.8801 21.266 25.3844 21.266 21.97V16.1081H18.2898V22.0606C18.2898 23.5412 17.5193 24.2362 16.3408 24.2362C15.1624 24.2362 14.3919 23.511 14.3919 21.9851V16.1081H11.4157V22.0455C11.4157 25.3542 13.3041 26.8801 16.3106 26.8801ZM23.7932 26.6837H31.8458V24.1154H26.7242V16.1082H23.7932V26.6837ZM42.4708 17.0372C40.8693 16.1534 39.6305 15.9193 38.2028 15.9193C35.7326 15.9193 33.9801 17.2185 33.9423 19.2732C33.9045 21.1768 35.083 22.1588 37.2585 22.4988L37.7873 22.5819C39.1697 22.7934 39.8797 22.9747 39.8797 23.6092C39.8797 24.2664 39.1546 24.5912 38.2028 24.5912C36.7146 24.5912 35.5966 24.0322 34.7884 23.4808L33.5268 25.5355C34.6977 26.4193 36.42 26.8801 38.1801 26.8801C40.4463 26.8801 42.6143 25.8301 42.6143 23.3146C42.6143 21.5847 41.3225 20.6254 39.2679 20.2704L38.8297 20.1948C37.6589 19.9909 36.6542 19.8322 36.6542 19.1675C36.6542 18.5405 37.3567 18.2157 38.3161 18.2157C39.5549 18.2157 40.5898 18.6538 41.3452 19.107L42.4708 17.0372ZM44.9148 26.6837H53.4961V24.1909H47.8155V22.5139H52.8918V20.2024H47.8155V18.601H53.4206V16.1082H44.9148V26.6837Z" fill="#693DFF"/>
</svg>
