<?xml version="1.0" encoding="UTF-8"?><!DOCTYPE svg PUBLIC "-//W3C//DTD SVG 1.1//EN" "http://www.w3.org/Graphics/SVG/1.1/DTD/svg11.dtd"><svg xmlns="http://www.w3.org/2000/svg" xmlns:xlink="http://www.w3.org/1999/xlink"><defs>
        <path id="a" d="M0 0v19.453h19.453V0z"/>
    
        <path id="a" d="M19.597 19.788V0H0v19.788z"/>
    
        <linearGradient x1="0%" y1="50%" y2="50%" id="a">
            <stop stop-color="#5020FF" offset="0%"/>
            <stop stop-color="#E247F1" offset="100%"/>
        </linearGradient>
    
        <path id="b" d="M130.61 35.005C111.282 1.53 68.476-9.94 35.004 9.391 1.531 28.715-9.94 71.519 9.39 104.993c19.324 33.475 62.129 44.947 95.601 25.618 33.475-19.33 44.95-62.133 25.618-95.606zm-32.616 83.48c-26.776 15.464-61.022 6.288-76.482-20.493-15.464-26.776-6.284-61.023 20.492-76.48 26.778-15.464 61.022-6.288 76.483 20.492 15.462 26.78 6.285 61.02-20.493 76.48zm-2.8-51.33L58.548 45.781c-3.34-1.95-6.033-.391-6.015 3.472l.188 42.426c.017 3.862 2.744 5.434 6.093 3.5L95.181 74.18c3.346-1.93 3.353-5.076.014-7.026z"/>
        <filter id="a" width="134.3%" height="134.3%" x="-17.1%" y="-8.6%" filterUnits="objectBoundingBox">
            <feOffset dy="12" in="SourceAlpha" result="shadowOffsetOuter1"/>
            <feGaussianBlur in="shadowOffsetOuter1" result="shadowBlurOuter1" stdDeviation="6"/>
            <feColorMatrix in="shadowBlurOuter1" values="0 0 0 0 0 0 0 0 0 0 0 0 0 0 0 0 0 0 0.115687274 0"/>
        </filter>
    
        <linearGradient id="a" x1="0%" y1="50%" y2="50%">
            <stop offset="0%" stop-color="#8263FF"/>
            <stop offset="100%" stop-color="#5120FF"/>
        </linearGradient>
    
        <path id="a" d="M7.57 21.784H0V0h15.141v21.784z"/>
    
        <path id="a" d="M0 17.743V0h21.886v17.743z"/>
    </defs><symbol id="icon-arrow-down" viewBox="0 0 10 6">
    <path fill-rule="evenodd" d="M2.496 3.534L0 1.07 1.082 0l3.931 3.883L8.931.013 10 1.069 7.504 3.534A628.796 628.796 0 0 1 5 6c-.004 0-1.13-1.11-2.504-2.466z"/>
</symbol><symbol id="icon-arrow-right" viewBox="0 0 7 12">
    <g fill-rule="evenodd" stroke-linecap="square" opacity=".4">
        <path d="M.603.333l5.375 5.375"/>
        <path d="M5.937 5.757L.562 11.132"/>
    </g>
</symbol><symbol id="icon-check-no" viewBox="0 0 15 15">
    <path d="M.767 1.31l.848-.849 12.924 12.924-.849.848z"/>
    <path d="M13.69.461l.849.848L1.615 14.233l-.848-.849z"/>
</symbol><symbol id="icon-check-yes" viewBox="0 0 24 17">
    <path fill-rule="evenodd" d="M23.596 1.462L22.133 0 8.193 13.94 1.462 7.208 0 8.635l8.193 8.195z"/>
</symbol><symbol id="icon-cloud" viewBox="0 0 40 30">
    <path fill-rule="evenodd" d="M34.633 10.991a10.808 10.808 0 0 0-3.287-7.67 10.805 10.805 0 0 0-15.388.37 7.979 7.979 0 0 0-2.04-.26 8.134 8.134 0 0 0-7.982 6.75 10.132 10.132 0 0 0-3.78 15.467 10.13 10.13 0 0 0 7.952 3.883h18.9A10.122 10.122 0 0 0 39.05 18.088a10.12 10.12 0 0 0-4.417-7.096v-.001zm-5.625 14.94h-18.9a6.528 6.528 0 0 1-5.301-2.71 6.528 6.528 0 0 1 3.363-10.05 1.799 1.799 0 0 0 1.263-1.695 4.5 4.5 0 0 1 4.5-4.445c.645 0 1.282.138 1.867.41a1.799 1.799 0 0 0 2.21-.58 7.2 7.2 0 0 1 12.989 4.953c-.083.743.303 1.46.97 1.8a6.52 6.52 0 0 1-2.96 12.317z" opacity=".5"/>
</symbol><symbol id="icon-diagram" viewBox="0 0 33 33">
    <g fill-rule="evenodd">
        <path d="M27.232.371l-4.919 7.186h2.194V32.02h5.452V7.557h2.192z"/>
        <path d="M16.327 9.01l-4.919 7.185H13.6V32.02h5.453V16.195h2.193z"/>
        <path d="M5.42 16.195L.502 23.381h2.193v8.639h5.452v-8.639h2.193z"/>
    </g>
</symbol><symbol id="icon-entry" viewBox="-295.6 389 14.6 14">
    <style>
        .st0{opacity:.3}
    </style>
    <g class="st0">
        <path d="M-292 389v3.5h1.9v-1.6h6.3v10.2h-6.3v-1.6h-1.9v3.5h10.1v-14z" transform="translate(.873 .01)"/>
        <path d="M-285.1 396.5s.1 0 0 0c0-.1.1-.1.1-.2v-.1-.1-.4-.1c0-.1 0-.1-.1-.2v-.1c0-.1-.1-.1-.1-.1l-2.4-2.4c-.4-.4-1-.3-1.3 0-.4.4-.4 1 0 1.3l.8.8h-7.3c-.5 0-1 .4-1 1s.4 1 1 1h7.3l-.8.8c-.2.2-.3.4-.3.7 0 .3.1.5.3.7s.4.3.7.3c.3 0 .5-.1.7-.3l2.4-2.4v-.2z" transform="translate(.873 .01)"/>
    </g>
</symbol><symbol id="icon-fb" viewBox="0 0 20 20">
    
    <g fill-rule="evenodd" opacity=".7">
        <mask id="b">
            <use xlink:href="#a"/>
        </mask>
        <path d="M18.38 0H1.073C.48 0 0 .48 0 1.073V18.38c0 .593.48 1.073 1.073 1.073h9.318v-7.542H7.846V8.985h2.546V6.82c0-2.513 1.533-3.874 3.775-3.874 1.074 0 1.997.073 2.266.108v2.628h-1.555c-1.22 0-1.447.578-1.447 1.429v1.875h2.9l-.38 2.926h-2.52v7.542h4.95c.592 0 1.072-.48 1.072-1.073V1.073C19.453.48 18.973 0 18.38 0" mask="url(#b)"/>
    </g>
</symbol><symbol id="icon-google" viewBox="0 0 32 20">
    <path d="M.051 9.353C.136 4.281 4.8-.16 9.871.008c2.43-.113 4.715.945 6.577 2.43a35.055 35.055 0 0 1-2.496 2.586c-2.238-1.547-5.42-1.989-7.658-.202-3.201 2.214-3.347 7.441-.268 9.824 2.994 2.718 8.654 1.369 9.482-2.792-1.876-.028-3.757 0-5.632-.06-.005-1.12-.01-2.239-.005-3.357 3.136-.01 6.271-.015 9.411.01.188 2.632-.16 5.433-1.777 7.61-2.449 3.446-7.366 4.452-11.202 2.975C2.453 17.566-.273 13.5.051 9.353m25.347-3.742h2.797c.005.936.01 1.876.019 2.811.935.01 1.876.01 2.811.02v2.797c-.935.009-1.87.014-2.811.023-.01.94-.014 1.875-.019 2.811h-2.802c-.009-.936-.009-1.871-.018-2.806-.936-.01-1.876-.02-2.811-.028V8.442c.935-.01 1.87-.015 2.81-.02.005-.94.015-1.875.024-2.81" fill-rule="evenodd" opacity=".71"/>
</symbol><symbol id="icon-hand" viewBox="0 0 30 42">
    <path fill-rule="evenodd" d="M11.862.6c-4.81 0-8.74 3.929-8.74 8.74a8.733 8.733 0 0 0 3.68 7.115v-3.939a5.963 5.963 0 0 1-.92-3.177 5.96 5.96 0 0 1 5.98-5.98 5.96 5.96 0 0 1 5.98 5.98c0 1.17-.343 2.257-.92 3.177v3.939c2.226-1.589 3.68-4.187 3.68-7.116 0-4.81-3.93-8.74-8.74-8.74zm0 5.52c-2.27 0-4.14 1.87-4.14 4.14v11.183c-.683-.915-1.427-1.614-2.3-1.855-1.197-.329-2.268.1-2.99.518-.873.693-1.635 1.232-1.94 2.343-.288 1.047-.076 2.176.43 3.479 2.426 5.809 5.362 11.442 8.985 15.596a1.4 1.4 0 0 0 1.035.475h12.42c.293 0 .584-.1.819-.273 1.441-1.068 2.517-2.798 3.421-4.83.904-2.033 1.587-4.388 1.94-6.685.355-2.296.382-4.567-.143-6.44-.534-1.903-1.94-3.606-4.04-3.852-.355-.01-.738.048-1.049.086a3.447 3.447 0 0 0-1.035-1.222 3.676 3.676 0 0 0-2.242-.704c-.485.009-.927.172-1.351.402-.171-.203-.308-.461-.503-.603a3.76 3.76 0 0 0-2.257-.72c-.315 0-.618.05-.92.116v-7.015c0-2.27-1.87-4.14-4.14-4.14zm0 2.76c.789 0 1.38.59 1.38 1.38v9.66a1.423 1.423 0 0 0 1.078 1.35 1.424 1.424 0 0 0 1.552-.762c.502-.65 1.025-.636 1.682-.402.166.12.288.189.288.733-.002.618.463 1.21 1.064 1.351.6.142 1.277-.18 1.552-.733.36-.745.593-.654 1.222-.417.189.135.302.2.302.72a1.41 1.41 0 0 0 .833 1.25c.487.212 1.091.115 1.481-.245.015.03.615-.163.834-.086.855.13 1.274.618 1.624 1.854.363 1.282.387 3.22.072 5.262a24.449 24.449 0 0 1-1.754 5.98c-.72 1.617-1.586 2.826-2.3 3.464h-11.14C9.058 35.755 3.123 26.383 3.15 23.197c.374-.613.954-1.012 1.538-.949.732.37.913.75 1.352 1.538l1.825 3.651c.275.554.953.875 1.553.734.6-.142 1.065-.734 1.063-1.352V10.26c0-.788.592-1.38 1.38-1.38z"/>
</symbol><symbol id="icon-in" viewBox="0 0 20 20">
    
    <g fill-rule="evenodd" opacity=".7">
        <mask id="b">
            <use xlink:href="#a"/>
        </mask>
        <path d="M10.519 8.925l.02-.03v.03h-.02zm6.094 2.516c0-2.745-1.46-4.022-3.407-4.022-1.571 0-2.274.867-2.668 1.475V7.63h-2.96c.039.838 0 8.935 0 8.935h2.96v-4.99c0-.267.02-.533.097-.724.215-.534.702-1.087 1.52-1.087 1.07 0 1.499.82 1.499 2.02v4.78h2.96v-5.122zM4.48 3.321c-1.012 0-1.675.668-1.675 1.544 0 .858.642 1.544 1.636 1.544h.02c1.031 0 1.674-.686 1.674-1.544-.02-.876-.643-1.543-1.655-1.543zm-1.5 13.243h2.96V7.629H2.98v8.935zm15.169 3.224H1.448c-.8 0-1.448-.636-1.448-1.418V1.418C0 .635.648 0 1.448 0h16.7c.8 0 1.45.635 1.45 1.418V18.37c0 .782-.65 1.418-1.45 1.418z" mask="url(#b)"/>
    </g>
</symbol><symbol id="icon-logo" viewBox="0 0 22 25">
    <path d="M4.436.1V13.33L16.334.1h5.743L.166 24.466V.099h4.27z"/>
</symbol><symbol id="icon-main-1" viewBox="0 0 55 54">
    <path fill-rule="evenodd" d="M50.093 33.604C51.68 22.656 45.34 12.867 35.977 9.12 36.123 3.932 32.089.19 27.335.19c-4.608 0-8.788 3.748-8.642 8.93C9.331 12.865 2.997 22.514 4.577 33.603.11 35.911-1.184 41.38 1.123 45.56c2.447 4.175 7.921 5.615 11.955 3.027 8.355 6.628 20.018 6.481 28.373 0 4.32 2.594 9.649 1.007 11.956-3.027 2.447-3.888 1.44-9.362-3.314-11.956zM27.335 3.071c3.167 0 5.761 2.594 5.761 5.762 0 3.167-2.594 5.76-5.761 5.76-3.168 0-5.761-2.593-5.761-5.76 0-3.168 2.593-5.762 5.76-5.762zM3.57 44.12c-1.587-2.734-.574-6.335 2.16-7.922.867-.574 1.874-.72 2.881-.72 5.908 0 7.922 7.775 2.88 10.802-2.734 1.587-6.334.574-7.921-2.16zm11.81 2.594c4.894-6.195-.147-15.124-7.922-13.97-1.008-9.362 4.174-17.284 11.955-20.738 1.294 3.168 4.321 5.475 8.068 5.475s6.768-2.307 8.068-5.475c7.922 3.455 13.11 11.67 11.956 20.738-7.775-1.154-12.963 7.775-8.068 13.97a20.558 20.558 0 0 1-24.057 0zM51.1 44.12c-1.586 2.734-5.187 3.747-7.922 2.16-6.627-3.747-.866-13.829 5.762-9.935 2.734 1.44 3.747 5.04 2.16 7.775z"/>
</symbol><symbol id="icon-main-2" viewBox="0 0 38 50">
    <g fill-rule="evenodd">
        <path d="M37.03 8.454c0-4.405-3.601-8.007-8.006-8.007H8.34C3.936.447.334 4.049.334 8.454v33.36c0 4.405 3.602 8.007 8.006 8.007h20.684c4.405 0 8.007-3.602 8.007-8.007V8.454zm-2.668 33.36c0 2.935-2.403 5.338-5.338 5.338H8.34c-2.934 0-5.338-2.403-5.338-5.338V8.454c0-2.935 2.404-5.338 5.338-5.338h20.684c2.935 0 5.338 2.403 5.338 5.338v33.36z"/>
        <path d="M18.348 20.596c-6.937 0-12.609 5.672-12.609 12.545s5.672 12.544 12.61 12.544c6.937 0 12.609-5.606 12.609-12.544 0-6.939-5.672-12.545-12.61-12.545zm0 22.42c-5.47 0-9.94-4.47-9.94-9.875 0-5.471 4.47-9.876 9.94-9.876s9.94 4.405 9.94 9.876c0 5.47-4.47 9.875-9.94 9.875zm0-24.22c3.936 0 7.074-3.136 7.074-7.006s-3.203-7.006-7.074-7.006c-3.87 0-7.073 3.135-7.073 7.006 0 3.87 3.138 7.005 7.073 7.005zm0-11.343c2.404 0 4.405 1.934 4.405 4.337 0 2.403-2.001 4.337-4.405 4.337-2.403 0-4.404-1.934-4.404-4.337 0-2.403 2.001-4.337 4.404-4.337z"/>
        <path d="M18.348 28.004c-3.002 0-5.47 2.468-5.47 5.47 0 3.003 2.468 5.471 5.47 5.471 3.003 0 5.471-2.468 5.471-5.47 0-3.003-2.468-5.471-5.47-5.471zm0 8.34a2.818 2.818 0 0 1-2.801-2.802 2.818 2.818 0 0 1 2.801-2.802 2.818 2.818 0 0 1 2.802 2.802 2.82 2.82 0 0 1-2.802 2.802z"/>
    </g>
</symbol><symbol id="icon-main-3" viewBox="0 0 55 55">
    <g fill-rule="evenodd">
        <path d="M27.35 33.699c-3.36 0-6.095-2.728-6.095-6.08s2.735-6.08 6.094-6.08c3.36 0 6.094 2.728 6.094 6.08s-2.735 6.08-6.094 6.08zm0-9.786a3.716 3.716 0 0 0-3.716 3.708 3.714 3.714 0 0 0 3.715 3.706 3.714 3.714 0 0 0 3.716-3.706 3.715 3.715 0 0 0-3.716-3.708z"/>
        <path d="M26.16 32.512h2.379V53.72H26.16z"/>
        <path d="M32.734 39.839l-.96-2.173a10.98 10.98 0 0 0 6.574-10.044c0-6.052-4.933-10.973-11-10.973-6.065 0-10.999 4.923-10.999 10.973 0 4.349 2.581 8.293 6.574 10.044l-.96 2.173a13.356 13.356 0 0 1-7.992-12.218c0-7.36 6.001-13.347 13.378-13.347 7.376 0 13.378 5.988 13.378 13.347a13.36 13.36 0 0 1-7.994 12.218z"/>
        <path d="M32.555 47.42l-.603-2.297c7.965-2.08 13.53-9.278 13.53-17.501 0-9.976-8.136-18.093-18.133-18.093-10 0-18.133 8.116-18.133 18.093 0 8.223 5.562 15.422 13.53 17.501l-.603 2.296c-9.012-2.355-15.306-10.496-15.306-19.8 0-11.283 9.202-20.464 20.512-20.464s20.512 9.18 20.512 20.464c0 9.305-6.293 17.445-15.306 19.8z"/>
        <path d="M32.478 54.425l-.444-2.331c11.756-2.225 20.289-12.52 20.289-24.475C52.32 13.882 41.119 2.705 27.35 2.705c-13.77 0-24.97 11.178-24.97 24.914 0 11.956 8.532 22.25 20.288 24.475l-.446 2.33C9.347 51.988 0 40.715 0 27.62 0 12.575 12.27.334 27.35.334c15.079 0 27.348 12.24 27.348 27.285 0 13.096-9.346 24.368-22.22 26.806h-.001z"/>
    </g>
</symbol><symbol id="icon-main-4" viewBox="0 0 55 62">
    <g fill-rule="evenodd">
        <path d="M49.709 6.513H28.645V1.738c0-.593-.48-1.077-1.074-1.077-.595 0-1.075.484-1.075 1.077v4.775H5.432a4.582 4.582 0 0 0-4.575 4.575c0 1.733.964 3.298 2.512 4.084l.37.189v25.488a2.83 2.83 0 0 0 2.826 2.826h19.931v5.109l-13.92 10.375a1.076 1.076 0 0 0-.22 1.504 1.102 1.102 0 0 0 1.506.222L26.5 51.468v8.555a1.075 1.075 0 0 0 2.148 0v-8.555l12.637 9.417c.465.342 1.161.24 1.506-.222.172-.23.243-.513.2-.796a1.067 1.067 0 0 0-.422-.708L28.647 48.784v-5.109H48.58a2.83 2.83 0 0 0 2.826-2.826l-.005-25.488.369-.189a4.56 4.56 0 0 0 2.514-4.084 4.579 4.579 0 0 0-4.575-4.575zm-.458 35.01H5.887V15.665h43.364v25.856zm.458-28.008H5.43a2.43 2.43 0 0 1-2.426-2.424A2.43 2.43 0 0 1 5.43 8.664h44.28a2.43 2.43 0 0 1 2.427 2.427 2.432 2.432 0 0 1-2.43 2.424z"/>
        <path d="M16.838 35.098l5.017-5.016 4.49 4.49a1.09 1.09 0 0 0 1.499.04l11.969-11.971c.43-.43.43-1.11.012-1.53a1.103 1.103 0 0 0-1.52.003L27.111 32.306l-4.5-4.504a1.085 1.085 0 0 0-.762-.314c-.286 0-.557.11-.76.314l-5.774 5.779a1.076 1.076 0 0 0 0 1.52c.406.401 1.114.401 1.522-.002z"/>
    </g>
</symbol><symbol id="icon-minus" viewBox="0 0 79 46">
    <title>
        Group 10
    </title>
    
    <g transform="translate(.276 .776)" fill-rule="evenodd">
        <path d="M77.659 34.012H.26v11.1h77.898v-11.1z"/>
        <path d="M77.659 0H.26v11.1h77.898V0z"/>
    </g>
</symbol><symbol id="icon-phone" viewBox="0 0 25 39">
    <path fill-rule="evenodd" d="M4.122.898C2.313.898.818 2.393.818 4.2v31.383c0 1.808 1.495 3.303 3.304 3.303h17.343c1.808 0 3.303-1.495 3.303-3.303V4.201c0-1.808-1.495-3.303-3.303-3.303H4.122zm0 2.477h17.343c.479 0 .805.347.826.826v.826H3.296v-.826c0-.479.347-.826.826-.826zm-.826 4.13H22.29v22.298H3.296V7.505zm0 24.776H22.29v3.303c0 .48-.347.826-.826.826H4.122c-.48 0-.836-.347-.826-.826v-3.303zm6.607.825a1.24 1.24 0 0 0 0 2.478h5.78a1.24 1.24 0 0 0 0-2.478h-5.78z"/>
</symbol><symbol id="icon-play" viewBox="0 0 164 164">
    
    <g transform="translate(12)">
        <use filter="url(#a)" xlink:href="#b"/>
        <use fill-rule="evenodd" xlink:href="#b"/>
    </g>
</symbol><symbol id="icon-plus" viewBox="0 0 76 76">
    
    <path fill-rule="evenodd" d="M432.76 986.29v-32.101h-10.97v32.103h-32.103v10.97h32.104v32.103h10.97V997.26h32.103v-10.97H432.76z" transform="translate(-389 -954)"/>
</symbol><symbol id="icon-quality-1" viewBox="0 0 31 31">
    <g fill-rule="evenodd">
        <path d="M11.12 31c-.232 0-.464-.04-.697-.156-.504-.273-.775-.82-.736-1.406l.155-5.23-7.13-.002A2.707 2.707 0 0 1 0 21.473V2.733A2.707 2.707 0 0 1 2.712 0h25.576C29.798 0 31 1.21 31 2.733v18.74a2.707 2.707 0 0 1-2.712 2.733h-9.61l-6.355 6.286c-.35.313-.775.508-1.202.508zM2.713 2.264c-.233 0-.387.156-.387.39v18.74c0 .236.154.391.387.391h9.494l-.154 5.621 5.658-5.62h10.578c.233 0 .387-.156.387-.391V2.655c0-.235-.154-.39-.387-.39H2.712z"/>
        <path d="M8.58 15.942a2.994 2.994 0 0 1-3.522-3.522c.226-1.163 1.163-2.136 2.362-2.362a2.994 2.994 0 0 1 3.522 3.522 3.167 3.167 0 0 1-2.362 2.362zm7 0a2.994 2.994 0 0 1-3.522-3.522c.226-1.163 1.163-2.136 2.362-2.362a2.994 2.994 0 0 1 3.522 3.522 3.167 3.167 0 0 1-2.362 2.362zm7 0a2.994 2.994 0 0 1-3.522-3.522c.226-1.163 1.163-2.136 2.362-2.362a2.994 2.994 0 0 1 3.522 3.522 3.167 3.167 0 0 1-2.362 2.362z"/>
    </g>
</symbol><symbol id="icon-quality-2" viewBox="0 0 30 30">
    <path fill-rule="evenodd" d="M29.412 30H.588A.589.589 0 0 1 0 29.412V.588C0 .264.264 0 .588 0h1.177a.589.589 0 0 1 .588.588v27.059h27.059a.589.589 0 0 1 .588.588v1.177a.589.589 0 0 1-.588.588zM10 4.118H6.47h.001a.587.587 0 0 0-.588.588v20a.584.584 0 0 0 .588.588h3.53H10a.589.589 0 0 0 .588-.588v-20A.589.589 0 0 0 10 4.118zm8.234 10.588h-3.53.002a.589.589 0 0 0-.589.588v9.412a.589.589 0 0 0 .589.588h3.53a.589.589 0 0 0 .588-.588v-9.412a.589.589 0 0 0-.588-.588h-.002zm8.235-5.883h-3.53.001a.588.588 0 0 0-.587.589v15.294a.584.584 0 0 0 .587.588h3.53a.589.589 0 0 0 .589-.588V9.412a.591.591 0 0 0-.589-.589z"/>
</symbol><symbol id="icon-quality-3" viewBox="0 0 37 30">
    <path fill-rule="evenodd" d="M30.489 13.86l-5.365 7.885L18.446 0 11.35 18.219l-6.295-5.262H0v3.648h3.757l9.125 7.635 5.158-13.254L23.879 30l8.508-12.492H37V13.86z"/>
</symbol><symbol id="icon-quality-4" viewBox="0 0 32 37">
    <path fill-rule="evenodd" d="M16.002 0c-.242 0-.483.064-.7.19L.7 8.73c-.432.252-.7.722-.7 1.228V27.04c0 .507.268.974.7 1.228l14.57 8.521c.164.102.35.17.548.197l.007.001.074.008.018.001c.028.002.055.003.084.003l.084-.003.021-.001.067-.008a1.379 1.379 0 0 0 .526-.18c.01-.003.018-.009.025-.013l.003-.002L31.3 28.27c.435-.253.7-.722.7-1.228V9.958c0-.508-.265-.974-.7-1.229L16.702.19a1.394 1.394 0 0 0-.7-.189zm0 3.057l11.831 6.92-11.83 6.92-11.835-6.92 11.834-6.919v-.001zm-.111 4.68h.001c-1.202 0-2.178.647-2.178 1.445 0 .383.23.75.638 1.021.408.27.963.422 1.54.422.578 0 1.132-.151 1.54-.422.409-.271.637-.638.637-1.021 0-.798-.974-1.444-2.177-1.444l-.001-.002zM2.8 12.451L14.6 19.355V33.12L2.8 26.22V12.452zm26.4 0V26.22L17.4 33.12V19.352L29.2 12.451v.001zm-2.247 3.063l.002.001c-.637-.033-1.384.442-1.883 1.2-.67 1.013-.68 2.192-.027 2.636.315.212.743.222 1.192.029.45-.194.882-.576 1.203-1.063.667-1.013.68-2.192.025-2.636a1.018 1.018 0 0 0-.51-.166l-.002-.001zM5.801 16.536l.002.002a1.055 1.055 0 0 0-.427.06c-.743.264-1.053 1.317-.693 2.352.36 1.033 1.255 1.656 1.997 1.39.357-.127.63-.446.76-.888.13-.441.106-.967-.068-1.464-.285-.821-.922-1.41-1.57-1.45v-.002zm4.625 2.342l.001.001a1.08 1.08 0 0 0-.426.058c-.357.129-.63.448-.76.889-.13.442-.106.968.068 1.465.173.497.48.924.854 1.184.376.262.786.337 1.143.21.357-.128.63-.447.759-.89.13-.44.105-.968-.067-1.465-.287-.82-.923-1.409-1.57-1.45l-.002-.002zm13.443 2.113l.001.001c-.637-.035-1.385.44-1.884 1.197-.321.487-.504 1.039-.508 1.533-.006.494.17.892.484 1.106.656.444 1.729-.019 2.396-1.032.67-1.013.68-2.194.024-2.638a.995.995 0 0 0-.512-.166l-.001-.001zm-17.964 1.8l.002.002c-.147-.01-.291.01-.427.058-.742.266-1.051 1.32-.692 2.354.361 1.035 1.256 1.658 1.997 1.393.744-.266 1.053-1.32.692-2.354-.285-.821-.923-1.41-1.57-1.451l-.002-.002zm4.52 2.426v.001a1.033 1.033 0 0 0-.426.058c-.741.264-1.05 1.318-.69 2.353.36 1.035 1.254 1.659 1.996 1.393.741-.265 1.05-1.318.691-2.353-.286-.822-.923-1.41-1.57-1.451l-.002-.001zm10.491 1.338h.001c-.636-.033-1.383.442-1.883 1.2-.322.487-.504 1.039-.509 1.533-.005.494.169.892.482 1.104.655.444 1.726-.02 2.395-1.033.67-1.015.68-2.196.028-2.638a.995.995 0 0 0-.513-.166h-.001z"/>
</symbol><symbol id="icon-quality-5" viewBox="-289 379 32 36">
    <style>
        .st0{fill:#cfcfcf}
    </style>
    <path class="st0" d="M-288.9 384h1.7c1.1 0 2.2-.2 3.3-.4 1-.3 2-.7 2.9-1.2 1-.5 1.9-1 2.9-1.5 1.4-.7 2.9-1.1 4.4-1.2 2.1-.1 4.2.3 6 1.2.9.4 1.8.9 2.6 1.4 1.1.6 2.2 1 3.4 1.4.9.2 1.8.3 2.7.3H-257.1v.1c0 1.2 0 2.4-.1 3.6l-.3 3.3c-.2 1.8-.6 3.6-1 5.3-.7 2.8-1.9 5.5-3.4 8-1.9 3.2-4.5 6-7.5 8.1-1.1.8-2.3 1.4-3.5 1.9h-.2c-1.6-.7-3.2-1.6-4.6-2.7-1.8-1.4-3.5-3.1-4.9-5-1.6-2.2-2.9-4.6-3.9-7.1-.8-2-1.4-4.1-1.7-6.2-.3-1.6-.5-3.1-.6-4.7-.1-1.5-.1-3-.1-4.5v-.1zm28.9 2.9l-.7-.1c-1.6-.2-3.2-.7-4.7-1.4-1-.5-1.9-1-2.9-1.5-1.3-.7-2.7-1.1-4.1-1.2-1-.1-2.1.1-3.1.3-.9.3-1.7.7-2.5 1.1-.9.5-1.9 1-2.9 1.5-1.4.7-2.9 1.1-4.4 1.3l-.7.1v.2c0 .7.1 1.4.1 2.2.1 1.5.3 3 .7 4.5.4 2.1 1.1 4.1 1.9 6 1.1 2.5 2.5 4.8 4.3 6.8 1.7 1.9 3.6 3.5 5.8 4.7.1.1.2.1.3 0 1.8-.9 3.4-2.1 4.8-3.6 1.7-1.7 3.2-3.7 4.4-5.8 1.8-3.4 2.9-7.1 3.4-10.9.1-.9.2-1.7.3-2.6v-1.6z"/>
    <path class="st0" d="M-280.9 389.6h.9c.5 0 1.1-.1 1.6-.2s1-.4 1.5-.6c.5-.2.9-.5 1.4-.7.7-.3 1.4-.5 2.2-.6 1-.1 2.1.1 3 .6.4.2.9.5 1.3.7.5.3 1.1.5 1.7.7.4.1.9.2 1.3.2h1V391.6c0 .5-.1 1.1-.1 1.7-.1.9-.3 1.8-.5 2.6-.4 1.4-.9 2.7-1.7 4-.9 1.6-2.2 2.9-3.7 4-.5.4-1.1.7-1.7 1h-.1c-.8-.3-1.6-.8-2.3-1.4-.9-.7-1.7-1.5-2.4-2.5-.8-1.1-1.5-2.3-1.9-3.5-.4-1-.7-2-.9-3.1-.1-.8-.2-1.6-.3-2.3-.2-.9-.2-1.7-.3-2.5 0 .1 0 .1 0 0zm14.3 1.4h-.4c-.8-.1-1.6-.3-2.3-.7-.5-.2-1-.5-1.4-.7-.6-.4-1.3-.6-2-.6-.5 0-1 0-1.5.2-.4.1-.9.3-1.2.5-.5.2-.9.5-1.4.7-.7.3-1.4.5-2.2.6h-.4v.1c0 .4 0 .7.1 1.1.1.8.2 1.5.3 2.2.2 1 .5 2 .9 3 .5 1.2 1.3 2.4 2.1 3.4.8.9 1.8 1.7 2.9 2.3h.1c.9-.5 1.7-1.1 2.4-1.8.9-.8 1.6-1.8 2.2-2.9.9-1.7 1.5-3.5 1.7-5.4.1-.4.1-.8.1-1.3v-.7z"/>
</symbol><symbol id="icon-quality-6" viewBox="0 0 31 31">
    <g fill-rule="evenodd">
        <path d="M29.5 14a1.5 1.5 0 0 0-1.5 1.5C28 22.392 22.392 28 15.5 28 8.608 28 3 22.392 3 15.5 3 8.607 8.608 3 15.5 3a1.5 1.5 0 0 0 0-3C6.953 0 0 6.953 0 15.5S6.953 31 15.5 31 31 24.047 31 15.5a1.5 1.5 0 0 0-1.5-1.5z"/>
        <path d="M16.3 10.548c-.427.623-.663 1.312-.824 1.955a3 3 0 1 0 2.8 1.87c.532-.396 1.077-.88 1.49-1.514.445-.718.664-1.657 1.066-2.472.385-.826.786-1.643 1.115-2.437.346-.785.645-1.533.906-2.173.512-1.283.812-2.165.812-2.165a.207.207 0 0 0-.332-.223s-.697.618-1.686 1.585c-.49.486-1.065 1.052-1.657 1.673-.608.609-1.207 1.294-1.822 1.968-.595.682-1.377 1.244-1.869 1.933z"/>
    </g>
</symbol><symbol id="icon-quality-7" viewBox="0 0 29 41">
    <path fill-rule="evenodd" d="M11.328 0c-4.738 0-8.61 3.892-8.61 8.656 0 2.9 1.433 5.474 3.626 7.047v-3.901a5.929 5.929 0 0 1-.906-3.146c0-3.287 2.62-5.923 5.89-5.923 3.27 0 5.89 2.636 5.89 5.923a5.929 5.929 0 0 1-.906 3.146v3.9a8.663 8.663 0 0 0 3.625-7.046c0-4.764-3.87-8.656-8.609-8.656zm0 5.467c-2.235 0-4.078 1.852-4.078 4.1v11.075c-.673-.905-1.405-1.598-2.266-1.836-1.178-.326-2.233.098-2.945.512-.86.687-1.61 1.221-1.911 2.32-.284 1.038-.075 2.156.424 3.446 2.39 5.753 5.282 11.332 8.85 15.446.253.292.634.468 1.02.47h12.234c.288 0 .575-.098.807-.27 1.42-1.058 2.48-2.771 3.37-4.784.89-2.013 1.563-4.345 1.912-6.62.348-2.274.375-4.523-.142-6.377-.526-1.885-1.911-3.572-3.979-3.816-.35-.01-.727.048-1.033.086a3.409 3.409 0 0 0-1.02-1.21 3.608 3.608 0 0 0-2.209-.698c-.478.009-.913.17-1.33.399-.17-.201-.304-.458-.497-.598a3.69 3.69 0 0 0-2.223-.712c-.31 0-.609.048-.906.114V9.567c0-2.248-1.842-4.1-4.078-4.1zm0 2.733c.777 0 1.36.586 1.36 1.367v9.566c-.002.618.463 1.203 1.061 1.339.599.135 1.27-.196 1.53-.755.494-.644 1.009-.63 1.656-.398.163.119.284.186.284.726-.002.612.456 1.197 1.048 1.338.59.14 1.258-.178 1.529-.726.354-.739.584-.648 1.203-.413.186.133.298.197.298.712.003.525.341 1.028.821 1.238.48.21 1.074.114 1.459-.242.014.03.605-.162.82-.085.843.128 1.256.612 1.6 1.836.358 1.27.381 3.19.072 5.211a24.311 24.311 0 0 1-1.728 5.922c-.71 1.602-1.563 2.8-2.265 3.431H11.1c-2.534-3.45-8.38-12.732-8.354-15.887.368-.607.94-1.002 1.515-.94.72.367.9.742 1.331 1.523l1.798 3.616c.271.548.938.867 1.53.726.59-.14 1.05-.726 1.047-1.338v-16.4c0-.781.583-1.367 1.36-1.367z"/>
</symbol><symbol id="icon-quality-8" viewBox="0 0 32 32">
    <g fill-rule="evenodd">
        <path d="M26.729 0l-4.918 7.186h2.193v24.462h5.452V7.186h2.193z"/>
        <path d="M15.824 8.639l-4.919 7.185h2.193v15.824h5.453V15.824h2.192z"/>
        <path d="M4.917 15.824L0 23.01h2.192v8.638h5.452V23.01h2.194z"/>
    </g>
</symbol><symbol id="icon-review" viewBox="0 0 16 16">
    <path fill-rule="evenodd" d="M10.28 15.42c.117 0 .232-.02.349-.077a.721.721 0 0 0 .367-.697l-.077-2.594h3.561c.755 0 1.355-.6 1.355-1.355V1.406c0-.755-.6-1.355-1.355-1.355H1.706C.95.051.35.651.35 1.406v9.29c0 .755.6 1.356 1.355 1.356h4.8l3.174 3.116a.924.924 0 0 0 .6.252zm4.2-14.246c.117 0 .194.077.194.193v9.291c0 .116-.077.194-.194.194H9.738l.077 2.786-2.826-2.786H1.705c-.116 0-.193-.078-.193-.194v-9.29c0-.117.077-.194.193-.194H14.48z" opacity=".7"/>
</symbol><symbol id="icon-shield" viewBox="0 0 17 20">
    <path d="M11.672 2.293A12.017 12.017 0 0 1 8.666.666a.578.578 0 0 0-.679 0 12.02 12.02 0 0 1-3.006 1.627 12.716 12.716 0 0 1-4.25.78c-.255.004-.468.176-.504.407C-.1 5.501-.72 11.75 3.785 16.704c1.328 1.461 2.8 2.478 4.095 3.183a.94.94 0 0 0 .893 0c1.295-.705 2.766-1.722 4.095-3.183 4.505-4.954 3.885-11.203 3.56-13.224a.505.505 0 0 0-.505-.406 12.716 12.716 0 0 1-4.25-.78z" fill-rule="evenodd"/>
</symbol><symbol id="icon-slider" viewBox="0 0 33 33">
    <path d="M12.931 3.677C12.296 1.77 10.548.5 8.482.5S4.668 1.77 4.032 3.677H.538v3.178h3.496c.635 1.907 2.383 3.178 4.449 3.178s3.814-1.271 4.45-3.178h19.385V3.677H12.93zM8.482 6.855c-.953 0-1.589-.635-1.589-1.589 0-.953.636-1.589 1.589-1.589s1.589.636 1.589 1.59c0 .953-.636 1.588-1.589 1.588zm15.89 4.767c-2.066 0-3.814 1.271-4.45 3.178H.538v3.178h19.386c.635 1.907 2.383 3.178 4.449 3.178s3.814-1.271 4.45-3.178h3.495V14.8H28.82c-.635-1.907-2.383-3.178-4.45-3.178zm0 6.356c-.953 0-1.59-.636-1.59-1.589s.637-1.589 1.59-1.589c.953 0 1.589.636 1.589 1.59 0 .952-.636 1.588-1.59 1.588zm-15.89 4.767c-2.066 0-3.814 1.271-4.45 3.178H.538v3.178h3.496c.635 1.907 2.383 3.178 4.449 3.178s3.814-1.271 4.45-3.178h19.385v-3.178H12.93c-.635-1.907-2.383-3.178-4.449-3.178zm0 6.356c-.953 0-1.589-.636-1.589-1.589s.636-1.589 1.589-1.589 1.589.636 1.589 1.59c0 .952-.636 1.588-1.589 1.588z" fill-rule="evenodd"/>
</symbol><symbol id="icon-social" viewBox="0 0 16 22">
    
    <g fill-rule="evenodd" opacity=".7">
        <mask id="b">
            <use xlink:href="#a"/>
        </mask>
        <path d="M13.55 1.69a.618.618 0 0 0-.515-.239c-.278 0-.562.232-.85.696-.29.464-.608 1.21-.956 2.237L9.736 8.708l1.881.329a107.179 107.179 0 0 0 1.56-4.496c.374-1.182.56-1.908.56-2.177 0-.29-.062-.514-.186-.673zM7.318 12.629c.159.32.3.638.425.957.125.32.227.634.306.943.24-.3.49-.571.754-.816.264-.244.54-.46.829-.65a9.17 9.17 0 0 1-1.217-.135 6.44 6.44 0 0 1-1.097-.3zm.06-3.247c-.36 0-.613.06-.762.18-.15.12-.224.324-.224.613 0 .678.378 1.17 1.135 1.474.756.304 1.98.456 3.673.456h.612a.41.41 0 0 1 .336.157c.084.105.142.262.172.471-.17.16-.518.343-1.045.547-.528.204-.931.406-1.21.606-.597.439-1.078.96-1.44 1.563-.365.604-.546 1.175-.546 1.713 0 .33.077.726.232 1.19.154.464.23.75.23.86v.105l-.03.134c-.437-.03-.783-.286-1.037-.77-.254-.484-.38-1.13-.38-1.938v-.134a.83.83 0 0 1-.232.15.656.656 0 0 1-.246.044c-.09 0-.174-.007-.254-.022a2.601 2.601 0 0 1-.269-.068 2.674 2.674 0 0 1 .09.569c0 .369-.145.686-.433.95a1.474 1.474 0 0 1-1.03.396c-.628 0-1.265-.306-1.912-.92-.647-.613-.97-1.214-.97-1.803 0-.11.012-.207.037-.291A.502.502 0 0 1 2 15.396c.14.17.333.419.582.748.657.907 1.264 1.361 1.822 1.361.189 0 .358-.06.508-.18.149-.119.224-.244.224-.373 0-.15-.1-.399-.3-.748a9.7 9.7 0 0 0-.82-1.182c-.399-.51-.73-.88-.993-1.115-.264-.234-.476-.352-.635-.352-.348 0-.67.188-.963.561-.294.375-.44.816-.44 1.325 0 .409.102.865.306 1.369.204.503.5 1.01.888 1.518a5.93 5.93 0 0 0 2.188 1.818c.87.424 1.834.636 2.889.636 1.941 0 3.566-.726 4.875-2.177 1.309-1.451 1.963-3.27 1.963-5.454 0-.668-.05-1.199-.149-1.593-.1-.394-.263-.68-.493-.86-.408-.34-1.202-.644-2.38-.913a16.56 16.56 0 0 0-3.697-.404zM6.33 3.861c-.418-1.188-.742-1.963-.97-2.328-.23-.364-.478-.546-.747-.546a.623.623 0 0 0-.508.24c-.13.16-.194.374-.194.643 0 .459.174 1.257.523 2.394.348 1.137.87 2.628 1.568 4.474a.5.5 0 0 1 .254-.232c.109-.045.258-.068.447-.068.06 0 .18.005.359.015.179.01.472.035.88.075L6.332 3.86zm-1.493 6.665c-.289-.255-.562-.382-.821-.382-.21 0-.441.132-.695.397-.253.264-.38.51-.38.74 0 .24.124.599.373 1.077.248.48.582.988 1 1.527.438.588.852 1.047 1.24 1.376.388.33.696.494.925.494.17 0 .324-.077.463-.232a.736.736 0 0 0 .21-.501c0-.19-.138-.631-.411-1.324a13.281 13.281 0 0 0-1.023-2.043c-.299-.499-.592-.875-.881-1.13zm7.854-1.235c.896.17 1.528.549 1.896 1.137.369.589.553 1.517.553 2.783 0 2.514-.754 4.571-2.262 6.172-1.508 1.6-3.437 2.401-5.786 2.401a7.46 7.46 0 0 1-2.696-.501 6.665 6.665 0 0 1-2.247-1.399C1.433 19.226.896 18.53.538 17.797A5.073 5.073 0 0 1 0 15.545c0-.858.184-1.52.552-1.99.368-.468.95-.787 1.748-.957-.15-.35-.26-.643-.33-.883a2.156 2.156 0 0 1-.104-.553c0-.45.237-.908.71-1.377.472-.469.918-.703 1.336-.703.18 0 .368.032.568.097.199.065.427.172.687.322C4.4 7.326 3.843 5.648 3.494 4.466 3.146 3.284 2.97 2.47 2.97 2.02c0-.619.16-1.11.478-1.474C3.768.182 4.201 0 4.75 0c.935 0 2.12 2.095 3.553 6.284.249.718.438 1.272.567 1.66.11-.308.264-.747.463-1.316C10.766 2.478 12 .404 13.035.404c.508 0 .914.172 1.218.516.303.344.455.806.455 1.384 0 .439-.167 1.242-.5 2.409-.334 1.167-.839 2.693-1.516 4.578z" mask="url(#b)"/>
    </g>
</symbol><symbol id="icon-technology-1" viewBox="0 0 41 40">
    <path fill-rule="evenodd" d="M8.65.006a.516.516 0 0 0-.304.144L.661 7.84a.506.506 0 0 0-.148.373c.002.138.062.27.164.364l11.352 11.151L.164 31.424a.508.508 0 0 0-.164.364c-.004.14.05.275.148.373l7.686 7.69c.2.199.52.199.72 0l9.896-9.74a.508.508 0 0 0 .154-.363.513.513 0 0 0-.875-.375l-9.51 9.389-6.966-6.97 7.782-7.659 2.386 2.388a.52.52 0 0 0 .889-.369.52.52 0 0 0-.153-.368l-2.385-2.388 2.994-2.947 17.117 16.838c.062.062.14.106.224.129l10.248 2.563c.18.048.37-.004.5-.136a.516.516 0 0 0 .124-.505l-3.074-10.254a.495.495 0 0 0-.128-.224l-8.951-8.956L40.323 8.576a.508.508 0 0 0 .164-.364.506.506 0 0 0-.148-.373L32.653.15a.517.517 0 0 0-.432-.144.515.515 0 0 0-.289.144L20.42 11.492 9.083.15a.517.517 0 0 0-.432-.144zM32.27 1.24l6.965 6.969-11.129 10.975-6.965-6.97 3.138-3.076 2.514 2.515c.098.097.23.149.367.147a.513.513 0 0 0 .508-.52.508.508 0 0 0-.154-.364l-2.498-2.515 2.882-2.836 2.482 2.5a.52.52 0 0 0 .889-.369.52.52 0 0 0-.152-.368l-2.498-2.5 3.65-3.588zm-23.554.016l3.618 3.62-6.917 6.938-3.65-3.605 6.949-6.953zm4.355 4.357L36.672 29.23l-6.71 6.713-23.81-23.424 6.918-6.905zM8.202 29.742c-1.126 0-2.05.923-2.05 2.05 0 1.128.924 2.035 2.05 2.035a2.03 2.03 0 0 0 2.034-2.035c0-1.127-.907-2.05-2.034-2.05zm28.966.464l1.425 4.79-.016.017-2.754 2.771-4.98-1.25 6.325-6.328zm-28.966.545a1.03 1.03 0 0 1 1.025 1.041c0 .573-.452 1.026-1.025 1.026a1.03 1.03 0 0 1-1.04-1.026c0-.572.468-1.041 1.04-1.041zm30.743 5.367l.785 2.644-2.754-.689 1.97-1.955z"/>
</symbol><symbol id="icon-technology-2" viewBox="0 0 38 45">
    <g fill-rule="evenodd">
        <path d="M36.79 31.376c-.637-4.168-4.028-5.654-5.37-6.007 0 0-3.322-.99-5.654-1.27-1.06-.142-1.908-.99-2.12-2.05 1.484-1.554 2.473-3.815 2.757-6.29 2.403-.565 5.017-1.554 5.017-3.39 0-1.555-2.12-2.757-5.158-3.392l-.494-5.582C25.344.71 22.658.145 21.388.498L19.195.99a2.657 2.657 0 0 1-1.06 0L15.943.498c-2.826-.637-4.38 1.838-4.38 2.897l-.494 5.582c-3.038.706-5.158 1.838-5.158 3.391 0 1.838 2.613 2.826 5.017 3.391.283 2.404 1.271 4.665 2.685 6.22-.212 1.06-.99 1.978-2.12 2.048-2.191.283-5.653 1.271-5.653 1.271-2.826.849-4.736 3.18-5.37 6.078-.85 4.805.986 10.318.986 10.318s7.49 2.473 17.242 2.473c9.681 0 17.314-2.473 17.314-2.473s1.696-4.311.778-10.318h-.001zm-6.784-19.01c0 .425-.99 1.272-3.534 1.908a9.619 9.619 0 0 0-.918-4.027c2.826.565 4.452 1.483 4.452 2.12zM13.045 3.535c.424-1.767 2.048-1.838 2.613-1.696l2.192.494c.565.141 1.13.141 1.695 0l2.191-.494c.637-.14 2.192-.07 2.614 1.626l.425 5.158c-1.908-.283-4.028-.493-6.148-.493s-4.24.14-6.148.493l.566-5.088zM7.39 12.367c0-.637 1.626-1.555 4.452-2.12-.565 1.271-.849 2.614-.918 4.027-2.544-.634-3.534-1.483-3.534-1.907zm6.22-2.402a35.897 35.897 0 0 1 5.088-.353c1.908 0 3.603.14 5.088.353.778 1.343 1.271 2.897 1.271 4.593 0 4.452-3.038 8.48-6.36 8.48-3.32 0-6.359-4.028-6.359-8.48 0-1.696.425-3.25 1.272-4.593zM2.02 31.588c.494-2.332 1.98-4.38 5.442-5.23l-1.626 3.039 1.271 1.271-1.979 1.98 5.23 9.397a54.982 54.982 0 0 1-7.703-1.626c-.07.143-1.553-4.52-.635-8.831zM12.055 42.4l-5.229-9.398 2.26-2.26-1.554-1.555 1.767-3.25c.424-.072.918-.213 1.343-.284v1.555c0 5.582 1.838 11.024 5.158 15.475-1.27-.07-2.472-.142-3.745-.283zm5.583.353a24.518 24.518 0 0 1-5.583-15.547v-1.767c1.272-.284 2.333-1.202 2.826-2.404 1.13.849 2.473 1.414 3.816 1.414 1.342 0 2.685-.494 3.815-1.342.494 1.201 1.555 2.048 2.826 2.332v1.767a24.522 24.522 0 0 1-5.582 15.547h-2.118zm9.116-15.547v-1.484c.494.072.918.212 1.343.284l1.695 3.25-1.555 1.555 2.261 2.26-5.156 9.329c-1.202.14-2.473.212-3.746.283 3.393-4.454 5.23-9.893 5.158-15.478zm8.057 13.356c-2.544.706-5.158 1.27-7.702 1.625l5.23-9.397-1.98-1.98 1.271-1.27-1.626-3.039c4.311.919 5.23 4.028 5.442 5.23.777 4.874-.635 8.83-.635 8.83z"/>
        <path d="M14.459 26.146v6.36l4.24-1.696 4.24 1.696v-6.36l-4.24 1.696-4.24-1.696zm1.413 4.24v-2.12l2.686 1.061-2.686 1.06zm5.652-2.12v2.12l-2.685-1.06 2.685-1.06z"/>
    </g>
</symbol><symbol id="icon-technology-3" viewBox="0 0 40 40">
    <g fill-rule="evenodd">
        <path d="M38.995.093H8.592c-.281 0-.467.186-.467.467v7.658l-7.61.002c-.282 0-.468.186-.468.467V39.09c0 .28.186.467.467.467h30.403c.281 0 .467-.186.467-.467l-.002-7.66h7.658c.281 0 .467-.186.467-.467L39.51.56c-.047-.234-.281-.467-.514-.467zm-8.592 38.528H.982V9.154h7.19v21.808c0 .281.187.467.468.467h21.808v7.191h-.045zm0-8.125H9.059V9.154h21.342l.002 21.342zm8.125 0h-7.191V8.687c0-.28-.186-.467-.467-.467H9.06V1.028h29.468v29.468z"/>
        <path d="M12.795 19.8h5.745v5.79c0 .28.186.467.467.467.28 0 .467-.186.467-.467V19.8h5.744c.281 0 .467-.186.467-.467 0-.28-.186-.467-.467-.467h-5.744v-5.743c0-.28-.186-.467-.467-.467s-.467.186-.467.467v5.79h-5.745c-.281 0-.467.186-.467.467s.188.42.467.42z"/>
    </g>
</symbol><symbol id="icon-technology-4" viewBox="0 0 42 43">
    <g fill-rule="evenodd">
        <path d="M4.717 12.44l.064.453c.194 1.164.58 2.197 1.357 3.101 1.227 1.55 3.101 2.457 5.17 2.457a6.237 6.237 0 0 0 3.684-1.164l.774-.646a6.402 6.402 0 0 0 1.68-2.39c1.358-3.361-.323-7.174-3.683-8.531l-.453-.194-2.327 5.817-6.266 1.097zm9.047-5.493c2.585 1.293 3.748 4.33 2.714 7.044-.323.84-.776 1.421-1.357 2.004l-3.296-4.137 1.94-4.91zm.581 9.694a5.64 5.64 0 0 1-3.1.904c-1.745 0-3.297-.776-4.395-2.133-.517-.71-.904-1.357-1.034-2.197l5.235-.776 3.294 4.202z"/>
        <path d="M12.665 4.361l-.453-.193a5.994 5.994 0 0 0-3.36-.388c-1.744.26-3.295 1.164-4.329 2.585-1.033 1.42-1.486 3.166-1.227 4.847l.064.452 6.785-.97 2.52-6.333zM4.2 10.631c-.064-1.293.324-2.584 1.1-3.684.904-1.227 2.197-2.003 3.683-2.197.324-.064.581-.064.84-.064.517 0 1.034.064 1.551.26l-1.94 4.91-5.234.775z"/>
        <path d="M27.853 25.882h-.97v11.889h-4.071v-6.655h-.97v6.655h-4.136V24.719h-.968v13.052h-4.073v-9.047h-.968v9.047H7.561V32.86h-.97v4.911H4.588v.97H29.92v-.97h-2.067z"/>
        <path d="M34.573 26.463V.29H.13v38.191c0 2.261 1.874 4.137 4.136 4.137h33.41c2.261 0 4.137-1.874 4.137-4.137l-.002-12.018h-7.238zM4.265 41.648a3.172 3.172 0 0 1-3.167-3.167L1.1 1.261h32.504v37.222c0 1.293.58 2.39 1.486 3.167l-30.825-.002zm36.64-3.165a3.172 3.172 0 0 1-3.167 3.167 3.172 3.172 0 0 1-3.166-3.167l.001-11.05h6.334l-.002 11.05z"/>
        <path d="M37.223 29.436h.97v.97h-.97z"/>
        <path d="M37.223 32.343h.97v.97h-.97z"/>
        <path d="M37.223 35.251h.97v.97h-.97z"/>
        <path d="M37.223 38.16h.97v.97h-.97z"/>
        <path d="M19.581 15.735h12.278v.97H19.581z"/>
        <path d="M21.002 12.181h10.857v.97H21.002z"/>
        <path d="M23.522 8.627h8.337v.97h-8.337z"/>
    </g>
</symbol><symbol id="icon-technology-5" viewBox="0 0 40 40">
    <path fill-rule="evenodd" d="M3.938.004A.5.5 0 0 0 3.5.519V23.55C1.533 23.8 0 25.47 0 27.5c0 2.033 1.533 3.717 3.5 3.967v8.026a.495.495 0 0 0 .145.357.497.497 0 0 0 .71 0 .495.495 0 0 0 .145-.357v-8.026C6.467 31.217 8 29.533 8 27.5s-1.533-3.7-3.5-3.95V.518a.498.498 0 0 0-.563-.515zm16 0a.5.5 0 0 0-.438.515v8.042c-1.967.25-3.5 1.918-3.5 3.95s1.533 3.716 3.5 3.966v23.016a.495.495 0 0 0 .145.357.497.497 0 0 0 .71 0 .495.495 0 0 0 .145-.357V16.477c1.967-.25 3.5-1.934 3.5-3.966s-1.533-3.7-3.5-3.95V.519a.498.498 0 0 0-.563-.515zm16 0a.5.5 0 0 0-.438.515V23.55c-1.967.25-3.5 1.92-3.5 3.95 0 2.033 1.533 3.717 3.5 3.967v8.026a.495.495 0 0 0 .145.357.497.497 0 0 0 .71 0 .495.495 0 0 0 .145-.357v-8.026c1.967-.25 3.5-1.934 3.5-3.966s-1.533-3.7-3.5-3.95V.518a.498.498 0 0 0-.563-.515zM20 9.513c1.662 0 3 1.337 3 2.998a2.992 2.992 0 0 1-3 2.998c-1.662 0-3-1.337-3-2.998a2.992 2.992 0 0 1 3-2.998zM4 24.503c1.662 0 3 1.337 3 2.998a2.992 2.992 0 0 1-3 2.998c-1.662 0-3-1.337-3-2.998a2.992 2.992 0 0 1 3-2.998zm32 0c1.662 0 3 1.337 3 2.998a2.992 2.992 0 0 1-3 2.998c-1.662 0-3-1.337-3-2.998a2.992 2.992 0 0 1 3-2.998z"/>
</symbol><symbol id="icon-technology-6" viewBox="0 0 50 51">
    <g fill-rule="evenodd" opacity=".8">
        <path d="M23.651 1.274c.149-.73.59-1.177 1.186-1.203.176-.009.347.013.512.075.157.06.302.14.426.25.134.116.252.245.315.411.058.153.094.314.144.49a24.35 24.35 0 0 1 5.652 1.017c.166-.394.433-.672.844-.784.282-.077.564-.066.837.048.642.269.9.837.726 1.614.878.377 1.732.805 2.561 1.283.822.476 1.612.999 2.372 1.563.715-.657 1.367-.49 1.8-.147.417.33.71 1.001.187 1.808a24.293 24.293 0 0 1 3.71 4.38c.364-.148.724-.193 1.085-.028.27.123.478.306.62.566.26.48.254 1.13-.402 1.68a24.043 24.043 0 0 1 2.025 5.475c.368.035.702.144.96.416.192.2.314.437.347.714.066.568-.228 1.122-.846 1.386.017.19.032.383.051.58.024.236.06.47.076.705.056.887.082 1.776.045 2.663-.022.53-.082 1.057-.123 1.584-.008.118-.013.237-.02.355.601.282.918.738.817 1.393-.108.693-.581 1.037-1.26 1.113a24.14 24.14 0 0 1-2.03 5.591c.425.491.547 1.03.194 1.595-.329.526-.828.709-1.448.573a24.311 24.311 0 0 1-3.868 4.578c.308.689.192 1.266-.32 1.675-.496.394-1.146.361-1.63-.052a24.4 24.4 0 0 1-5.106 2.908c.082.366.011.697-.196.997-.157.226-.361.4-.624.492a1.22 1.22 0 0 1-.902-.023 1.37 1.37 0 0 1-.671-.614 23.77 23.77 0 0 1-5.738.967c-.018.08-.04.163-.056.245-.14.64-.715 1.066-1.337 1.01-.622-.058-1.083-.485-1.184-1.143-.006-.037-.009-.076-.013-.123a24.278 24.278 0 0 1-5.626-1.02c-.033.062-.06.116-.09.17-.296.506-.726.775-1.32.697-.476-.062-.814-.336-1.003-.775-.134-.31-.14-.63.002-.968-.874-.392-1.73-.81-2.557-1.29a26.037 26.037 0 0 1-2.383-1.575c-.258.312-.579.501-.981.514a1.216 1.216 0 0 1-.85-.305c-.478-.411-.679-1.137-.128-1.847-.686-.663-1.362-1.339-1.975-2.075A24.55 24.55 0 0 1 4.74 38.59c-.392.17-.79.232-1.188.043a1.243 1.243 0 0 1-.616-.603c-.278-.586-.099-1.242.497-1.662a24.24 24.24 0 0 1-2.014-5.43l-.323-.052a1.264 1.264 0 0 1-1.044-1.033 1.267 1.267 0 0 1 .667-1.356c.071-.037.142-.067.235-.11-.11-.96-.185-1.926-.192-2.9-.006-.974.056-1.945.155-2.924-.667-.313-1.04-.808-.856-1.555.154-.637.63-.938 1.287-.985.226-.973.503-1.927.84-2.863a24.16 24.16 0 0 1 1.19-2.75c-.442-.468-.577-1.004-.248-1.577.331-.574.859-.761 1.51-.607a24.163 24.163 0 0 1 3.82-4.533c-.382-.703-.121-1.35.3-1.683.41-.323 1.036-.432 1.647.056a24.236 24.236 0 0 1 5.082-2.919c-.073-.695.233-1.233.79-1.461.49-.2 1.188-.082 1.606.581.622-.155 1.244-.33 1.875-.463a25.644 25.644 0 0 1 1.937-.333c.646-.095 1.293-.136 1.954-.198zm8.448 23.27a16.22 16.22 0 0 1-1.728-2.413 16.784 16.784 0 0 1-1.277-2.678c-.667.02-1.125-.28-1.38-.893-.97.155-1.939.235-2.911.224a18.214 18.214 0 0 1-2.921-.282c-.256.697-.758.997-1.486.94a17.032 17.032 0 0 1-3.004 4.966c.497.584.501 1.17.088 1.77 1.3 1.523 2.27 3.224 2.975 5.086.32-.041.6.015.863.174.267.16.437.403.564.667 1.965-.329 3.906-.299 5.845.056.267-.665.756-.96 1.468-.9a16.948 16.948 0 0 1 2.934-5.068c-.41-.55-.409-1.092-.03-1.65zm8.195 6.165a16.486 16.486 0 0 1-3.11 5.374c.428.612.36 1.182-.095 1.727a21.294 21.294 0 0 1 2.914 4.56c.172.044.323.065.46.119.145.056.28.142.42.215 1.079-.887 3.177-3.37 3.752-4.442-.682-.605-.624-1.29-.316-1.759.146-.224.348-.383.598-.486.342-.14.676-.112 1.01.03a23.08 23.08 0 0 0 1.162-2.663c.357-.96.8-2.527.783-2.802a1.122 1.122 0 0 1-.501-.342c-.13-.166-.233-.351-.351-.534a23.07 23.07 0 0 1-2.622.12 24.671 24.671 0 0 1-2.632-.204c-.1.336-.233.64-.519.841a1.3 1.3 0 0 1-.953.246zm-32.468-9.68c.108-.352.254-.632.543-.832.288-.203.607-.235.944-.222a16.443 16.443 0 0 1 3.104-5.355c-.462-.595-.36-1.257.1-1.763A21.586 21.586 0 0 1 9.6 8.304c-.34.018-.612-.14-.88-.303C7.298 9.338 6.05 10.797 5 12.42c.508.369.659 1.004.413 1.564a1.272 1.272 0 0 1-.635.637 1.255 1.255 0 0 1-1.059.006c-.865 1.754-1.543 3.556-1.963 5.478.366.166.644.428.782.818.1 0 .191.017.273-.002.293-.071.594-.067.889-.078.73-.025 1.46-.008 2.189-.008.047 0 .097-.007.142.004.316.067.641.043.958.09.069.011.14.02.209.028l.628.071zM9.56 42.542a21.648 21.648 0 0 1 2.916-4.787 1.267 1.267 0 0 1-.38-.859c-.024-.33.107-.605.266-.85-.25-.325-.488-.637-.73-.947-.488-.624-.899-1.298-1.271-1.996a14.292 14.292 0 0 1-.75-1.59c-.077-.203-.165-.4-.243-.592-.712.03-1.369-.278-1.528-1.33-.034 0-.075-.007-.112.002a6.118 6.118 0 0 1-.95.14c-.178.013-.363.015-.537.054-.278.062-.562.066-.842.077-.762.026-1.524.009-2.283.009-.063 0-.13.004-.188-.015a.747.747 0 0 0-.344-.018 1.427 1.427 0 0 1-.773.993c.112.415.211.813.332 1.207.137.454.286.906.445 1.354.252.706.532 1.401.87 2.07.062.128.127.255.187.38l.179.37c.394-.153 1.007.105 1.291.477.162.211.246.455.26.717.02.349-.105.655-.316.917a24.564 24.564 0 0 0 3.698 4.368c.241-.162.517-.166.803-.151zm27.555-29.622l.05.067c.015.017.034.032.05.051.316.424.4.876.154 1.365-.045.088-.09.179-.135.265 1.324 1.526 2.3 3.243 3 5.116.777-.032 1.264.323 1.479 1.033a17.999 17.999 0 0 1 2.675-.305c.909-.028 1.82-.052 2.702.036.127-.153.226-.297.35-.413.123-.116.272-.202.407-.3-.43-1.863-1.11-3.633-1.98-5.357-.127.018-.262.06-.387.048a1.452 1.452 0 0 1-.898-.42c-.353-.35-.454-.977-.232-1.4.069-.13.153-.253.239-.395a24.19 24.19 0 0 0-3.672-4.34c-.155.065-.289.14-.433.17-.144.033-.297.02-.459.029a21.386 21.386 0 0 1-2.91 4.75zM17.837 47.943c.112.028.21.052.308.078.336.092.672.193 1.012.28.338.085.68.163 1.022.234.274.056.551.103.829.146.263.041.527.06.79.104.278.045.555.09.84.09.038 0 .081-.009.118.004.232.08.467.03.7.04.178-.49.524-.789 1.015-.847.691-.082 1.165.259 1.438.893.062 0 .12.013.172-.002.218-.06.44-.038.659-.045.015 0 .032 0 .047-.002.24-.03.48-.062.72-.09.186-.022.374-.033.56-.052.126-.013.248-.03.373-.052.246-.043.489-.088.734-.138a27.917 27.917 0 0 0 1.886-.43c.172-.043.34-.099.52-.15-.075-.487.138-.853.431-1.184a21.558 21.558 0 0 1-2.529-4.65c-.226.138-.463.127-.697.125-.256-.004-.455-.125-.661-.265-.209-.14-.284-.366-.424-.536-.237.03-.465.041-.682.095-.149.035-.302.013-.444.047-.262.063-.53.067-.792.078-.65.026-1.3.009-1.95.009-.056 0-.114.008-.166-.007-.252-.075-.514-.026-.768-.084-.19-.043-.386-.058-.58-.084-.19-.026-.385-.05-.57-.073-.144.265-.303.482-.549.629-.256.152-.536.155-.817.146-.054.123-.106.228-.143.338a16.478 16.478 0 0 1-.75 1.763c-.18.374-.375.74-.578 1.102-.183.327-.378.648-.576.964-.175.278-.36.547-.54.82-.055.08-.104.16-.078.263.034.144.077.286.12.443zm10.007-38.72c.278-.558.723-.816 1.304-.831.345-.934.726-1.828 1.182-2.69.456-.862.95-1.701 1.526-2.482-.024-.168-.047-.33-.07-.504-.171-.052-.339-.108-.511-.153-.525-.135-1.048-.282-1.58-.394a29.317 29.317 0 0 0-1.677-.288c-.355-.052-.716-.07-1.074-.101-.023-.002-.05.004-.07-.002-.231-.087-.47-.026-.698-.048-.198.564-.751.947-1.3.908-.513-.036-.965-.325-1.186-.938a23.698 23.698 0 0 0-5.655.964c.071.377-.082.696-.239 1.003 1.055 1.477 1.87 3.057 2.523 4.736.74-.142 1.27.153 1.597.798.237-.03.456-.04.667-.092.142-.035.284-.015.42-.048.284-.066.577-.075.86-.077.759-.007 1.518-.06 2.276.034.241.03.486.028.728.054.152.017.303.063.456.086.163.028.334.043.52.065h.001zm11.165-2.841a24.085 24.085 0 0 0-4.916-2.833c-.252.338-.612.486-1.092.495-.31-.021-.632-.174-.895-.458-1.063 1.551-1.935 3.177-2.553 4.946.568.293.822.749.766 1.375l.186.071c.402.168.811.319 1.203.504a16.21 16.21 0 0 1 3.259 2.012c.15.121.307.233.462.351.192-.185.426-.232.65-.288.235-.058.452.067.672.116.775-.76 2.652-3.833 2.845-4.666-.615-.381-.76-.95-.587-1.625zm-28.4 37.859a23.276 23.276 0 0 0 4.95 2.856c.025-.024.049-.045.07-.067.379-.39.829-.48 1.326-.293.172.065.323.181.489.278a20.391 20.391 0 0 0 2.518-4.884c-.495-.318-.753-.744-.67-1.33a5.932 5.932 0 0 0-.167-.073c-.41-.17-.825-.325-1.227-.51a15.385 15.385 0 0 1-2.45-1.412c-.37-.26-.719-.551-1.08-.827-.067-.05-.142-.088-.209-.129-.426.33-.872.312-1.35.162-.032.038-.07.08-.103.122-.269.364-.544.723-.807 1.092-.42.591-.8 1.207-1.145 1.846-.252.47-.48.95-.715 1.427-.03.06-.038.13-.058.19.5.29.807.807.629 1.552zm9.336-35.615a20.9 20.9 0 0 0-2.478-4.688c-.12.056-.228.119-.346.158-.102.034-.211.056-.319.06-.082.004-.168-.032-.252-.041a1.091 1.091 0 0 1-.69-.355c-.076-.08-.156-.155-.24-.237a23.724 23.724 0 0 0-4.957 2.837c.306.63.177 1.453-.615 1.834.129.641 2.027 3.618 2.815 4.42.17-.04.332-.096.5-.113.275-.028.52.08.744.23.076.052.14.062.194.043a16.325 16.325 0 0 1 5.125-2.908c-.106-.387.131-.99.519-1.24zm27.034 12.338c-.142-.015-.29-.043-.437-.043-.715-.004-1.43-.008-2.142 0-.284.005-.568.033-.852.058-.211.02-.422.05-.633.08-.295.041-.592.086-.887.13-.105.014-.213.034-.312.05-.112.494-.379.834-.816 1.032.366 1.989.377 3.973.037 5.964.45.179.723.504.826.975 1.755.26 3.502.263 5.242.095.019-.039.032-.052.032-.067.043-.52.525-1.093 1.158-1.123.043-.003.084-.033.14-.056.017-.218.032-.429.05-.64.012-.157.027-.312.042-.469.015-.157.041-.312.041-.47.005-.77.002-1.538.002-2.309 0-.047.003-.094-.002-.142-.028-.305-.06-.609-.088-.912a77.6 77.6 0 0 0-.067-.704c-.002-.013-.017-.026-.028-.037-.841-.12-1.229-.598-1.306-1.412zm-8.07 23.354c-.306-.695-.155-1.377.663-1.853a20.494 20.494 0 0 0-2.813-4.395c-.25.06-.474.157-.728.112s-.469-.168-.686-.289a16.447 16.447 0 0 1-5.177 2.945c.095.435-.086.78-.334 1.093a20.56 20.56 0 0 0 2.549 4.686c.06-.013.099-.017.135-.028.513-.133.93.028 1.281.403.054.058.104.118.149.17 2.049-.85 3.977-2.054 4.961-2.844zM2.59 29.39c.18.021.344.054.508.056.777.006 1.554.002 2.331.002.047 0 .1.009.142-.004.267-.078.545-.035.816-.084.2-.039.407-.03.61-.058.315-.045.628-.106.976-.164.162-.297.383-.577.73-.712-.043-.28-.088-.558-.127-.833-.024-.17-.028-.343-.054-.515-.047-.342-.099-.682-.09-1.029.015-.639-.048-1.28.04-1.92.035-.256.03-.516.057-.774.015-.155.058-.306.081-.459.022-.144.037-.288.054-.426-.452-.209-.736-.534-.84-1.012-.174-.021-.335-.043-.496-.06-.173-.02-.347-.02-.515-.056a4.646 4.646 0 0 0-.91-.077c-.917-.013-1.836-.056-2.751.036-.192.02-.385.037-.573.054a1.4 1.4 0 0 1-.387.86 1.199 1.199 0 0 1-.872.384c-.015.142-.028.273-.04.405-.005.047.01.1-.007.142-.06.144-.03.295-.043.443-.013.149-.041.295-.043.444-.007.54-.005 1.078-.007 1.618 0 .278-.004.556.004.833.01.282.03.564.048.848.002.024-.002.05.004.071.069.252.045.515.09.767.011.051.018.103.026.15.57.119.95.276 1.238 1.07zm34.286 6.425c1.257-1.4 2.781-4.049 3.018-5.25-.545-.344-.766-.835-.626-1.49a16.205 16.205 0 0 1-2.794-1.108 14.721 14.721 0 0 1-2.544-1.653 1.318 1.318 0 0 1-.876.327c-.345 2.144-1.33 3.918-2.951 5.325.127.291.163.566.09.874 1.914.704 3.603 1.772 5.114 3.121.497-.396 1.014-.447 1.57-.146zM12.738 14.897a15.801 15.801 0 0 0-3.03 5.239c.283.135.46.35.576.617.116.267.116.545.065.84.957.305 1.887.67 2.783 1.132a16.727 16.727 0 0 1 2.522 1.642c.259-.206.536-.316.848-.308.353-2.158 1.341-3.945 2.981-5.363-.154-.285-.133-.573-.096-.849-.035-.028-.05-.047-.07-.058a1.176 1.176 0 0 0-.128-.058 13.17 13.17 0 0 1-2.306-1.117 14.913 14.913 0 0 1-2.413-1.77c-.049-.044-.111-.077-.172-.118-.475.422-.99.444-1.56.17zm1.504 20.986a15.341 15.341 0 0 1 5.138-3.145c0-.138-.01-.258.002-.374.015-.123.052-.244.08-.375-1.636-1.412-2.615-3.205-2.966-5.344-.407-.056-.672-.158-.962-.444a15.819 15.819 0 0 1-5.244 2.783c.147.319.21.64.108.98a1.411 1.411 0 0 1-.618.8c.306.878.704 1.71 1.156 2.516.459.816 1.464 2.22 1.774 2.448.577-.308 1.059-.211 1.532.155zm19.693-11.507a15.51 15.51 0 0 1 2.481-1.703 17.587 17.587 0 0 1 2.796-1.222 1.178 1.178 0 0 1 .033-.846 1.34 1.34 0 0 1 .557-.65c-.045-.848-2.07-4.325-2.918-5.003a1.385 1.385 0 0 1-.786.17c-.289-.021-.53-.146-.76-.335a15.991 15.991 0 0 1-2.421 1.83c-.861.529-1.772.957-2.708 1.297 0 .164.015.297-.004.428-.018.13-.07.254-.108.386 1.638 1.418 2.613 3.207 2.957 5.336.319.015.48.058.88.312zm-12.797 9.378c.364 2.026.317 4.04-.09 6.053.553.232.775.68.81 1.248.458.067.897.14 1.338.194.241.03.487.043.73.05.277.008.555.006.833.006.538 0 1.074.004 1.61-.052l.07-.004c.218-.03.436-.054.65-.093.175-.03.358-.024.522-.11.066-.69.424-1.138 1.119-1.313-.217-.992-.37-1.971-.394-2.97-.026-1.01.004-2.015.187-2.981-.215-.164-.406-.312-.611-.467-2.07.822-4.165.818-6.231.015-.194.153-.362.284-.543.424zM27.76 9.65c-.178-.021-.34-.04-.501-.064-.31-.043-.618-.104-.928-.134a13.942 13.942 0 0 0-1.04-.052c-.656-.01-1.312-.012-1.967.048-.178.017-.36.032-.538.056-.185.023-.37.054-.555.086-.082.015-.162.039-.233.056-.056.295-.118.555-.282.79-.172.245-.437.346-.669.495.424 2.01.452 4.014.084 6.025.101.062.198.105.271.172.082.073.144.168.207.243.095-.017.148-.021.2-.039.288-.094.573-.206.865-.286.607-.163 1.223-.273 1.853-.265.199.003.397.007.595-.002.372-.015.74.041 1.1.11.527.099 1.052.228 1.547.448.047.021.106.015.134.017l.482-.385c-.015-.095-.037-.21-.052-.323-.034-.271-.071-.545-.099-.816a27.52 27.52 0 0 1-.088-.936c-.013-.157-.005-.317-.005-.476 0-.61-.012-1.218.052-1.825.004-.033 0-.065.007-.095.045-.301.088-.603.135-.904.039-.237.082-.474.125-.721-.185-.149-.387-.286-.517-.502a1.262 1.262 0 0 1-.183-.72zm7.377 3.524a15.88 15.88 0 0 0-4.957-2.865c-.138.234-.319.437-.562.555-.234.116-.49.187-.768.131-.052.36-.089.72-.16 1.07-.028.134-.019.265-.038.396a6.286 6.286 0 0 0-.09 1.1c.012.6-.042 1.201.042 1.8.048.34.063.686.106 1.028.02.168.069.33.105.498.556-.041.928.245 1.26.637a14.594 14.594 0 0 0 4.991-3.05c-.149-.442-.196-.876.071-1.3zm-15.61 19.965c-.942.33-1.825.762-2.666 1.279a14.242 14.242 0 0 0-2.353 1.801c.226.44.202.874-.028 1.298 1.072.965 2.89 2.146 4.927 2.874.276-.47.693-.702 1.253-.713l.153-1.043c.019-.14.025-.282.051-.42a5.83 5.83 0 0 0 .084-.863c.013-.317.013-.635.005-.952-.01-.355.006-.708-.037-1.063-.039-.342-.067-.687-.11-1.027-.02-.159-.062-.316-.095-.478-.508-.032-.893-.251-1.183-.693zm14.665-7.127a14.213 14.213 0 0 0 3.323 2.007c.629.27 1.27.507 1.937.686.27-.379.633-.54 1.085-.553.33-1.94.317-3.866-.036-5.8-.472.012-.827-.181-1.104-.532-1.923.63-3.666 1.565-5.205 2.869.243.45.239.88 0 1.324zm-14.658-15.73c-.614.2-1.206.455-1.785.739a15.96 15.96 0 0 0-1.668.953c-.544.353-1.057.75-1.552 1.165.213.413.233.824.035 1.229a15.708 15.708 0 0 0 4.128 2.71c.288.129.58.264.883.335.499-.501.647-.49 1.134-.555.374-1.963.334-3.92-.084-5.865-.792-.233-.835-.377-1.091-.71zm9.397 23.546a14.961 14.961 0 0 0 .226 5.897c.196.108.373.183.52.295.148.112.268.26.406.4a15.678 15.678 0 0 0 4.994-2.856c-.097-.22-.17-.424-.177-.652-.006-.226.08-.428.142-.63-1.433-1.307-3.967-2.844-5.026-3.048-.245.363-.603.555-1.085.594zM9.993 28.644c1.942-.6 3.728-1.499 5.3-2.788-.108-.706-.063-.768.094-1.158-1.552-1.276-3.317-2.154-5.245-2.731a.95.95 0 0 1-.452.426c-.183.09-.377.15-.605.148-.131.687-.21 1.372-.232 2.06-.04 1.253.004 2.5.269 3.743.335-.012.61.115.871.3zm17.661 3.906a17.054 17.054 0 0 0-5.697-.058l-.033.23c-.01.076-.026.151-.04.235 1.958.745 3.887.736 5.841-.017a30.147 30.147 0 0 0-.07-.39zm.054-14.778a6.605 6.605 0 0 0-1.498-.45 7.95 7.95 0 0 0-3.01.028c-.451.09-.89.226-1.312.402.006.138-.005.259.092.356 1.888.331 3.776.355 5.663.05.026-.137.043-.25.065-.386zm1.776 1.571c.69 1.985 2.182 4.23 2.944 4.918.033-.017.067-.034.101-.053.041-.022.082-.046.123-.07-.325-2.033-1.25-3.723-2.79-5.07l-.378.275zM20.047 31.37c-.755-2.097-2.014-3.972-2.886-4.919-.073.041-.148.08-.217.119.174 1.872 1.457 4.085 2.802 5.05.097-.082.196-.162.301-.25zm12.381-4.925a16.463 16.463 0 0 0-2.867 4.957c.112.08.211.153.313.224 1.539-1.363 2.46-3.044 2.78-5.065a7.57 7.57 0 0 1-.226-.116zm-12.701-7.379c-.08.065-.15.114-.215.172a8.508 8.508 0 0 0-1.522 1.875 8.471 8.471 0 0 0-1.033 2.77c-.018.088-.04.185.019.289.045-.02.097-.028.123-.058a16.196 16.196 0 0 0 2.914-4.818l-.286-.23z"/>
        <path d="M23.522 25.334c.01-.665.54-1.27 1.276-1.263.71.006 1.275.549 1.279 1.263.004.627-.465 1.298-1.3 1.292a1.286 1.286 0 0 1-1.255-1.292z"/>
    </g>
</symbol><symbol id="icon-time" viewBox="0 0 33 33">
    <g fill-rule="evenodd">
        <path d="M28.596 16.585c.001 6.893-5.606 12.5-12.499 12.5-6.892 0-12.5-5.607-12.5-12.5 0-6.892 5.608-12.5 12.5-12.5a1.5 1.5 0 0 0 0-3c-8.547 0-15.5 6.954-15.5 15.5 0 8.547 6.953 15.5 15.5 15.5s15.5-6.953 15.5-15.5a1.5 1.5 0 0 0-3 0z"/>
        <path d="M16.896 11.634c-.426.622-.662 1.311-.823 1.954a3 3 0 1 0 2.8 1.87c.532-.396 1.077-.88 1.49-1.514.445-.718.664-1.656 1.066-2.471.385-.826.786-1.644 1.115-2.438.346-.785.645-1.533.906-2.172.512-1.284.812-2.166.812-2.166a.207.207 0 0 0-.332-.223s-.697.618-1.686 1.586c-.49.485-1.065 1.05-1.657 1.672-.608.61-1.207 1.294-1.822 1.968-.595.683-1.377 1.245-1.869 1.934z"/>
    </g>
</symbol><symbol id="icon-tw" viewBox="0 0 22 18">
    
    <g fill-rule="evenodd" opacity=".7">
        <mask id="b">
            <use xlink:href="#a"/>
        </mask>
        <path d="M21.886 2.1a8.992 8.992 0 0 1-2.579.706A4.495 4.495 0 0 0 21.282.327a9.004 9.004 0 0 1-2.852 1.087A4.49 4.49 0 0 0 15.153 0a4.485 4.485 0 0 0-4.374 5.5A12.757 12.757 0 0 1 1.524.82a4.474 4.474 0 0 0 1.39 5.98 4.482 4.482 0 0 1-2.035-.56v.056c0 2.17 1.548 3.98 3.602 4.392a4.5 4.5 0 0 1-2.028.077 4.493 4.493 0 0 0 4.195 3.11 9.023 9.023 0 0 1-5.577 1.918c-.362 0-.72-.021-1.071-.063a12.731 12.731 0 0 0 6.883 2.013c8.26 0 12.776-6.825 12.776-12.744 0-.195-.004-.388-.013-.58a9.113 9.113 0 0 0 2.24-2.319" mask="url(#b)"/>
    </g>
</symbol><symbol id="icon-unit" viewBox="0 0 33 33">
    <path fill-rule="evenodd" d="M6.682 12.299c.48 0 .96.2 1.32.598.359.36.559.84.559 1.32 0 .479-.2.96-.56 1.32l-2.358 2.357a6.588 6.588 0 0 0-1.919 4.678c0 1.799.68 3.437 1.92 4.677 1.238 1.24 2.878 1.92 4.677 1.92 1.799 0 3.437-.68 4.677-1.92l2.358-2.358c.36-.36.84-.56 1.32-.56.48 0 .96.2 1.32.56.359.36.558.84.558 1.32 0 .479-.2.96-.559 1.319l-2.358 2.358c-1.958 1.96-4.557 3.04-7.276 3.04-2.719 0-5.317-1.081-7.276-3.04C1.125 27.93.046 25.331.046 22.612c0-2.717 1.08-5.316 3.078-7.276l2.238-2.478c.361-.36.84-.56 1.32-.56zm17.873 5.436l2.398-2.279a6.588 6.588 0 0 0 1.92-4.677c0-1.799-.68-3.437-1.92-4.677-1.238-1.24-2.878-1.92-4.677-1.92-1.799 0-3.437.68-4.677 1.92L15.24 8.46c-.361.36-.84.56-1.32.56-.48 0-.96-.2-1.32-.56-.759-.72-.759-1.88 0-2.64l2.359-2.357c1.958-1.96 4.557-3.04 7.275-3.04 2.758 0 5.318 1.081 7.276 3.04 1.959 1.958 3.04 4.557 3.04 7.277 0 2.72-1.081 5.318-3.04 7.276l-2.358 2.358c-.72.72-1.878.72-2.598 0-.36-.36-.56-.84-.56-1.32 0-.479.2-.96.56-1.32zm-4.28-6.956c.04 0 .04 0 0 0 .52.04.96.24 1.32.56.359.362.559.841.559 1.32 0 .48-.2.961-.56 1.32l-7.955 7.955c-.72.72-1.878.72-2.598 0-.76-.72-.76-1.88 0-2.639l7.914-7.957c.361-.359.84-.559 1.32-.559z"/>
</symbol></svg>